{
.appVersion = "1300";
DisplayStrings = (

glyphs = (
{
color = 5;
glyphname = A;
layers = (
{
layerId = "459CA063-FA7D-4205-A795-7B6CE244EAAB";
paths = (
{
closed = 1;
nodes = (
"64 0 LINE",
"129 215 LINE",
"463 215 LINE",
"528 0 LINE",
"564 0 LINE",
"349 700 LINE",
"243 700 LINE",
"28 0 LINE"
);
},
{
closed = 1;
nodes = (
"268 666 LINE",
"324 666 LINE",
"452 249 LINE",
"140 249 LINE"
);
}
);
width = 592;
},
{
layerId = "EA657207-4E15-4023-BA2A-6FA5407A60CD";
paths = (
{
closed = 1;
nodes = (
"223 0 LINE",
"239 77 LINE",
"392 77 LINE",
"411 0 LINE",
"645 0 LINE",
"494 670 LINE",
"143 670 LINE",
"-5 0 LINE"
);
},
{
closed = 1;
nodes = (
"307 488 LINE",
"332 488 LINE",
"368 254 LINE",
"269 254 LINE"
);
}
);
width = 639;
},
{
layerId = "5E4DD32C-6BC9-4010-93B4-D8C61BED16DC";
paths = (
{
closed = 1;
nodes = (
"103 0 LINE",
"152 175 LINE",
"444 175 LINE",
"493 0 LINE",
"573 0 LINE",
"385 691 LINE",
"212 691 LINE",
"23 0 LINE"
);
},
{
closed = 1;
nodes = (
"272 623 LINE",
"324 623 LINE",
"427 246 LINE",
"169 246 LINE"
);
}
);
width = 596.31373;
}
);
leftKerningGroup = A;
rightKerningGroup = A;
unicode = 0041;
},
{
color = 5;
glyphname = AE;
layers = (
{
layerId = "459CA063-FA7D-4205-A795-7B6CE244EAAB";
paths = (
{
closed = 1;
nodes = (
"65 0 LINE",
"143 215 LINE",
"419 215 LINE",
"419 0 LINE",
"828 0 LINE",
"828 34 LINE",
"455 34 LINE",
"455 344 LINE",
"768 344 LINE",
"768 378 LINE",
"455 378 LINE",
"455 666 LINE",
"828 666 LINE",
"828 700 LINE",
"276 700 LINE",
"25 0 LINE"
);
},
{
closed = 1;
nodes = (
"304 666 LINE",
"419 666 LINE",
"419 249 LINE",
"155 249 LINE"
);
}
);
width = 879;
},
{
layerId = "EA657207-4E15-4023-BA2A-6FA5407A60CD";
paths = (
{
closed = 1;
nodes = (
"223 0 LINE",
"239 77 LINE",
"366 77 LINE",
"366 0 LINE",
"865 0 LINE",
"865 185 LINE",
"592 185 LINE",
"592 248 LINE",
"805 248 LINE",
"805 425 LINE",
"592 425 LINE",
"592 485 LINE",
"865 485 LINE",
"865 670 LINE",
"143 670 LINE",
"-5 0 LINE"
);
},
{
closed = 1;
nodes = (
"307 485 LINE",
"366 485 LINE",
"366 256 LINE",
"270 256 LINE"
);
}
);
width = 882;
},
{
layerId = "5E4DD32C-6BC9-4010-93B4-D8C61BED16DC";
paths = (
{
closed = 1;
nodes = (
"102 0 LINE",
"159 172 LINE",
"407 172 LINE",
"407 0 LINE",
"829 0 LINE",
"829 76 LINE",
"486 76 LINE",
"486 318 LINE",
"769 318 LINE",
"769 394 LINE",
"486 394 LINE",
"486 619 LINE",
"829 619 LINE",
"829 696 LINE",
"241 696 LINE",
"19 0 LINE"
);
},
{
closed = 1;
nodes = (
"299 619 LINE",
"408 619 LINE",
"407 249 LINE",
"180 249 LINE"
);
}
);
width = 875.54902;
}
);
rightKerningGroup = E;
unicode = 00C6;
userData = {
com.typemytype.robofont.guides = (
{
angle = 0;
isGlobal = 0;
magnetic = 5;
x = 0;
y = 558;
}
);
};
},
{
color = 5;
glyphname = B;
layers = (
{
layerId = "459CA063-FA7D-4205-A795-7B6CE244EAAB";
paths = (
{
closed = 1;
nodes = (
"351 0 LINE SMOOTH",
"477 0 OFFCURVE",
"561 41 OFFCURVE",
"561 193 CURVE SMOOTH",
"561 301 OFFCURVE",
"499 344 OFFCURVE",
"437 361 CURVE",
"494 382 OFFCURVE",
"534 428 OFFCURVE",
"534 527 CURVE SMOOTH",
"534 645 OFFCURVE",
"466 700 OFFCURVE",
"332 700 CURVE SMOOTH",
"92 700 LINE",
"92 0 LINE"
);
},
{
closed = 1;
nodes = (
"128 341 LINE",
"343 341 LINE SMOOTH",
"394 341 OFFCURVE",
"524 335 OFFCURVE",
"524 193 CURVE SMOOTH",
"524 69 OFFCURVE",
"453 34 OFFCURVE",
"351 34 CURVE SMOOTH",
"128 34 LINE"
);
},
{
closed = 1;
nodes = (
"128 666 LINE",
"332 666 LINE SMOOTH",
"444 666 OFFCURVE",
"497 624 OFFCURVE",
"497 527 CURVE SMOOTH",
"497 425 OFFCURVE",
"452 375 OFFCURVE",
"343 375 CURVE SMOOTH",
"128 375 LINE"
);
}
);
width = 620;
},
{
layerId = "EA657207-4E15-4023-BA2A-6FA5407A60CD";
paths = (
{
closed = 1;
nodes = (
"337 0 LINE SMOOTH",
"473 0 OFFCURVE",
"595 39 OFFCURVE",
"595 190 CURVE SMOOTH",
"595 288 OFFCURVE",
"571 316 OFFCURVE",
"509 343 CURVE",
"568 385 OFFCURVE",
"578 424 OFFCURVE",
"578 504 CURVE SMOOTH",
"578 632 OFFCURVE",
"469 670 OFFCURVE",
"333 670 CURVE SMOOTH",
"30 670 LINE",
"30 0 LINE"
);
},
{
closed = 1;
nodes = (
"262 265 LINE",
"316 265 LINE SMOOTH",
"361 265 OFFCURVE",
"375 251 OFFCURVE",
"375 211 CURVE SMOOTH",
"375 166 OFFCURVE",
"362 155 OFFCURVE",
"316 155 CURVE SMOOTH",
"262 155 LINE"
);
},
{
closed = 1;
nodes = (
"262 517 LINE",
"313 517 LINE SMOOTH",
"351 517 OFFCURVE",
"368 503 OFFCURVE",
"368 466 CURVE SMOOTH",
"368 427 OFFCURVE",
"354 410 OFFCURVE",
"314 410 CURVE SMOOTH",
"262 410 LINE"
);
}
);
width = 607;
},
{
layerId = "5E4DD32C-6BC9-4010-93B4-D8C61BED16DC";
paths = (
{
closed = 1;
nodes = (
"348 0 LINE SMOOTH",
"479 0 OFFCURVE",
"563 49 OFFCURVE",
"563 194 CURVE SMOOTH",
"563 293 OFFCURVE",
"515 336 OFFCURVE",
"455 356 CURVE",
"510 383 OFFCURVE",
"542 426 OFFCURVE",
"542 515 CURVE SMOOTH",
"542 639 OFFCURVE",
"471 691 OFFCURVE",
"336 691 CURVE SMOOTH",
"84 691 LINE",
"84 0 LINE"
);
},
{
closed = 1;
nodes = (
"164 316 LINE",
"341 316 LINE SMOOTH",
"394 316 OFFCURVE",
"482 302 OFFCURVE",
"482 197 CURVE SMOOTH",
"482 97 OFFCURVE",
"428 70 OFFCURVE",
"345 70 CURVE SMOOTH",
"164 70 LINE"
);
},
{
closed = 1;
nodes = (
"164 621 LINE",
"333 621 LINE SMOOTH",
"419 621 OFFCURVE",
"461 587 OFFCURVE",
"461 508 CURVE SMOOTH",
"461 426 OFFCURVE",
"425 386 OFFCURVE",
"340 386 CURVE SMOOTH",
"164 386 LINE"
);
}
);
width = 615.2549;
}
);
leftKerningGroup = I;
unicode = 0042;
},
{
color = 5;
glyphname = C;
layers = (
{
layerId = "459CA063-FA7D-4205-A795-7B6CE244EAAB";
paths = (
{
closed = 1;
nodes = (
"384 -9 OFFCURVE",
"451 1 OFFCURVE",
"501 11 CURVE",
"498 45 LINE",
"446 35 OFFCURVE",
"379 25 OFFCURVE",
"316 25 CURVE SMOOTH",
"132 25 OFFCURVE",
"105 147 OFFCURVE",
"105 347 CURVE SMOOTH",
"105 546 OFFCURVE",
"128 675 OFFCURVE",
"316 675 CURVE SMOOTH",
"376 675 OFFCURVE",
"455 664 OFFCURVE",
"498 655 CURVE",
"501 690 LINE",
"455 699 OFFCURVE",
"386 709 OFFCURVE",
"316 709 CURVE SMOOTH",
"103 709 OFFCURVE",
"67 565 OFFCURVE",
"67 347 CURVE SMOOTH",
"67 125 OFFCURVE",
"110 -9 OFFCURVE",
"316 -9 CURVE SMOOTH"
);
}
);
width = 545;
},
{
layerId = "EA657207-4E15-4023-BA2A-6FA5407A60CD";
paths = (
{
closed = 1;
nodes = (
"384 -13 OFFCURVE",
"473 2 OFFCURVE",
"519 13 CURVE",
"516 189 LINE",
"479 186 OFFCURVE",
"412 183 OFFCURVE",
"360 183 CURVE SMOOTH",
"272 183 OFFCURVE",
"252 202 OFFCURVE",
"252 337 CURVE SMOOTH",
"252 469 OFFCURVE",
"271 487 OFFCURVE",
"360 487 CURVE SMOOTH",
"412 487 OFFCURVE",
"478 481 OFFCURVE",
"513 477 CURVE",
"519 656 LINE",
"463 668 OFFCURVE",
"369 683 OFFCURVE",
"314 683 CURVE SMOOTH",
"82 683 OFFCURVE",
"18 601 OFFCURVE",
"18 337 CURVE SMOOTH",
"18 65 OFFCURVE",
"84 -13 OFFCURVE",
"304 -13 CURVE SMOOTH"
);
}
);
width = 533;
},
{
layerId = "5E4DD32C-6BC9-4010-93B4-D8C61BED16DC";
paths = (
{
closed = 1;
nodes = (
"378 -10 OFFCURVE",
"454 1 OFFCURVE",
"503 11 CURVE",
"500 79 LINE",
"453 71 OFFCURVE",
"378 62 OFFCURVE",
"322 62 CURVE SMOOTH",
"167 62 OFFCURVE",
"141 151 OFFCURVE",
"141 344 CURVE SMOOTH",
"141 540 OFFCURVE",
"169 630 OFFCURVE",
"321 630 CURVE SMOOTH",
"374 630 OFFCURVE",
"455 620 OFFCURVE",
"500 612 CURVE",
"503 679 LINE",
"459 689 OFFCURVE",
"383 702 OFFCURVE",
"312 702 CURVE SMOOTH",
"104 702 OFFCURVE",
"58 579 OFFCURVE",
"58 344 CURVE SMOOTH",
"58 115 OFFCURVE",
"104 -10 OFFCURVE",
"312 -10 CURVE SMOOTH"
);
}
);
width = 544.13725;
}
);
leftKerningGroup = C;
rightKerningGroup = C;
unicode = 0043;
},
{
color = 5;
glyphname = D;
layers = (
{
layerId = "459CA063-FA7D-4205-A795-7B6CE244EAAB";
paths = (
{
closed = 1;
nodes = (
"352 0 LINE SMOOTH",
"528 0 OFFCURVE",
"586 182 OFFCURVE",
"586 358 CURVE SMOOTH",
"586 534 OFFCURVE",
"528 700 OFFCURVE",
"352 700 CURVE SMOOTH",
"92 700 LINE",
"92 0 LINE"
);
},
{
closed = 1;
nodes = (
"128 666 LINE",
"352 666 LINE SMOOTH",
"502 666 OFFCURVE",
"548 508 OFFCURVE",
"548 358 CURVE SMOOTH",
"548 208 OFFCURVE",
"502 34 OFFCURVE",
"352 34 CURVE SMOOTH",
"128 34 LINE"
);
}
);
width = 649;
},
{
layerId = "EA657207-4E15-4023-BA2A-6FA5407A60CD";
paths = (
{
closed = 1;
nodes = (
"323 0 LINE SMOOTH",
"556 0 OFFCURVE",
"638 122 OFFCURVE",
"638 345 CURVE SMOOTH",
"638 568 OFFCURVE",
"546 670 OFFCURVE",
"313 670 CURVE SMOOTH",
"30 670 LINE",
"30 0 LINE"
);
},
{
closed = 1;
nodes = (
"262 481 LINE",
"303 481 LINE SMOOTH",
"393 481 OFFCURVE",
"404 438 OFFCURVE",
"404 345 CURVE SMOOTH",
"404 247 OFFCURVE",
"398 189 OFFCURVE",
"303 189 CURVE SMOOTH",
"262 189 LINE"
);
}
);
width = 654;
},
{
layerId = "5E4DD32C-6BC9-4010-93B4-D8C61BED16DC";
paths = (
{
closed = 1;
nodes = (
"331 0 LINE SMOOTH",
"536 0 OFFCURVE",
"589 156 OFFCURVE",
"589 356 CURVE SMOOTH",
"589 553 OFFCURVE",
"533 691 OFFCURVE",
"331 691 CURVE SMOOTH",
"84 691 LINE",
"84 0 LINE"
);
},
{
closed = 1;
nodes = (
"164 620 LINE",
"331 620 LINE SMOOTH",
"474 620 OFFCURVE",
"506 505 OFFCURVE",
"506 356 CURVE SMOOTH",
"506 205 OFFCURVE",
"474 71 OFFCURVE",
"331 71 CURVE SMOOTH",
"164 71 LINE"
);
}
);
width = 644.2549;
}
);
leftKerningGroup = I;
rightKerningGroup = D;
unicode = 0044;
},
{
color = 5;
glyphname = Eth;
layers = (
{
components = (
{
name = D;
transform = "{1, 0, 0, 1, 2, 0}";
}
);
layerId = "459CA063-FA7D-4205-A795-7B6CE244EAAB";
paths = (
{
closed = 1;
nodes = (
"307 334 LINE",
"307 368 LINE",
"17 368 LINE",
"17 334 LINE"
);
}
);
width = 651;
},
{
components = (
{
name = D;
transform = "{1, 0, 0, 1, 7, 0}";
}
);
layerId = "EA657207-4E15-4023-BA2A-6FA5407A60CD";
paths = (
{
closed = 1;
nodes = (
"324 270 LINE",
"324 407 LINE",
"-1 407 LINE",
"-1 270 LINE"
);
}
);
width = 661;
},
{
components = (
{
alignment = -1;
name = D;
transform = "{1, 0, 0, 1, 3, 0}";
}
);
layerId = "5E4DD32C-6BC9-4010-93B4-D8C61BED16DC";
paths = (
{
closed = 1;
nodes = (
"323 309 LINE",
"323 386 LINE",
"20 386 LINE",
"20 309 LINE"
);
}
);
width = 647.11765;
}
);
leftKerningGroup = I;
rightKerningGroup = D;
unicode = 00D0;
},
{
color = 5;
glyphname = Dcroat;
layers = (
{
components = (
{
name = D;
transform = "{1, 0, 0, 1, 2, 0}";
}
);
layerId = "459CA063-FA7D-4205-A795-7B6CE244EAAB";
paths = (
{
closed = 1;
nodes = (
"307 334 LINE",
"307 368 LINE",
"17 368 LINE",
"17 334 LINE"
);
}
);
width = 651;
},
{
components = (
{
name = D;
transform = "{1, 0, 0, 1, 7, 0}";
}
);
layerId = "EA657207-4E15-4023-BA2A-6FA5407A60CD";
paths = (
{
closed = 1;
nodes = (
"324 270 LINE",
"324 407 LINE",
"-1 407 LINE",
"-1 270 LINE"
);
}
);
width = 661;
},
{
components = (
{
alignment = -1;
name = D;
transform = "{1, 0, 0, 1, 3, 0}";
}
);
layerId = "5E4DD32C-6BC9-4010-93B4-D8C61BED16DC";
paths = (
{
closed = 1;
nodes = (
"323 309 LINE",
"323 386 LINE",
"20 386 LINE",
"20 309 LINE"
);
}
);
width = 647.11765;
}
);
leftKerningGroup = I;
rightKerningGroup = D;
unicode = 0110;
},
{
color = 5;
glyphname = E;
layers = (
{
layerId = "459CA063-FA7D-4205-A795-7B6CE244EAAB";
paths = (
{
closed = 1;
nodes = (
"501 0 LINE",
"501 34 LINE",
"128 34 LINE",
"128 341 LINE",
"441 341 LINE",
"441 375 LINE",
"128 375 LINE",
"128 666 LINE",
"501 666 LINE",
"501 700 LINE",
"92 700 LINE",
"92 0 LINE"
);
}
);
width = 552;
},
{
layerId = "EA657207-4E15-4023-BA2A-6FA5407A60CD";
paths = (
{
closed = 1;
nodes = (
"532 0 LINE",
"532 185 LINE",
"262 185 LINE",
"262 245 LINE",
"472 245 LINE",
"472 428 LINE",
"262 428 LINE",
"262 485 LINE",
"532 485 LINE",
"532 670 LINE",
"30 670 LINE",
"30 0 LINE"
);
}
);
width = 549;
},
{
layerId = "5E4DD32C-6BC9-4010-93B4-D8C61BED16DC";
paths = (
{
closed = 1;
nodes = (
"507 0 LINE",
"507 71 LINE",
"164 71 LINE",
"164 316 LINE",
"447 316 LINE",
"447 386 LINE",
"164 386 LINE",
"164 620 LINE",
"507 620 LINE",
"507 691 LINE",
"84 691 LINE",
"84 0 LINE"
);
}
);
width = 552.86275;
}
);
leftKerningGroup = I;
rightKerningGroup = E;
unicode = 0045;
},
{
color = 5;
glyphname = F;
layers = (
{
layerId = "459CA063-FA7D-4205-A795-7B6CE244EAAB";
paths = (
{
closed = 1;
nodes = (
"128 0 LINE",
"128 316 LINE",
"442 316 LINE",
"442 350 LINE",
"128 350 LINE",
"128 666 LINE",
"493 666 LINE",
"493 700 LINE",
"92 700 LINE",
"92 0 LINE"
);
}
);
width = 523;
},
{
layerId = "EA657207-4E15-4023-BA2A-6FA5407A60CD";
paths = (
{
closed = 1;
nodes = (
"262 0 LINE",
"262 184 LINE",
"453 184 LINE",
"453 373 LINE",
"262 373 LINE",
"262 481 LINE",
"513 481 LINE",
"513 670 LINE",
"30 670 LINE",
"30 0 LINE"
);
}
);
width = 521;
},
{
layerId = "5E4DD32C-6BC9-4010-93B4-D8C61BED16DC";
paths = (
{
closed = 1;
nodes = (
"164 0 LINE",
"164 283 LINE",
"447 283 LINE",
"447 354 LINE",
"164 354 LINE",
"164 620 LINE",
"499 620 LINE",
"499 691 LINE",
"84 691 LINE",
"84 0 LINE"
);
}
);
width = 526.45098;
}
);
leftKerningGroup = I;
unicode = 0046;
},
{
color = 5;
glyphname = G;
layers = (
{
layerId = "459CA063-FA7D-4205-A795-7B6CE244EAAB";
paths = (
{
closed = 1;
nodes = (
"393 -9 OFFCURVE",
"511 9 OFFCURVE",
"547 16 CURVE",
"547 347 LINE",
"361 347 LINE",
"361 313 LINE",
"511 313 LINE",
"511 45 LINE",
"467 37 OFFCURVE",
"383 25 OFFCURVE",
"327 25 CURVE SMOOTH",
"143 25 OFFCURVE",
"103 147 OFFCURVE",
"103 347 CURVE SMOOTH",
"103 546 OFFCURVE",
"139 675 OFFCURVE",
"327 675 CURVE SMOOTH",
"393 675 OFFCURVE",
"490 660 OFFCURVE",
"544 649 CURVE",
"547 684 LINE",
"498 695 OFFCURVE",
"404 709 OFFCURVE",
"327 709 CURVE SMOOTH",
"114 709 OFFCURVE",
"65 565 OFFCURVE",
"65 347 CURVE SMOOTH",
"65 125 OFFCURVE",
"121 -9 OFFCURVE",
"327 -9 CURVE SMOOTH"
);
}
);
width = 619;
},
{
layerId = "EA657207-4E15-4023-BA2A-6FA5407A60CD";
paths = (
{
closed = 1;
nodes = (
"390 -9 OFFCURVE",
"514 8 OFFCURVE",
"592 20 CURVE",
"592 394 LINE",
"345 394 LINE",
"346 232 LINE {name = hr00;}",
"376 232 LINE",
"376 182 LINE",
"363 181 OFFCURVE",
"352 181 OFFCURVE",
"342 181 CURVE SMOOTH",
"265 181 OFFCURVE",
"251 231 OFFCURVE",
"251 336 CURVE SMOOTH",
"251 453 OFFCURVE",
"253 487 OFFCURVE",
"352 487 CURVE SMOOTH",
"418 487 OFFCURVE",
"525 480 OFFCURVE",
"587 474 CURVE",
"587 649 LINE",
"527 664 OFFCURVE",
"416 683 OFFCURVE",
"332 683 CURVE SMOOTH",
"107 683 OFFCURVE",
"17 597 OFFCURVE",
"17 336 CURVE SMOOTH",
"17 98 OFFCURVE",
"77 -9 OFFCURVE",
"332 -9 CURVE SMOOTH"
);
}
);
width = 619;
},
{
layerId = "5E4DD32C-6BC9-4010-93B4-D8C61BED16DC";
paths = (
{
closed = 1;
nodes = (
"391 -10 OFFCURVE",
"504 6 OFFCURVE",
"550 14 CURVE",
"550 354 LINE",
"359 354 LINE",
"359 283 LINE",
"471 283 LINE",
"471 74 LINE",
"439 68 OFFCURVE",
"376 61 OFFCURVE",
"331 61 CURVE SMOOTH",
"173 61 OFFCURVE",
"139 152 OFFCURVE",
"139 344 CURVE SMOOTH",
"139 540 OFFCURVE",
"175 630 OFFCURVE",
"333 630 CURVE SMOOTH",
"399 630 OFFCURVE",
"494 618 OFFCURVE",
"547 609 CURVE",
"550 675 LINE",
"498 687 OFFCURVE",
"400 702 OFFCURVE",
"323 702 CURVE SMOOTH",
"115 702 OFFCURVE",
"56 575 OFFCURVE",
"56 344 CURVE SMOOTH",
"56 119 OFFCURVE",
"112 -10 OFFCURVE",
"325 -10 CURVE SMOOTH"
);
}
);
width = 615.54902;
}
);
leftKerningGroup = O;
rightKerningGroup = G;
unicode = 0047;
},
{
color = 5;
glyphname = Gdotaccent;
layers = (
{
components = (
{
name = G;
}
);
layerId = "459CA063-FA7D-4205-A795-7B6CE244EAAB";
paths = (
{
closed = 1;
nodes = (
"331 823 LINE",
"331 878 LINE",
"296 878 LINE",
"296 823 LINE"
);
}
);
width = 619;
},
{
components = (
{
name = G;
}
);
layerId = "EA657207-4E15-4023-BA2A-6FA5407A60CD";
paths = (
{
closed = 1;
nodes = (
"398 728 LINE",
"398 881 LINE",
"212 881 LINE",
"212 728 LINE"
);
}
);
width = 619;
},
{
components = (
{
alignment = -1;
name = G;
}
);
layerId = "5E4DD32C-6BC9-4010-93B4-D8C61BED16DC";
paths = (
{
closed = 1;
nodes = (
"352 799 LINE",
"352 888 LINE",
"274 888 LINE",
"274 799 LINE"
);
}
);
width = 615.54902;
}
);
leftKerningGroup = O;
rightKerningGroup = G;
unicode = 0120;
},
{
color = 5;
glyphname = H;
layers = (
{
layerId = "459CA063-FA7D-4205-A795-7B6CE244EAAB";
paths = (
{
closed = 1;
nodes = (
"128 0 LINE",
"128 334 LINE",
"546 334 LINE",
"546 0 LINE",
"582 0 LINE",
"582 700 LINE",
"546 700 LINE",
"546 368 LINE",
"128 368 LINE",
"128 700 LINE",
"92 700 LINE",
"92 0 LINE"
);
}
);
width = 674;
},
{
layerId = "EA657207-4E15-4023-BA2A-6FA5407A60CD";
paths = (
{
closed = 1;
nodes = (
"262 0 LINE",
"262 234 LINE",
"393 234 LINE",
"393 0 LINE",
"625 0 LINE",
"625 670 LINE",
"393 670 LINE",
"393 423 LINE",
"262 423 LINE",
"262 670 LINE",
"30 670 LINE",
"30 0 LINE"
);
}
);
width = 655;
},
{
layerId = "5E4DD32C-6BC9-4010-93B4-D8C61BED16DC";
paths = (
{
closed = 1;
nodes = (
"164 0 LINE",
"164 312 LINE",
"511 312 LINE",
"511 0 LINE",
"591 0 LINE",
"591 691 LINE",
"511 691 LINE",
"511 383 LINE",
"164 383 LINE",
"164 691 LINE",
"84 691 LINE",
"84 0 LINE"
);
}
);
width = 675.29412;
}
);
leftKerningGroup = I;
rightKerningGroup = I;
unicode = 0048;
},
{
color = 5;
glyphname = Hbar;
layers = (
{
components = (
{
name = H;
transform = "{1, 0, 0, 1, 4, 0}";
}
);
layerId = "459CA063-FA7D-4205-A795-7B6CE244EAAB";
paths = (
{
closed = 1;
nodes = (
"679 522 LINE",
"679 554 LINE",
"12 554 LINE",
"12 522 LINE"
);
}
);
width = 686;
},
{
components = (
{
name = H;
transform = "{1, 0, 0, 1, 2, 0}";
}
);
layerId = "EA657207-4E15-4023-BA2A-6FA5407A60CD";
paths = (
{
closed = 1;
nodes = (
"655 473 LINE",
"655 605 LINE",
"4 605 LINE",
"4 473 LINE"
);
}
);
width = 659;
},
{
components = (
{
alignment = -1;
name = H;
transform = "{1, 0, 0, 1, 4, 0}";
}
);
layerId = "5E4DD32C-6BC9-4010-93B4-D8C61BED16DC";
paths = (
{
closed = 1;
nodes = (
"676 506 LINE",
"676 575 LINE",
"15 575 LINE",
"15 506 LINE"
);
}
);
width = 685.56863;
}
);
leftKerningGroup = I;
rightKerningGroup = I;
unicode = 0126;
},
{
color = 5;
glyphname = I;
layers = (
{
layerId = "459CA063-FA7D-4205-A795-7B6CE244EAAB";
paths = (
{
closed = 1;
nodes = (
"128 0 LINE",
"128 700 LINE",
"92 700 LINE",
"92 0 LINE"
);
}
);
width = 220;
},
{
layerId = "EA657207-4E15-4023-BA2A-6FA5407A60CD";
paths = (
{
closed = 1;
nodes = (
"262 0 LINE",
"262 670 LINE",
"30 670 LINE",
"30 0 LINE"
);
}
);
width = 292;
},
{
layerId = "5E4DD32C-6BC9-4010-93B4-D8C61BED16DC";
paths = (
{
closed = 1;
nodes = (
"164 0 LINE",
"164 691 LINE",
"84 691 LINE",
"84 0 LINE"
);
}
);
width = 248.47059;
}
);
leftKerningGroup = I;
rightKerningGroup = I;
unicode = 0049;
},
{
color = 5;
glyphname = Idotaccent;
layers = (
{
components = (
{
name = I;
}
);
layerId = "459CA063-FA7D-4205-A795-7B6CE244EAAB";
paths = (
{
closed = 1;
nodes = (
"128 823 LINE",
"128 878 LINE",
"93 878 LINE",
"93 823 LINE"
);
}
);
width = 220;
},
{
components = (
{
name = I;
}
);
layerId = "EA657207-4E15-4023-BA2A-6FA5407A60CD";
paths = (
{
closed = 1;
nodes = (
"239 706 LINE",
"239 859 LINE",
"53 859 LINE",
"53 706 LINE"
);
}
);
width = 292;
},
{
components = (
{
alignment = -1;
name = I;
}
);
layerId = "5E4DD32C-6BC9-4010-93B4-D8C61BED16DC";
paths = (
{
closed = 1;
nodes = (
"163 799 LINE",
"163 888 LINE",
"86 888 LINE",
"86 799 LINE"
);
}
);
width = 248.47059;
}
);
leftKerningGroup = I;
rightKerningGroup = I;
unicode = 0130;
},
{
color = 5;
glyphname = J;
layers = (
{
layerId = "459CA063-FA7D-4205-A795-7B6CE244EAAB";
paths = (
{
closed = 1;
nodes = (
"138 -73 OFFCURVE",
"191 -69 OFFCURVE",
"191 81 CURVE SMOOTH",
"191 700 LINE",
"155 700 LINE",
"155 96 LINE SMOOTH",
"155 -37 OFFCURVE",
"135 -39 OFFCURVE",
"18 -39 CURVE",
"18 -73 LINE"
);
}
);
width = 280;
},
{
layerId = "EA657207-4E15-4023-BA2A-6FA5407A60CD";
paths = (
{
closed = 1;
nodes = (
"188 -13 OFFCURVE",
"294 -1 OFFCURVE",
"294 177 CURVE SMOOTH",
"294 670 LINE",
"62 670 LINE",
"62 322 LINE SMOOTH",
"62 181 OFFCURVE",
"58 178 OFFCURVE",
"15 178 CURVE",
"15 -13 LINE"
);
}
);
width = 321;
},
{
layerId = "5E4DD32C-6BC9-4010-93B4-D8C61BED16DC";
paths = (
{
closed = 1;
nodes = (
"151 -72 OFFCURVE",
"209 -54 OFFCURVE",
"209 96 CURVE",
"209 691 LINE",
"129 691 LINE",
"129 107 LINE SMOOTH",
"129 7 OFFCURVE",
"107 -1 OFFCURVE",
"18 -1 CURVE",
"18 -72 LINE"
);
}
);
width = 289.4902;
}
);
leftKerningGroup = J;
rightKerningGroup = J;
unicode = 004A;
},
{
color = 5;
glyphname = K;
layers = (
{
layerId = "459CA063-FA7D-4205-A795-7B6CE244EAAB";
paths = (
{
closed = 1;
nodes = (
"128 0 LINE",
"128 329 LINE",
"259 329 LINE",
"490 0 LINE",
"536 0 LINE",
"289 348 LINE",
"520 700 LINE",
"477 700 LINE",
"257 363 LINE",
"128 363 LINE",
"128 700 LINE",
"92 700 LINE",
"92 0 LINE"
);
}
);
width = 553;
},
{
layerId = "EA657207-4E15-4023-BA2A-6FA5407A60CD";
paths = (
{
closed = 1;
nodes = (
"262 0 LINE",
"262 223 LINE",
"303 223 LINE",
"384 0 LINE",
"617 0 LINE",
"500 346 LINE",
"607 670 LINE",
"377 670 LINE",
"302 433 LINE",
"262 433 LINE",
"262 670 LINE",
"30 670 LINE",
"30 0 LINE"
);
}
);
width = 609;
},
{
layerId = "5E4DD32C-6BC9-4010-93B4-D8C61BED16DC";
paths = (
{
closed = 1;
nodes = (
"164 0 LINE",
"164 300 LINE",
"278 304 LINE",
"459 0 LINE",
"554 0 LINE",
"348 344 LINE",
"543 691 LINE",
"451 691 LINE",
"277 375 LINE",
"164 371 LINE",
"164 691 LINE",
"84 691 LINE",
"84 0 LINE"
);
}
);
width = 570.2549;
}
);
leftKerningGroup = I;
rightKerningGroup = K;
unicode = 004B;
},
{
color = 5;
glyphname = Kcommaaccent;
layers = (
{
components = (
{
name = K;
}
);
layerId = "459CA063-FA7D-4205-A795-7B6CE244EAAB";
paths = (
{
closed = 1;
nodes = (
"268 -267 LINE",
"314 -78 LINE",
"277 -78 LINE",
"240 -267 LINE"
);
}
);
width = 553;
},
{
components = (
{
name = K;
}
);
layerId = "EA657207-4E15-4023-BA2A-6FA5407A60CD";
paths = (
{
closed = 1;
nodes = (
"336 -260 LINE",
"398 -45 LINE",
"194 -45 LINE",
"174 -260 LINE"
);
}
);
width = 609;
},
{
components = (
{
alignment = -1;
name = K;
}
);
layerId = "5E4DD32C-6BC9-4010-93B4-D8C61BED16DC";
paths = (
{
closed = 1;
nodes = (
"290 -286 LINE",
"340 -78 LINE",
"263 -78 LINE",
"222 -286 LINE"
);
}
);
width = 569.39216;
}
);
leftKerningGroup = I;
rightKerningGroup = K;
unicode = 0136;
},
{
color = 5;
glyphname = L;
layers = (
{
layerId = "459CA063-FA7D-4205-A795-7B6CE244EAAB";
paths = (
{
closed = 1;
nodes = (
"469 0 LINE",
"469 34 LINE",
"128 34 LINE",
"128 700 LINE",
"92 700 LINE",
"92 0 LINE"
);
}
);
width = 483;
},
{
layerId = "EA657207-4E15-4023-BA2A-6FA5407A60CD";
paths = (
{
closed = 1;
nodes = (
"480 0 LINE",
"480 189 LINE",
"262 189 LINE",
"262 670 LINE",
"30 670 LINE",
"30 0 LINE"
);
}
);
width = 489;
},
{
layerId = "5E4DD32C-6BC9-4010-93B4-D8C61BED16DC";
paths = (
{
closed = 1;
nodes = (
"466 0 LINE",
"466 72 LINE",
"164 72 LINE",
"164 691 LINE",
"84 691 LINE",
"84 0 LINE"
);
}
);
width = 478.2549;
}
);
leftKerningGroup = I;
rightKerningGroup = L;
unicode = 004C;
},
{
color = 5;
glyphname = Lacute;
layers = (
{
components = (
{
name = acute.cap;
transform = "{1, 0, 0, 1, 130, 0}";
}
);
layerId = "459CA063-FA7D-4205-A795-7B6CE244EAAB";
paths = (
{
closed = 1;
nodes = (
"469 0 LINE",
"469 34 LINE",
"128 34 LINE",
"128 700 LINE",
"92 700 LINE",
"92 0 LINE"
);
}
);
width = 483;
},
{
components = (
{
name = acute.cap;
transform = "{1, 0, 0, 1, -50, 0}";
}
);
layerId = "EA657207-4E15-4023-BA2A-6FA5407A60CD";
paths = (
{
closed = 1;
nodes = (
"480 0 LINE",
"480 189 LINE",
"262 189 LINE",
"262 670 LINE",
"30 670 LINE",
"30 0 LINE"
);
}
);
width = 489;
},
{
components = (
{
alignment = -1;
name = acute.cap;
transform = "{1, 0, 0, 1, 121, 0}";
}
);
layerId = "5E4DD32C-6BC9-4010-93B4-D8C61BED16DC";
paths = (
{
closed = 1;
nodes = (
"466 0 LINE",
"466 77 LINE",
"164 77 LINE",
"164 696 LINE",
"84 696 LINE",
"84 0 LINE"
);
}
);
width = 478.68627;
}
);
leftKerningGroup = I;
rightKerningGroup = L;
unicode = 0139;
},
{
color = 5;
glyphname = Lcaron;
layers = (
{
components = (
{
name = L;
}
);
layerId = "459CA063-FA7D-4205-A795-7B6CE244EAAB";
paths = (
{
closed = 1;
nodes = (
"424 483 LINE",
"424 700 LINE",
"390 700 LINE",
"390 483 LINE"
);
}
);
width = 492;
},
{
components = (
{
name = L;
}
);
layerId = "EA657207-4E15-4023-BA2A-6FA5407A60CD";
paths = (
{
closed = 1;
nodes = (
"480 488 LINE",
"542 703 LINE",
"338 703 LINE",
"318 488 LINE"
);
}
);
width = 512;
},
{
components = (
{
alignment = -1;
name = L;
}
);
layerId = "5E4DD32C-6BC9-4010-93B4-D8C61BED16DC";
paths = (
{
closed = 1;
nodes = (
"440 460 LINE",
"440 696 LINE",
"365 696 LINE",
"365 460 LINE"
);
}
);
width = 494.58824;
}
);
leftKerningGroup = I;
rightKerningGroup = L;
unicode = 013D;
},
{
color = 5;
glyphname = Lcommaaccent;
layers = (
{
components = (
{
name = L;
}
);
layerId = "459CA063-FA7D-4205-A795-7B6CE244EAAB";
paths = (
{
closed = 1;
nodes = (
"256 -267 LINE",
"302 -78 LINE",
"265 -78 LINE",
"228 -267 LINE"
);
}
);
width = 483;
},
{
components = (
{
name = L;
}
);
layerId = "EA657207-4E15-4023-BA2A-6FA5407A60CD";
paths = (
{
closed = 1;
nodes = (
"297 -260 LINE",
"359 -45 LINE",
"155 -45 LINE",
"135 -260 LINE"
);
}
);
width = 489;
},
{
components = (
{
alignment = -1;
name = L;
}
);
layerId = "5E4DD32C-6BC9-4010-93B4-D8C61BED16DC";
paths = (
{
closed = 1;
nodes = (
"266 -286 LINE",
"316 -78 LINE",
"239 -78 LINE",
"198 -286 LINE"
);
}
);
width = 478.2549;
}
);
leftKerningGroup = I;
rightKerningGroup = L;
unicode = 013B;
},
{
color = 5;
glyphname = Lslash;
layers = (
{
components = (
{
name = L;
transform = "{1, 0, 0, 1, 2, 0}";
}
);
layerId = "459CA063-FA7D-4205-A795-7B6CE244EAAB";
paths = (
{
closed = 1;
nodes = (
"320 467 LINE",
"301 493 LINE",
"9 288 LINE",
"28 262 LINE"
);
}
);
width = 485;
},
{
components = (
{
name = L;
transform = "{1, 0, 0, 1, 4, 0}";
}
);
layerId = "EA657207-4E15-4023-BA2A-6FA5407A60CD";
paths = (
{
closed = 1;
nodes = (
"340 319 LINE",
"340 506 LINE",
"3 338 LINE",
"3 151 LINE"
);
}
);
width = 493;
},
{
components = (
{
alignment = -1;
name = L;
transform = "{1, 0, 0, 1, 5, 0}";
}
);
layerId = "5E4DD32C-6BC9-4010-93B4-D8C61BED16DC";
paths = (
{
closed = 1;
nodes = (
"348 451 LINE",
"309 504 LINE",
"-5 284 LINE",
"34 230 LINE"
);
}
);
width = 483.27451;
}
);
leftKerningGroup = I;
rightKerningGroup = L;
unicode = 0141;
},
{
color = 5;
glyphname = M;
layers = (
{
layerId = "459CA063-FA7D-4205-A795-7B6CE244EAAB";
paths = (
{
closed = 1;
nodes = (
"128 0 LINE",
"128 666 LINE",
"142 666 LINE",
"388 21 LINE",
"440 21 LINE",
"686 666 LINE",
"700 666 LINE",
"700 0 LINE",
"736 0 LINE",
"736 700 LINE",
"660 700 LINE",
"414 55 LINE",
"168 700 LINE",
"92 700 LINE",
"92 0 LINE"
);
}
);
width = 828;
},
{
layerId = "EA657207-4E15-4023-BA2A-6FA5407A60CD";
paths = (
{
closed = 1;
nodes = (
"262 0 LINE",
"262 345 LINE",
"273 345 LINE",
"330 7 LINE",
"524 7 LINE",
"582 345 LINE",
"593 345 LINE",
"593 0 LINE",
"825 0 LINE",
"825 670 LINE",
"470 670 LINE",
"427 414 LINE",
"375 670 LINE",
"30 670 LINE",
"30 0 LINE"
);
}
);
width = 855;
},
{
layerId = "5E4DD32C-6BC9-4010-93B4-D8C61BED16DC";
paths = (
{
closed = 1;
nodes = (
"164 0 LINE",
"164 606 LINE",
"179 606 LINE",
"376 25 LINE",
"465 25 LINE",
"662 606 LINE",
"677 606 LINE",
"677 0 LINE",
"757 0 LINE",
"757 691 LINE",
"612 691 LINE",
"420 111 LINE",
"229 691 LINE",
"84 691 LINE",
"84 0 LINE"
);
}
);
width = 840.94118;
}
);
leftKerningGroup = I;
rightKerningGroup = I;
unicode = 004D;
},
{
color = 5;
glyphname = N;
layers = (
{
layerId = "459CA063-FA7D-4205-A795-7B6CE244EAAB";
paths = (
{
closed = 1;
nodes = (
"128 0 LINE",
"128 666 LINE",
"154 666 LINE",
"488 0 LINE",
"573 0 LINE",
"573 700 LINE",
"537 700 LINE",
"537 34 LINE",
"510 34 LINE",
"177 700 LINE",
"92 700 LINE",
"92 0 LINE"
);
}
);
width = 665;
},
{
layerId = "EA657207-4E15-4023-BA2A-6FA5407A60CD";
paths = (
{
closed = 1;
nodes = (
"262 0 LINE",
"262 273 LINE",
"277 273 LINE",
"429 0 LINE",
"658 0 LINE",
"658 670 LINE",
"426 670 LINE",
"426 416 LINE",
"412 416 LINE",
"258 670 LINE",
"30 670 LINE",
"30 0 LINE"
);
}
);
width = 688;
},
{
layerId = "5E4DD32C-6BC9-4010-93B4-D8C61BED16DC";
paths = (
{
closed = 1;
nodes = (
"164 0 LINE",
"164 620 LINE",
"183 620 LINE",
"447 0 LINE",
"593 0 LINE",
"593 691 LINE",
"513 691 LINE",
"513 71 LINE",
"493 71 LINE",
"233 691 LINE",
"84 691 LINE",
"84 0 LINE"
);
}
);
width = 677.07843;
}
);
leftKerningGroup = I;
rightKerningGroup = I;
unicode = 004E;
},
{
color = 5;
glyphname = Ncommaaccent;
layers = (
{
components = (
{
name = N;
}
);
layerId = "459CA063-FA7D-4205-A795-7B6CE244EAAB";
paths = (
{
closed = 1;
nodes = (
"331 -267 LINE",
"377 -78 LINE",
"340 -78 LINE",
"303 -267 LINE"
);
}
);
width = 665;
},
{
components = (
{
name = N;
}
);
layerId = "EA657207-4E15-4023-BA2A-6FA5407A60CD";
paths = (
{
closed = 1;
nodes = (
"404 -260 LINE",
"466 -45 LINE",
"262 -45 LINE",
"242 -260 LINE"
);
}
);
width = 688;
},
{
components = (
{
alignment = -1;
name = N;
}
);
layerId = "5E4DD32C-6BC9-4010-93B4-D8C61BED16DC";
paths = (
{
closed = 1;
nodes = (
"350 -286 LINE",
"399 -78 LINE",
"322 -78 LINE",
"281 -286 LINE"
);
}
);
width = 677.07843;
}
);
leftKerningGroup = I;
rightKerningGroup = I;
unicode = 0145;
},
{
color = 5;
glyphname = Eng;
layers = (
{
components = (
{
name = N;
}
);
layerId = "459CA063-FA7D-4205-A795-7B6CE244EAAB";
paths = (
{
closed = 1;
nodes = (
"520 -152 OFFCURVE",
"573 -148 OFFCURVE",
"573 2 CURVE SMOOTH",
"573 48 LINE",
"537 48 LINE",
"537 17 LINE SMOOTH",
"537 -116 OFFCURVE",
"517 -118 OFFCURVE",
"400 -118 CURVE",
"400 -152 LINE"
);
}
);
width = 671;
},
{
components = (
{
name = N;
}
);
layerId = "EA657207-4E15-4023-BA2A-6FA5407A60CD";
paths = (
{
closed = 1;
nodes = (
"613 -224 OFFCURVE",
"658 -197 OFFCURVE",
"658 7 CURVE SMOOTH",
"658 14 LINE",
"429 14 LINE",
"429 0 LINE SMOOTH",
"429 -72 OFFCURVE",
"421 -78 OFFCURVE",
"340 -116 CURVE",
"412 -286 LINE"
);
}
);
width = 688;
},
{
components = (
{
alignment = -1;
name = N;
}
);
layerId = "5E4DD32C-6BC9-4010-93B4-D8C61BED16DC";
paths = (
{
closed = 1;
nodes = (
"535 -185 OFFCURVE",
"593 -167 OFFCURVE",
"593 -17 CURVE SMOOTH",
"593 39 LINE",
"513 39 LINE",
"513 -6 LINE SMOOTH",
"513 -107 OFFCURVE",
"490 -114 OFFCURVE",
"402 -114 CURVE",
"402 -185 LINE"
);
}
);
width = 678.33333;
}
);
leftKerningGroup = I;
rightKerningGroup = I;
unicode = 014A;
},
{
color = 5;
glyphname = O;
layers = (
{
layerId = "459CA063-FA7D-4205-A795-7B6CE244EAAB";
paths = (
{
closed = 1;
nodes = (
"548 -9 OFFCURVE",
"601 105 OFFCURVE",
"601 347 CURVE SMOOTH",
"601 577 OFFCURVE",
"547 709 OFFCURVE",
"333 709 CURVE SMOOTH",
"119 709 OFFCURVE",
"65 575 OFFCURVE",
"65 347 CURVE SMOOTH",
"65 115 OFFCURVE",
"117 -9 OFFCURVE",
"333 -9 CURVE SMOOTH"
);
},
{
closed = 1;
nodes = (
"140 25 OFFCURVE",
"103 137 OFFCURVE",
"103 347 CURVE SMOOTH",
"103 556 OFFCURVE",
"143 675 OFFCURVE",
"333 675 CURVE SMOOTH",
"521 675 OFFCURVE",
"563 554 OFFCURVE",
"563 347 CURVE SMOOTH",
"563 127 OFFCURVE",
"526 25 OFFCURVE",
"333 25 CURVE SMOOTH"
);
}
);
width = 666;
},
{
layerId = "EA657207-4E15-4023-BA2A-6FA5407A60CD";
paths = (
{
closed = 1;
nodes = (
"558 -13 OFFCURVE",
"654 91 OFFCURVE",
"654 335 CURVE SMOOTH",
"654 579 OFFCURVE",
"558 683 OFFCURVE",
"335 683 CURVE SMOOTH",
"112 683 OFFCURVE",
"16 579 OFFCURVE",
"16 335 CURVE SMOOTH",
"16 91 OFFCURVE",
"115 -13 OFFCURVE",
"335 -13 CURVE SMOOTH"
);
},
{
closed = 1;
nodes = (
"261 175 OFFCURVE",
"250 232 OFFCURVE",
"250 335 CURVE SMOOTH",
"250 438 OFFCURVE",
"261 495 OFFCURVE",
"335 495 CURVE SMOOTH",
"412 495 OFFCURVE",
"420 438 OFFCURVE",
"420 335 CURVE SMOOTH",
"420 233 OFFCURVE",
"411 175 OFFCURVE",
"335 175 CURVE SMOOTH"
);
}
);
width = 670;
},
{
layerId = "5E4DD32C-6BC9-4010-93B4-D8C61BED16DC";
paths = (
{
closed = 1;
nodes = (
"545 -10 OFFCURVE",
"604 105 OFFCURVE",
"604 342 CURVE SMOOTH",
"604 572 OFFCURVE",
"544 702 OFFCURVE",
"330 702 CURVE SMOOTH",
"116 702 OFFCURVE",
"56 571 OFFCURVE",
"56 342 CURVE SMOOTH",
"56 111 OFFCURVE",
"115 -10 OFFCURVE",
"330 -10 CURVE SMOOTH"
);
},
{
closed = 1;
nodes = (
"172 61 OFFCURVE",
"139 155 OFFCURVE",
"139 342 CURVE SMOOTH",
"139 529 OFFCURVE",
"174 631 OFFCURVE",
"330 631 CURVE SMOOTH",
"485 631 OFFCURVE",
"521 528 OFFCURVE",
"521 342 CURVE SMOOTH",
"521 149 OFFCURVE",
"488 61 OFFCURVE",
"330 61 CURVE SMOOTH"
);
}
);
width = 659.96078;
}
);
leftKerningGroup = O;
rightKerningGroup = O;
unicode = 004F;
},
{
color = 5;
glyphname = Oslash;
layers = (
{
components = (
{
name = O;
}
);
layerId = "459CA063-FA7D-4205-A795-7B6CE244EAAB";
paths = (
{
closed = 1;
nodes = (
"381 402 LINE",
"352 416 LINE",
"111 -98 LINE",
"141 -109 LINE"
);
},
{
closed = 1;
nodes = (
"558 780 LINE",
"528 792 LINE",
"296 297 LINE",
"327 286 LINE"
);
}
);
width = 666;
},
{
components = (
{
name = O;
}
);
layerId = "EA657207-4E15-4023-BA2A-6FA5407A60CD";
paths = (
{
closed = 1;
nodes = (
"359 92 LINE",
"131 105 LINE",
"83 -10 LINE",
"300 -54 LINE"
);
},
{
closed = 1;
nodes = (
"560 586 LINE",
"598 680 LINE",
"381 724 LINE",
"324 585 LINE"
);
}
);
width = 670;
},
{
components = (
{
alignment = -1;
name = O;
}
);
layerId = "5E4DD32C-6BC9-4010-93B4-D8C61BED16DC";
paths = (
{
closed = 1;
nodes = (
"398 403 LINE",
"340 434 LINE",
"95 -89 LINE",
"154 -117 LINE"
);
},
{
closed = 1;
nodes = (
"571 774 LINE",
"511 800 LINE",
"277 300 LINE",
"336 272 LINE"
);
}
);
width = 659.96078;
}
);
leftKerningGroup = O;
rightKerningGroup = O;
unicode = 00D8;
},
{
color = 5;
glyphname = OE;
layers = (
{
layerId = "459CA063-FA7D-4205-A795-7B6CE244EAAB";
paths = (
{
closed = 1;
nodes = (
"370 -9 OFFCURVE",
"449 -5 OFFCURVE",
"491 -1 CURVE",
"889 -1 LINE",
"889 36 LINE",
"526 36 LINE",
"526 342 LINE",
"829 342 LINE",
"829 378 LINE",
"526 378 LINE",
"526 664 LINE",
"889 664 LINE",
"889 700 LINE",
"491 700 LINE",
"449 704 OFFCURVE",
"370 708 OFFCURVE",
"333 708 CURVE SMOOTH",
"117 708 OFFCURVE",
"65 584 OFFCURVE",
"65 354 CURVE SMOOTH",
"65 124 OFFCURVE",
"117 -9 OFFCURVE",
"333 -9 CURVE SMOOTH"
);
},
{
closed = 1;
nodes = (
"140 25 OFFCURVE",
"103 140 OFFCURVE",
"103 350 CURVE SMOOTH",
"103 560 OFFCURVE",
"140 674 OFFCURVE",
"333 674 CURVE SMOOTH",
"355 674 OFFCURVE",
"455 668 OFFCURVE",
"490 665 CURVE",
"490 34 LINE",
"455 31 OFFCURVE",
"355 25 OFFCURVE",
"333 25 CURVE SMOOTH"
);
}
);
width = 940;
},
{
layerId = "EA657207-4E15-4023-BA2A-6FA5407A60CD";
paths = (
{
closed = 1;
nodes = (
"349 -13 OFFCURVE",
"435 -6 OFFCURVE",
"484 0 CURVE",
"869 0 LINE",
"869 185 LINE",
"630 185 LINE",
"630 246 LINE",
"809 246 LINE",
"809 427 LINE",
"630 427 LINE",
"630 485 LINE",
"869 485 LINE",
"869 670 LINE",
"484 670 LINE",
"425 676 OFFCURVE",
"334 683 OFFCURVE",
"301 683 CURVE SMOOTH",
"83 683 OFFCURVE",
"18 591 OFFCURVE",
"18 340 CURVE SMOOTH",
"18 94 OFFCURVE",
"77 -13 OFFCURVE",
"291 -13 CURVE SMOOTH"
);
},
{
closed = 1;
nodes = (
"249 175 OFFCURVE",
"246 224 OFFCURVE",
"246 340 CURVE SMOOTH",
"246 462 OFFCURVE",
"260 495 OFFCURVE",
"357 495 CURVE SMOOTH",
"362 495 OFFCURVE",
"396 494 OFFCURVE",
"398 494 CURVE",
"398 176 LINE",
"385 175 OFFCURVE",
"371 175 OFFCURVE",
"357 175 CURVE SMOOTH"
);
}
);
width = 886;
},
{
layerId = "5E4DD32C-6BC9-4010-93B4-D8C61BED16DC";
paths = (
{
closed = 1;
nodes = (
"356 -10 OFFCURVE",
"424 -6 OFFCURVE",
"466 -1 CURVE",
"877 -1 LINE",
"877 72 LINE",
"540 72 LINE",
"540 317 LINE",
"817 317 LINE",
"817 388 LINE",
"540 388 LINE",
"540 619 LINE",
"877 619 LINE",
"877 691 LINE",
"461 691 LINE",
"421 697 OFFCURVE",
"356 701 OFFCURVE",
"318 701 CURVE SMOOTH",
"108 701 OFFCURVE",
"53 590 OFFCURVE",
"53 348 CURVE SMOOTH",
"53 115 OFFCURVE",
"104 -10 OFFCURVE",
"318 -10 CURVE SMOOTH"
);
},
{
closed = 1;
nodes = (
"168 62 OFFCURVE",
"136 147 OFFCURVE",
"136 346 CURVE SMOOTH",
"136 548 OFFCURVE",
"171 629 OFFCURVE",
"327 629 CURVE SMOOTH",
"350 629 OFFCURVE",
"424 624 OFFCURVE",
"460 621 CURVE",
"460 69 LINE",
"425 66 OFFCURVE",
"352 62 OFFCURVE",
"328 62 CURVE SMOOTH"
);
}
);
width = 923.60784;
}
);
leftKerningGroup = O;
rightKerningGroup = E;
unicode = 0152;
},
{
color = 5;
glyphname = P;
layers = (
{
layerId = "459CA063-FA7D-4205-A795-7B6CE244EAAB";
paths = (
{
closed = 1;
nodes = (
"128 0 LINE",
"128 257 LINE",
"347 257 LINE SMOOTH",
"492 257 OFFCURVE",
"554 340 OFFCURVE",
"554 485 CURVE SMOOTH",
"554 630 OFFCURVE",
"492 700 OFFCURVE",
"347 700 CURVE SMOOTH",
"92 700 LINE",
"92 0 LINE"
);
},
{
closed = 1;
nodes = (
"128 666 LINE",
"347 666 LINE SMOOTH",
"468 666 OFFCURVE",
"516 606 OFFCURVE",
"516 485 CURVE SMOOTH",
"516 364 OFFCURVE",
"468 291 OFFCURVE",
"347 291 CURVE SMOOTH",
"128 291 LINE"
);
}
);
width = 595;
},
{
layerId = "EA657207-4E15-4023-BA2A-6FA5407A60CD";
paths = (
{
closed = 1;
nodes = (
"262 0 LINE",
"262 142 LINE",
"293 142 LINE SMOOTH",
"493 142 OFFCURVE",
"597 198 OFFCURVE",
"597 409 CURVE SMOOTH",
"597 620 OFFCURVE",
"492 670 OFFCURVE",
"293 670 CURVE SMOOTH",
"30 670 LINE",
"30 0 LINE"
);
},
{
closed = 1;
nodes = (
"262 487 LINE",
"283 487 LINE SMOOTH",
"341 487 OFFCURVE",
"363 472 OFFCURVE",
"363 408 CURVE SMOOTH",
"363 347 OFFCURVE",
"340 325 OFFCURVE",
"283 325 CURVE SMOOTH",
"262 325 LINE"
);
}
);
width = 612;
},
{
layerId = "5E4DD32C-6BC9-4010-93B4-D8C61BED16DC";
paths = (
{
closed = 1;
nodes = (
"164 0 LINE",
"164 232 LINE",
"337 232 LINE SMOOTH",
"489 232 OFFCURVE",
"559 317 OFFCURVE",
"559 467 CURVE SMOOTH",
"559 618 OFFCURVE",
"489 691 OFFCURVE",
"337 691 CURVE SMOOTH",
"84 691 LINE",
"84 0 LINE"
);
},
{
closed = 1;
nodes = (
"164 621 LINE",
"337 621 LINE SMOOTH",
"435 621 OFFCURVE",
"477 573 OFFCURVE",
"477 467 CURVE SMOOTH",
"477 361 OFFCURVE",
"435 302 OFFCURVE",
"337 302 CURVE SMOOTH",
"164 302 LINE"
);
}
);
width = 592.41176;
}
);
leftKerningGroup = I;
unicode = 0050;
},
{
color = 5;
glyphname = Thorn;
layers = (
{
layerId = "459CA063-FA7D-4205-A795-7B6CE244EAAB";
paths = (
{
closed = 1;
nodes = (
"128 0 LINE",
"128 135 LINE",
"347 135 LINE SMOOTH",
"492 135 OFFCURVE",
"554 222 OFFCURVE",
"554 367 CURVE SMOOTH",
"554 512 OFFCURVE",
"492 578 OFFCURVE",
"347 578 CURVE SMOOTH",
"128 578 LINE",
"128 700 LINE",
"92 700 LINE",
"92 0 LINE"
);
},
{
closed = 1;
nodes = (
"128 544 LINE",
"347 544 LINE SMOOTH",
"468 544 OFFCURVE",
"516 488 OFFCURVE",
"516 367 CURVE SMOOTH",
"516 246 OFFCURVE",
"468 169 OFFCURVE",
"347 169 CURVE SMOOTH",
"128 169 LINE"
);
}
);
width = 601;
},
{
layerId = "EA657207-4E15-4023-BA2A-6FA5407A60CD";
paths = (
{
closed = 1;
nodes = (
"256 0 LINE",
"256 72 LINE",
"290 72 LINE SMOOTH",
"488 72 OFFCURVE",
"591 129 OFFCURVE",
"591 339 CURVE SMOOTH",
"591 549 OFFCURVE",
"487 600 OFFCURVE",
"290 600 CURVE SMOOTH",
"256 600 LINE",
"256 670 LINE",
"30 670 LINE",
"30 0 LINE"
);
},
{
closed = 1;
nodes = (
"256 417 LINE",
"280 417 LINE SMOOTH",
"341 417 OFFCURVE",
"363 402 OFFCURVE",
"363 338 CURVE SMOOTH",
"363 277 OFFCURVE",
"340 255 OFFCURVE",
"280 255 CURVE SMOOTH",
"256 255 LINE"
);
}
);
width = 611;
},
{
layerId = "5E4DD32C-6BC9-4010-93B4-D8C61BED16DC";
paths = (
{
closed = 1;
nodes = (
"164 0 LINE",
"164 119 LINE",
"337 119 LINE SMOOTH",
"489 119 OFFCURVE",
"560 209 OFFCURVE",
"560 361 CURVE SMOOTH",
"560 512 OFFCURVE",
"489 584 OFFCURVE",
"337 584 CURVE SMOOTH",
"164 584 LINE",
"164 696 LINE",
"84 696 LINE",
"84 0 LINE"
);
},
{
closed = 1;
nodes = (
"164 508 LINE",
"337 508 LINE SMOOTH",
"435 508 OFFCURVE",
"478 462 OFFCURVE",
"478 361 CURVE SMOOTH",
"478 260 OFFCURVE",
"435 197 OFFCURVE",
"337 197 CURVE SMOOTH",
"164 197 LINE"
);
}
);
width = 598.84314;
}
);
leftKerningGroup = I;
unicode = 00DE;
},
{
color = 5;
glyphname = Q;
layers = (
{
layerId = "459CA063-FA7D-4205-A795-7B6CE244EAAB";
paths = (
{
closed = 1;
nodes = (
"566 -121 LINE",
"480 19 LINE",
"574 67 OFFCURVE",
"601 174 OFFCURVE",
"601 347 CURVE SMOOTH",
"601 577 OFFCURVE",
"547 709 OFFCURVE",
"333 709 CURVE SMOOTH",
"119 709 OFFCURVE",
"65 575 OFFCURVE",
"65 347 CURVE SMOOTH",
"65 115 OFFCURVE",
"117 -9 OFFCURVE",
"333 -9 CURVE SMOOTH",
"376 -9 OFFCURVE",
"412 -4 OFFCURVE",
"443 5 CURVE",
"530 -138 LINE"
);
},
{
closed = 1;
nodes = (
"140 25 OFFCURVE",
"103 137 OFFCURVE",
"103 347 CURVE SMOOTH",
"103 556 OFFCURVE",
"143 675 OFFCURVE",
"333 675 CURVE SMOOTH",
"521 675 OFFCURVE",
"563 554 OFFCURVE",
"563 347 CURVE SMOOTH",
"563 127 OFFCURVE",
"526 25 OFFCURVE",
"333 25 CURVE SMOOTH"
);
}
);
width = 666;
},
{
layerId = "EA657207-4E15-4023-BA2A-6FA5407A60CD";
paths = (
{
closed = 1;
nodes = (
"635 -71 LINE",
"555 48 LINE",
"621 103 OFFCURVE",
"651 196 OFFCURVE",
"651 335 CURVE SMOOTH",
"651 582 OFFCURVE",
"557 683 OFFCURVE",
"332 683 CURVE SMOOTH",
"107 683 OFFCURVE",
"16 582 OFFCURVE",
"16 335 CURVE SMOOTH",
"16 88 OFFCURVE",
"110 -13 OFFCURVE",
"332 -13 CURVE SMOOTH",
"342 -13 OFFCURVE",
"352 -13 OFFCURVE",
"361 -12 CURVE",
"459 -158 LINE"
);
},
{
closed = 1;
nodes = (
"260 175 OFFCURVE",
"244 233 OFFCURVE",
"244 335 CURVE SMOOTH",
"244 437 OFFCURVE",
"260 495 OFFCURVE",
"332 495 CURVE SMOOTH",
"407 495 OFFCURVE",
"417 437 OFFCURVE",
"417 335 CURVE SMOOTH",
"417 234 OFFCURVE",
"406 175 OFFCURVE",
"332 175 CURVE SMOOTH"
);
}
);
width = 667;
},
{
layerId = "5E4DD32C-6BC9-4010-93B4-D8C61BED16DC";
paths = (
{
closed = 1;
nodes = (
"575 -111 LINE",
"490 27 LINE",
"576 78 OFFCURVE",
"604 180 OFFCURVE",
"604 342 CURVE SMOOTH",
"604 572 OFFCURVE",
"544 702 OFFCURVE",
"330 702 CURVE SMOOTH",
"116 702 OFFCURVE",
"56 571 OFFCURVE",
"56 342 CURVE SMOOTH",
"56 110 OFFCURVE",
"115 -10 OFFCURVE",
"330 -10 CURVE SMOOTH",
"361 -10 OFFCURVE",
"391 -7 OFFCURVE",
"412 -1 CURVE",
"500 -146 LINE"
);
},
{
closed = 1;
nodes = (
"172 61 OFFCURVE",
"139 154 OFFCURVE",
"139 342 CURVE SMOOTH",
"139 529 OFFCURVE",
"174 631 OFFCURVE",
"330 631 CURVE SMOOTH",
"485 631 OFFCURVE",
"521 528 OFFCURVE",
"521 342 CURVE SMOOTH",
"521 149 OFFCURVE",
"488 61 OFFCURVE",
"330 61 CURVE SMOOTH"
);
}
);
width = 659.96078;
}
);
leftKerningGroup = O;
rightKerningGroup = O;
unicode = 0051;
},
{
color = 5;
glyphname = R;
layers = (
{
layerId = "459CA063-FA7D-4205-A795-7B6CE244EAAB";
paths = (
{
closed = 1;
nodes = (
"128 0 LINE",
"128 290 LINE",
"367 290 LINE",
"523 0 LINE",
"564 0 LINE",
"406 295 LINE",
"510 315 OFFCURVE",
"551 392 OFFCURVE",
"551 500 CURVE SMOOTH",
"551 640 OFFCURVE",
"482 700 OFFCURVE",
"343 700 CURVE SMOOTH",
"92 700 LINE",
"92 0 LINE"
);
},
{
closed = 1;
nodes = (
"128 666 LINE",
"343 666 LINE SMOOTH",
"460 666 OFFCURVE",
"513 616 OFFCURVE",
"513 500 CURVE SMOOTH",
"513 396 OFFCURVE",
"470 324 OFFCURVE",
"343 324 CURVE SMOOTH",
"128 324 LINE"
);
}
);
width = 613;
},
{
layerId = "EA657207-4E15-4023-BA2A-6FA5407A60CD";
paths = (
{
closed = 1;
nodes = (
"262 0 LINE",
"262 173 LINE",
"320 173 LINE",
"357 0 LINE",
"593 0 LINE",
"527 228 LINE",
"575 267 OFFCURVE",
"601 329 OFFCURVE",
"601 423 CURVE SMOOTH",
"601 624 OFFCURVE",
"507 670 OFFCURVE",
"312 670 CURVE SMOOTH",
"30 670 LINE",
"30 0 LINE"
);
},
{
closed = 1;
nodes = (
"261 487 LINE",
"312 487 LINE SMOOTH",
"350 487 OFFCURVE",
"367 465 OFFCURVE",
"367 423 CURVE SMOOTH",
"367 381 OFFCURVE",
"351 356 OFFCURVE",
"318 356 CURVE SMOOTH",
"261 356 LINE"
);
}
);
width = 617;
},
{
layerId = "5E4DD32C-6BC9-4010-93B4-D8C61BED16DC";
paths = (
{
closed = 1;
nodes = (
"164 0 LINE",
"164 263 LINE",
"358 263 LINE",
"480 0 LINE",
"569 0 LINE",
"437 280 LINE",
"523 308 OFFCURVE",
"563 379 OFFCURVE",
"563 481 CURVE SMOOTH",
"563 627 OFFCURVE",
"487 691 OFFCURVE",
"341 691 CURVE SMOOTH",
"84 691 LINE",
"84 0 LINE"
);
},
{
closed = 1;
nodes = (
"164 621 LINE",
"341 621 LINE SMOOTH",
"436 621 OFFCURVE",
"480 574 OFFCURVE",
"480 480 CURVE SMOOTH",
"480 395 OFFCURVE",
"444 333 OFFCURVE",
"342 333 CURVE SMOOTH",
"164 333 LINE"
);
}
);
width = 616.01961;
}
);
leftKerningGroup = I;
rightKerningGroup = R;
unicode = 0052;
},
{
color = 5;
glyphname = S;
layers = (
{
layerId = "459CA063-FA7D-4205-A795-7B6CE244EAAB";
paths = (
{
closed = 1;
nodes = (
"412 -7 OFFCURVE",
"486 47 OFFCURVE",
"486 203 CURVE SMOOTH",
"486 329 OFFCURVE",
"414 359 OFFCURVE",
"282 380 CURVE SMOOTH",
"156 400 OFFCURVE",
"94 415 OFFCURVE",
"94 537 CURVE SMOOTH",
"94 637 OFFCURVE",
"158 677 OFFCURVE",
"272 677 CURVE SMOOTH",
"314 677 OFFCURVE",
"408 667 OFFCURVE",
"467 660 CURVE",
"471 695 LINE",
"419 702 OFFCURVE",
"328 711 OFFCURVE",
"272 711 CURVE SMOOTH",
"139 711 OFFCURVE",
"56 664 OFFCURVE",
"56 535 CURVE SMOOTH",
"56 388 OFFCURVE",
"136 365 OFFCURVE",
"273 344 CURVE SMOOTH",
"396 325 OFFCURVE",
"448 302 OFFCURVE",
"448 200 CURVE SMOOTH",
"448 75 OFFCURVE",
"387 27 OFFCURVE",
"273 27 CURVE SMOOTH",
"221 27 OFFCURVE",
"123 37 OFFCURVE",
"64 44 CURVE",
"60 9 LINE",
"120 2 OFFCURVE",
"219 -7 OFFCURVE",
"274 -7 CURVE SMOOTH"
);
}
);
width = 540;
},
{
layerId = "EA657207-4E15-4023-BA2A-6FA5407A60CD";
paths = (
{
closed = 1;
nodes = (
"474 -14 OFFCURVE",
"568 45 OFFCURVE",
"568 216 CURVE SMOOTH",
"568 373 OFFCURVE",
"512 398 OFFCURVE",
"321 441 CURVE SMOOTH",
"257 455 OFFCURVE",
"250 460 OFFCURVE",
"250 474 CURVE SMOOTH",
"250 488 OFFCURVE",
"260 492 OFFCURVE",
"301 492 CURVE SMOOTH",
"373 492 OFFCURVE",
"479 483 OFFCURVE",
"540 477 CURVE",
"546 657 LINE",
"478 668 OFFCURVE",
"359 683 OFFCURVE",
"281 683 CURVE SMOOTH",
"115 683 OFFCURVE",
"16 639 OFFCURVE",
"16 448 CURVE SMOOTH",
"16 308 OFFCURVE",
"69 256 OFFCURVE",
"257 227 CURVE SMOOTH",
"327 216 OFFCURVE",
"334 214 OFFCURVE",
"334 200 CURVE SMOOTH",
"334 184 OFFCURVE",
"322 177 OFFCURVE",
"282 177 CURVE SMOOTH",
"210 177 OFFCURVE",
"97 190 OFFCURVE",
"31 199 CURVE",
"21 22 LINE",
"81 7 OFFCURVE",
"199 -14 OFFCURVE",
"303 -14 CURVE SMOOTH"
);
}
);
width = 578;
},
{
layerId = "5E4DD32C-6BC9-4010-93B4-D8C61BED16DC";
paths = (
{
closed = 1;
nodes = (
"409 -9 OFFCURVE",
"495 51 OFFCURVE",
"495 204 CURVE SMOOTH",
"495 324 OFFCURVE",
"435 359 OFFCURVE",
"296 391 CURVE SMOOTH",
"175 418 OFFCURVE",
"129 433 OFFCURVE",
"129 521 CURVE SMOOTH",
"129 597 OFFCURVE",
"180 632 OFFCURVE",
"277 632 CURVE SMOOTH",
"319 632 OFFCURVE",
"414 622 OFFCURVE",
"473 615 CURVE",
"480 682 LINE",
"426 691 OFFCURVE",
"331 703 OFFCURVE",
"271 703 CURVE SMOOTH",
"136 703 OFFCURVE",
"48 650 OFFCURVE",
"48 516 CURVE SMOOTH",
"48 385 OFFCURVE",
"118 349 OFFCURVE",
"262 319 CURVE SMOOTH",
"374 296 OFFCURVE",
"414 274 OFFCURVE",
"414 198 CURVE SMOOTH",
"414 104 OFFCURVE",
"366 62 OFFCURVE",
"269 62 CURVE SMOOTH",
"217 62 OFFCURVE",
"120 72 OFFCURVE",
"62 79 CURVE",
"54 13 LINE",
"113 4 OFFCURVE",
"213 -9 OFFCURVE",
"273 -9 CURVE SMOOTH"
);
}
);
width = 541.72549;
}
);
leftKerningGroup = S;
rightKerningGroup = S;
unicode = 0053;
},
{
color = 5;
glyphname = Scommaaccent;
layers = (
{
components = (
{
name = S;
}
);
layerId = "459CA063-FA7D-4205-A795-7B6CE244EAAB";
paths = (
{
closed = 1;
nodes = (
"263 -267 LINE",
"309 -78 LINE",
"272 -78 LINE",
"235 -267 LINE"
);
}
);
width = 540;
},
{
components = (
{
name = S;
}
);
layerId = "EA657207-4E15-4023-BA2A-6FA5407A60CD";
paths = (
{
closed = 1;
nodes = (
"342 -260 LINE",
"404 -45 LINE",
"200 -45 LINE",
"180 -260 LINE"
);
}
);
width = 578;
},
{
components = (
{
alignment = -1;
name = S;
}
);
layerId = "5E4DD32C-6BC9-4010-93B4-D8C61BED16DC";
paths = (
{
closed = 1;
nodes = (
"275 -286 LINE",
"325 -78 LINE",
"247 -78 LINE",
"207 -286 LINE"
);
}
);
width = 541.72549;
}
);
leftKerningGroup = S;
rightKerningGroup = S;
unicode = 0218;
},
{
color = 5;
glyphname = T;
layers = (
{
layerId = "459CA063-FA7D-4205-A795-7B6CE244EAAB";
paths = (
{
closed = 1;
nodes = (
"282 0 LINE",
"282 666 LINE",
"513 666 LINE",
"513 700 LINE",
"13 700 LINE",
"13 666 LINE",
"246 666 LINE",
"246 0 LINE"
);
}
);
width = 526;
},
{
layerId = "EA657207-4E15-4023-BA2A-6FA5407A60CD";
paths = (
{
closed = 1;
nodes = (
"379 0 LINE",
"379 481 LINE",
"509 481 LINE",
"509 670 LINE",
"9 670 LINE",
"9 481 LINE",
"147 481 LINE",
"147 0 LINE"
);
}
);
width = 519;
},
{
layerId = "5E4DD32C-6BC9-4010-93B4-D8C61BED16DC";
paths = (
{
closed = 1;
nodes = (
"304 0 LINE",
"304 619 LINE",
"513 619 LINE",
"513 691 LINE",
"13 691 LINE",
"13 619 LINE",
"224 619 LINE",
"224 0 LINE"
);
}
);
width = 526;
}
);
leftKerningGroup = T;
rightKerningGroup = T;
unicode = 0054;
},
{
color = 5;
glyphname = Tbar;
layers = (
{
components = (
{
name = T;
transform = "{1, 0, 0, 1, 2, 0}";
}
);
layerId = "459CA063-FA7D-4205-A795-7B6CE244EAAB";
paths = (
{
closed = 1;
nodes = (
"465 332 LINE",
"465 364 LINE",
"65 364 LINE",
"65 332 LINE"
);
}
);
width = 530;
},
{
components = (
{
name = T;
}
);
layerId = "EA657207-4E15-4023-BA2A-6FA5407A60CD";
paths = (
{
closed = 1;
nodes = (
"426 190 LINE",
"426 327 LINE",
"100 327 LINE",
"100 190 LINE"
);
}
);
width = 519;
},
{
components = (
{
alignment = -1;
name = T;
transform = "{1, 0, 0, 1, 2, 0}";
}
);
layerId = "5E4DD32C-6BC9-4010-93B4-D8C61BED16DC";
paths = (
{
closed = 1;
nodes = (
"468 298 LINE",
"468 366 LINE",
"65 366 LINE",
"65 298 LINE"
);
}
);
width = 529.13725;
}
);
leftKerningGroup = T;
rightKerningGroup = T;
unicode = 0166;
},
{
color = 5;
glyphname = Tcommaaccent;
layers = (
{
components = (
{
name = T;
}
);
layerId = "459CA063-FA7D-4205-A795-7B6CE244EAAB";
paths = (
{
closed = 1;
nodes = (
"253 -267 LINE",
"299 -78 LINE",
"262 -78 LINE",
"225 -267 LINE"
);
}
);
width = 526;
},
{
components = (
{
name = T;
}
);
layerId = "EA657207-4E15-4023-BA2A-6FA5407A60CD";
paths = (
{
closed = 1;
nodes = (
"303 -260 LINE",
"365 -45 LINE",
"161 -45 LINE",
"141 -260 LINE"
);
}
);
width = 519;
},
{
components = (
{
alignment = -1;
name = T;
}
);
layerId = "5E4DD32C-6BC9-4010-93B4-D8C61BED16DC";
paths = (
{
closed = 1;
nodes = (
"272 -286 LINE",
"322 -78 LINE",
"245 -78 LINE",
"204 -286 LINE"
);
}
);
width = 526;
}
);
leftKerningGroup = T;
rightKerningGroup = T;
unicode = 021A;
},
{
color = 5;
glyphname = U;
layers = (
{
layerId = "459CA063-FA7D-4205-A795-7B6CE244EAAB";
paths = (
{
closed = 1;
nodes = (
"464 -9 OFFCURVE",
"550 46 OFFCURVE",
"550 196 CURVE SMOOTH",
"550 700 LINE",
"514 700 LINE",
"514 196 LINE SMOOTH",
"514 69 OFFCURVE",
"440 25 OFFCURVE",
"314 25 CURVE SMOOTH",
"197 25 OFFCURVE",
"124 70 OFFCURVE",
"124 196 CURVE SMOOTH",
"124 700 LINE",
"88 700 LINE",
"88 196 LINE SMOOTH",
"88 45 OFFCURVE",
"174 -9 OFFCURVE",
"314 -9 CURVE SMOOTH"
);
}
);
width = 638;
},
{
layerId = "EA657207-4E15-4023-BA2A-6FA5407A60CD";
paths = (
{
closed = 1;
nodes = (
"516 -13 OFFCURVE",
"615 49 OFFCURVE",
"615 244 CURVE SMOOTH",
"615 670 LINE",
"383 670 LINE",
"383 231 LINE SMOOTH",
"383 193 OFFCURVE",
"367 178 OFFCURVE",
"321 178 CURVE SMOOTH",
"275 178 OFFCURVE",
"258 193 OFFCURVE",
"258 231 CURVE SMOOTH",
"258 670 LINE",
"26 670 LINE",
"26 240 LINE SMOOTH",
"26 45 OFFCURVE",
"126 -13 OFFCURVE",
"321 -13 CURVE SMOOTH"
);
}
);
width = 641;
},
{
layerId = "5E4DD32C-6BC9-4010-93B4-D8C61BED16DC";
paths = (
{
closed = 1;
nodes = (
"478 -10 OFFCURVE",
"566 52 OFFCURVE",
"566 211 CURVE SMOOTH",
"566 691 LINE",
"486 691 LINE",
"486 209 LINE SMOOTH",
"486 103 OFFCURVE",
"426 61 OFFCURVE",
"320 61 CURVE SMOOTH",
"218 61 OFFCURVE",
"159 103 OFFCURVE",
"159 209 CURVE SMOOTH",
"159 691 LINE",
"79 691 LINE",
"79 211 LINE SMOOTH",
"79 51 OFFCURVE",
"167 -10 OFFCURVE",
"320 -10 CURVE SMOOTH"
);
}
);
width = 644.90196;
}
);
leftKerningGroup = U;
rightKerningGroup = U;
unicode = 0055;
},
{
color = 5;
glyphname = V;
layers = (
{
layerId = "459CA063-FA7D-4205-A795-7B6CE244EAAB";
paths = (
{
closed = 1;
nodes = (
"342 0 LINE",
"538 700 LINE",
"502 700 LINE",
"316 34 LINE",
"252 34 LINE",
"66 700 LINE",
"30 700 LINE",
"226 0 LINE"
);
}
);
width = 568;
},
{
layerId = "EA657207-4E15-4023-BA2A-6FA5407A60CD";
paths = (
{
closed = 1;
nodes = (
"471 0 LINE",
"602 670 LINE",
"356 670 LINE",
"309 234 LINE",
"291 234 LINE",
"239 670 LINE",
"-7 670 LINE",
"129 0 LINE"
);
}
);
width = 598;
},
{
layerId = "5E4DD32C-6BC9-4010-93B4-D8C61BED16DC";
paths = (
{
closed = 1;
nodes = (
"380 0 LINE",
"559 691 LINE",
"476 691 LINE",
"319 71 LINE",
"264 71 LINE",
"107 691 LINE",
"24 691 LINE",
"204 0 LINE"
);
}
);
width = 583.09804;
}
);
unicode = 0056;
},
{
color = 5;
glyphname = W;
layers = (
{
layerId = "459CA063-FA7D-4205-A795-7B6CE244EAAB";
paths = (
{
closed = 1;
nodes = (
"281 0 LINE",
"432 656 LINE",
"424 656 LINE",
"575 0 LINE",
"671 0 LINE",
"818 700 LINE",
"782 700 LINE",
"642 34 LINE",
"603 34 LINE",
"450 690 LINE",
"406 690 LINE",
"253 34 LINE",
"214 34 LINE",
"74 700 LINE",
"38 700 LINE",
"185 0 LINE"
);
}
);
width = 856;
},
{
layerId = "EA657207-4E15-4023-BA2A-6FA5407A60CD";
paths = (
{
closed = 1;
nodes = (
"416 0 LINE",
"450 413 LINE",
"460 413 LINE",
"493 0 LINE",
"832 0 LINE",
"906 670 LINE",
"673 670 LINE",
"653 234 LINE",
"635 234 LINE",
"585 660 LINE",
"332 660 LINE",
"287 234 LINE",
"269 234 LINE",
"237 670 LINE",
"6 670 LINE",
"85 0 LINE"
);
}
);
width = 915;
},
{
layerId = "5E4DD32C-6BC9-4010-93B4-D8C61BED16DC";
paths = (
{
closed = 1;
nodes = (
"314 0 LINE",
"451 622 LINE",
"437 622 LINE",
"574 0 LINE",
"718 0 LINE",
"858 691 LINE",
"775 691 LINE",
"659 70 LINE",
"631 70 LINE",
"491 686 LINE",
"397 686 LINE",
"257 70 LINE",
"229 70 LINE",
"113 691 LINE",
"30 691 LINE",
"169 0 LINE"
);
}
);
width = 887.92157;
}
);
leftKerningGroup = W;
rightKerningGroup = W;
unicode = 0057;
},
{
color = 5;
glyphname = X;
layers = (
{
layerId = "459CA063-FA7D-4205-A795-7B6CE244EAAB";
paths = (
{
closed = 1;
nodes = (
"68 0 LINE",
"277 322 LINE",
"483 0 LINE",
"526 0 LINE",
"303 347 LINE",
"526 700 LINE",
"483 700 LINE",
"276 374 LINE",
"68 700 LINE",
"25 700 LINE",
"251 347 LINE",
"25 0 LINE"
);
}
);
width = 551;
},
{
layerId = "EA657207-4E15-4023-BA2A-6FA5407A60CD";
paths = (
{
closed = 1;
nodes = (
"228 0 LINE",
"289 178 LINE",
"348 0 LINE",
"586 0 LINE",
"450 351 LINE",
"595 670 LINE",
"367 670 LINE",
"289 486 LINE",
"228 670 LINE",
"-8 670 LINE",
"135 321 LINE",
"-8 0 LINE"
);
}
);
width = 583;
},
{
layerId = "5E4DD32C-6BC9-4010-93B4-D8C61BED16DC";
paths = (
{
closed = 1;
nodes = (
"104 0 LINE",
"279 284 LINE",
"450 0 LINE",
"541 0 LINE",
"329 341 LINE",
"541 691 LINE",
"455 691 LINE",
"281 398 LINE",
"109 691 LINE",
"18 691 LINE",
"231 338 LINE",
"18 0 LINE"
);
}
);
width = 558.76471;
}
);
unicode = 0058;
},
{
color = 5;
glyphname = Y;
layers = (
{
layerId = "459CA063-FA7D-4205-A795-7B6CE244EAAB";
paths = (
{
closed = 1;
nodes = (
"281 0 LINE",
"281 301 LINE",
"509 700 LINE",
"467 700 LINE",
"263 341 LINE",
"59 700 LINE",
"17 700 LINE",
"245 301 LINE",
"245 0 LINE"
);
}
);
width = 526;
},
{
layerId = "EA657207-4E15-4023-BA2A-6FA5407A60CD";
paths = (
{
closed = 1;
nodes = (
"410 0 LINE",
"410 210 LINE",
"606 670 LINE",
"361 670 LINE",
"296 473 LINE",
"233 670 LINE",
"-13 670 LINE",
"178 210 LINE",
"178 0 LINE"
);
}
);
width = 590;
},
{
layerId = "5E4DD32C-6BC9-4010-93B4-D8C61BED16DC";
paths = (
{
closed = 1;
nodes = (
"310 0 LINE",
"310 290 LINE",
"529 691 LINE",
"439 691 LINE",
"269 370 LINE",
"100 691 LINE",
"10 691 LINE",
"230 290 LINE",
"230 0 LINE"
);
}
);
width = 539.37255;
}
);
leftKerningGroup = Y;
rightKerningGroup = Y;
unicode = 0059;
},
{
color = 5;
glyphname = Z;
layers = (
{
layerId = "459CA063-FA7D-4205-A795-7B6CE244EAAB";
paths = (
{
closed = 1;
nodes = (
"494 -1 LINE",
"494 33 LINE",
"81 33 LINE",
"81 55 LINE",
"494 630 LINE",
"494 700 LINE",
"44 700 LINE",
"44 666 LINE",
"457 666 LINE",
"457 642 LINE",
"44 68 LINE",
"44 -1 LINE"
);
}
);
width = 539;
},
{
layerId = "EA657207-4E15-4023-BA2A-6FA5407A60CD";
paths = (
{
closed = 1;
nodes = (
"549 0 LINE",
"549 189 LINE",
"332 189 LINE",
"332 206 LINE",
"549 481 LINE",
"549 670 LINE",
"19 670 LINE",
"19 481 LINE",
"241 481 LINE",
"241 464 LINE",
"19 180 LINE",
"19 0 LINE"
);
}
);
width = 569;
},
{
layerId = "5E4DD32C-6BC9-4010-93B4-D8C61BED16DC";
paths = (
{
closed = 1;
nodes = (
"493 -1 LINE",
"493 71 LINE",
"135 71 LINE",
"135 91 LINE",
"493 600 LINE",
"493 691 LINE",
"43 691 LINE",
"43 620 LINE",
"400 620 LINE",
"400 599 LINE",
"43 90 LINE",
"43 -1 LINE"
);
}
);
width = 535.98039;
}
);
leftKerningGroup = Z;
rightKerningGroup = Z;
unicode = 005A;
},
{
color = 5;
glyphname = a;
layers = (
{
layerId = "459CA063-FA7D-4205-A795-7B6CE244EAAB";
paths = (
{
closed = 1;
nodes = (
"252 -9 OFFCURVE",
"337 16 OFFCURVE",
"381 34 CURVE",
"391 20 OFFCURVE",
"405 10 OFFCURVE",
"421 3 CURVE SMOOTH",
"439 -5 OFFCURVE",
"461 -8 OFFCURVE",
"484 -8 CURVE",
"486 23 LINE",
"451 26 OFFCURVE",
"414 36 OFFCURVE",
"411 65 CURVE",
"411 353 LINE SMOOTH",
"411 456 OFFCURVE",
"366 509 OFFCURVE",
"265 509 CURVE SMOOTH",
"207 509 OFFCURVE",
"121 499 OFFCURVE",
"73 491 CURVE",
"76 458 LINE",
"126 465 OFFCURVE",
"212 475 OFFCURVE",
"265 475 CURVE SMOOTH",
"338 475 OFFCURVE",
"376 440 OFFCURVE",
"376 353 CURVE SMOOTH",
"376 301 LINE",
"186 281 LINE SMOOTH",
"88 271 OFFCURVE",
"48 222 OFFCURVE",
"48 137 CURVE SMOOTH",
"48 40 OFFCURVE",
"97 -9 OFFCURVE",
"179 -9 CURVE SMOOTH"
);
},
{
closed = 1;
nodes = (
"119 23 OFFCURVE",
"85 64 OFFCURVE",
"85 137 CURVE SMOOTH",
"85 206 OFFCURVE",
"112 242 OFFCURVE",
"190 250 CURVE SMOOTH",
"376 269 LINE",
"376 64 LINE",
"332 46 OFFCURVE",
"249 23 OFFCURVE",
"180 23 CURVE SMOOTH"
);
}
);
width = 495;
},
{
layerId = "EA657207-4E15-4023-BA2A-6FA5407A60CD";
paths = (
{
closed = 1;
nodes = (
"255 -13 OFFCURVE",
"312 7 OFFCURVE",
"339 22 CURVE",
"349 7 OFFCURVE",
"382 -13 OFFCURVE",
"436 -13 CURVE SMOOTH",
"454 -13 OFFCURVE",
"505 -6 OFFCURVE",
"539 -1 CURVE",
"542 141 LINE",
"535 143 OFFCURVE",
"522 149 OFFCURVE",
"518 152 CURVE",
"518 342 LINE SMOOTH",
"518 487 OFFCURVE",
"418 518 OFFCURVE",
"273 518 CURVE SMOOTH",
"193 518 OFFCURVE",
"89 498 OFFCURVE",
"32 483 CURVE",
"37 331 LINE",
"91 337 OFFCURVE",
"186 344 OFFCURVE",
"251 344 CURVE SMOOTH",
"277 344 OFFCURVE",
"294 339 OFFCURVE",
"294 325 CURVE SMOOTH",
"294 316 LINE",
"222 313 LINE SMOOTH",
"92 308 OFFCURVE",
"10 288 OFFCURVE",
"10 157 CURVE SMOOTH",
"10 38 OFFCURVE",
"69 -13 OFFCURVE",
"195 -13 CURVE SMOOTH"
);
},
{
closed = 1;
nodes = (
"240 141 OFFCURVE",
"234 149 OFFCURVE",
"234 163 CURVE SMOOTH",
"234 179 OFFCURVE",
"244 190 OFFCURVE",
"260 191 CURVE SMOOTH",
"294 193 LINE",
"294 156 LINE",
"287 150 OFFCURVE",
"271 141 OFFCURVE",
"256 141 CURVE SMOOTH"
);
}
);
width = 557;
},
{
layerId = "5E4DD32C-6BC9-4010-93B4-D8C61BED16DC";
paths = (
{
closed = 1;
nodes = (
"246 -10 OFFCURVE",
"321 13 OFFCURVE",
"359 29 CURVE",
"373 16 OFFCURVE",
"389 7 OFFCURVE",
"406 0 CURVE",
"427 -7 OFFCURVE",
"451 -10 OFFCURVE",
"480 -10 CURVE",
"483 51 LINE",
"451 55 OFFCURVE",
"428 66 OFFCURVE",
"426 96 CURVE",
"426 349 LINE SMOOTH",
"426 458 OFFCURVE",
"378 510 OFFCURVE",
"264 510 CURVE SMOOTH",
"201 510 OFFCURVE",
"115 497 OFFCURVE",
"67 488 CURVE",
"71 429 LINE",
"122 434 OFFCURVE",
"209 442 OFFCURVE",
"259 442 CURVE SMOOTH",
"318 442 OFFCURVE",
"348 417 OFFCURVE",
"348 349 CURVE SMOOTH",
"348 306 LINE",
"194 291 LINE SMOOTH",
"91 282 OFFCURVE",
"40 241 OFFCURVE",
"40 143 CURVE SMOOTH",
"40 43 OFFCURVE",
"89 -10 OFFCURVE",
"181 -10 CURVE SMOOTH"
);
},
{
closed = 1;
nodes = (
"144 55 OFFCURVE",
"119 89 OFFCURVE",
"119 145 CURVE SMOOTH",
"119 200 OFFCURVE",
"143 228 OFFCURVE",
"203 234 CURVE SMOOTH",
"348 248 LINE",
"348 85 LINE",
"313 72 OFFCURVE",
"247 55 OFFCURVE",
"194 55 CURVE SMOOTH"
);
}
);
width = 501.90196;
}
);
leftKerningGroup = a;
rightKerningGroup = a;
unicode = 0061;
},
{
color = 5;
glyphname = ae;
layers = (
{
layerId = "459CA063-FA7D-4205-A795-7B6CE244EAAB";
paths = (
{
closed = 1;
nodes = (
"263 -9 OFFCURVE",
"336 13 OFFCURVE",
"419 49 CURVE",
"447 13 OFFCURVE",
"493 -9 OFFCURVE",
"562 -9 CURVE SMOOTH",
"615 -9 OFFCURVE",
"699 -4 OFFCURVE",
"747 0 CURVE",
"745 32 LINE",
"697 28 OFFCURVE",
"614 23 OFFCURVE",
"563 23 CURVE SMOOTH",
"447 23 OFFCURVE",
"411 98 OFFCURVE",
"411 236 CURVE",
"766 236 LINE",
"766 269 LINE SMOOTH",
"766 442 OFFCURVE",
"699 509 OFFCURVE",
"576 509 CURVE SMOOTH",
"502 509 OFFCURVE",
"440 484 OFFCURVE",
"404 413 CURVE",
"388 477 OFFCURVE",
"343 509 OFFCURVE",
"265 509 CURVE SMOOTH",
"207 509 OFFCURVE",
"122 503 OFFCURVE",
"75 499 CURVE",
"77 466 LINE",
"126 470 OFFCURVE",
"211 475 OFFCURVE",
"265 475 CURVE SMOOTH",
"337 475 OFFCURVE",
"376 441 OFFCURVE",
"376 353 CURVE SMOOTH",
"376 301 LINE",
"233 286 LINE SMOOTH",
"100 269 OFFCURVE",
"48 249 OFFCURVE",
"48 137 CURVE SMOOTH",
"48 39 OFFCURVE",
"93 -9 OFFCURVE",
"175 -9 CURVE SMOOTH"
);
},
{
closed = 1;
nodes = (
"120 23 OFFCURVE",
"85 63 OFFCURVE",
"85 137 CURVE SMOOTH",
"85 209 OFFCURVE",
"116 243 OFFCURVE",
"190 250 CURVE SMOOTH",
"374 268 LINE",
"374 186 OFFCURVE",
"380 121 OFFCURVE",
"404 74 CURVE",
"387 67 OFFCURVE",
"269 23 OFFCURVE",
"176 23 CURVE SMOOTH"
);
},
{
closed = 1;
nodes = (
"411 419 OFFCURVE",
"476 477 OFFCURVE",
"576 477 CURVE SMOOTH",
"680 477 OFFCURVE",
"729 421 OFFCURVE",
"729 268 CURVE",
"411 268 LINE"
);
}
);
width = 818;
},
{
layerId = "EA657207-4E15-4023-BA2A-6FA5407A60CD";
paths = (
{
closed = 1;
nodes = (
"252 -13 OFFCURVE",
"335 6 OFFCURVE",
"383 21 CURVE",
"414 -2 OFFCURVE",
"460 -13 OFFCURVE",
"527 -13 CURVE SMOOTH",
"617 -13 OFFCURVE",
"726 4 OFFCURVE",
"783 16 CURVE",
"778 161 LINE",
"717 157 OFFCURVE",
"610 152 OFFCURVE",
"543 152 CURVE SMOOTH",
"509 152 OFFCURVE",
"495 162 OFFCURVE",
"494 187 CURVE",
"783 187 LINE",
"793 286 LINE",
"793 445 OFFCURVE",
"705 518 OFFCURVE",
"532 518 CURVE SMOOTH",
"479 518 OFFCURVE",
"439 509 OFFCURVE",
"409 492 CURVE",
"378 512 OFFCURVE",
"332 518 OFFCURVE",
"267 518 CURVE SMOOTH",
"187 518 OFFCURVE",
"86 498 OFFCURVE",
"32 483 CURVE",
"37 331 LINE",
"88 337 OFFCURVE",
"180 344 OFFCURVE",
"245 344 CURVE SMOOTH",
"271 344 OFFCURVE",
"288 339 OFFCURVE",
"288 325 CURVE SMOOTH",
"288 316 LINE",
"220 313 LINE SMOOTH",
"81 306 OFFCURVE",
"10 292 OFFCURVE",
"10 157 CURVE SMOOTH",
"10 38 OFFCURVE",
"80 -13 OFFCURVE",
"189 -13 CURVE SMOOTH"
);
},
{
closed = 1;
nodes = (
"234 141 OFFCURVE",
"228 149 OFFCURVE",
"228 163 CURVE SMOOTH",
"228 179 OFFCURVE",
"238 190 OFFCURVE",
"254 191 CURVE SMOOTH",
"288 193 LINE",
"288 181 OFFCURVE",
"288 169 OFFCURVE",
"288 156 CURVE",
"281 150 OFFCURVE",
"265 141 OFFCURVE",
"250 141 CURVE SMOOTH"
);
},
{
closed = 1;
nodes = (
"494 346 OFFCURVE",
"502 362 OFFCURVE",
"532 362 CURVE SMOOTH",
"559 362 OFFCURVE",
"571 349 OFFCURVE",
"571 309 CURVE",
"493 309 LINE"
);
}
);
width = 807;
},
{
layerId = "5E4DD32C-6BC9-4010-93B4-D8C61BED16DC";
paths = (
{
closed = 1;
nodes = (
"261 -10 OFFCURVE",
"326 11 OFFCURVE",
"399 43 CURVE",
"430 9 OFFCURVE",
"477 -10 OFFCURVE",
"546 -10 CURVE SMOOTH",
"606 -10 OFFCURVE",
"693 -1 OFFCURVE",
"741 7 CURVE",
"739 70 LINE",
"693 66 OFFCURVE",
"611 61 OFFCURVE",
"556 61 CURVE SMOOTH {name = hr00;}",
"459 61 OFFCURVE",
"426 114 OFFCURVE",
"426 217 CURVE",
"754 217 LINE",
"759 276 LINE",
"759 440 OFFCURVE",
"690 510 OFFCURVE",
"557 510 CURVE SMOOTH",
"491 510 OFFCURVE",
"437 490 OFFCURVE",
"401 439 CURVE",
"379 487 OFFCURVE",
"335 510 OFFCURVE",
"267 510 CURVE SMOOTH",
"211 510 OFFCURVE",
"121 501 OFFCURVE",
"70 495 CURVE",
"73 425 LINE",
"123 430 OFFCURVE",
"209 435 OFFCURVE",
"263 435 CURVE SMOOTH",
"317 435 OFFCURVE",
"348 408 OFFCURVE",
"348 347 CURVE SMOOTH",
"348 306 LINE",
"220 295 LINE SMOOTH",
"98 282 OFFCURVE",
"40 255 OFFCURVE",
"40 143 CURVE SMOOTH",
"40 45 OFFCURVE",
"87 -10 OFFCURVE",
"176 -10 CURVE SMOOTH"
);
},
{
closed = 1;
nodes = (
"145 58 OFFCURVE",
"119 88 OFFCURVE",
"119 145 CURVE SMOOTH",
"119 202 OFFCURVE",
"146 227 OFFCURVE",
"203 231 CURVE SMOOTH",
"346 243 LINE",
"346 192 OFFCURVE",
"350 128 OFFCURVE",
"364 93 CURVE",
"342 86 OFFCURVE",
"254 58 OFFCURVE",
"189 58 CURVE SMOOTH"
);
},
{
closed = 1;
nodes = (
"426 394 OFFCURVE",
"472 440 OFFCURVE",
"557 440 CURVE SMOOTH",
"643 440 OFFCURVE",
"681 397 OFFCURVE",
"681 280 CURVE",
"426 280 LINE"
);
}
);
width = 803.33333;
}
);
leftKerningGroup = a;
rightKerningGroup = e;
unicode = 00E6;
},
{
color = 5;
glyphname = b;
layers = (
{
layerId = "459CA063-FA7D-4205-A795-7B6CE244EAAB";
paths = (
{
closed = 1;
nodes = (
"413 -9 OFFCURVE",
"455 71 OFFCURVE",
"455 258 CURVE SMOOTH",
"455 430 OFFCURVE",
"421 509 OFFCURVE",
"285 509 CURVE SMOOTH",
"220 509 OFFCURVE",
"149 486 OFFCURVE",
"113 469 CURVE",
"113 730 LINE",
"78 730 LINE",
"78 0 LINE",
"113 -4 OFFCURVE",
"177 -9 OFFCURVE",
"227 -9 CURVE SMOOTH"
);
},
{
closed = 1;
nodes = (
"200 23 OFFCURVE",
"147 26 OFFCURVE",
"113 29 CURVE",
"113 437 LINE",
"149 454 OFFCURVE",
"220 477 OFFCURVE",
"285 477 CURVE SMOOTH",
"396 477 OFFCURVE",
"418 406 OFFCURVE",
"418 258 CURVE SMOOTH",
"418 97 OFFCURVE",
"393 23 OFFCURVE",
"226 23 CURVE SMOOTH"
);
}
);
width = 514;
},
{
layerId = "EA657207-4E15-4023-BA2A-6FA5407A60CD";
paths = (
{
closed = 1;
nodes = (
"489 -13 OFFCURVE",
"553 58 OFFCURVE",
"553 261 CURVE SMOOTH",
"553 412 OFFCURVE",
"503 518 OFFCURVE",
"355 518 CURVE SMOOTH",
"327 518 OFFCURVE",
"279 509 OFFCURVE",
"251 502 CURVE",
"251 690 LINE",
"27 690 LINE",
"27 10 LINE",
"101 0 OFFCURVE",
"220 -13 OFFCURVE",
"279 -13 CURVE SMOOTH"
);
},
{
closed = 1;
nodes = (
"269 168 OFFCURVE",
"257 170 OFFCURVE",
"251 171 CURVE",
"251 330 LINE",
"261 333 OFFCURVE",
"276 337 OFFCURVE",
"283 337 CURVE SMOOTH",
"313 337 OFFCURVE",
"327 321 OFFCURVE",
"327 256 CURVE SMOOTH",
"327 209 OFFCURVE",
"320 168 OFFCURVE",
"283 168 CURVE SMOOTH"
);
}
);
width = 569;
},
{
layerId = "5E4DD32C-6BC9-4010-93B4-D8C61BED16DC";
paths = (
{
closed = 1;
nodes = (
"422 -10 OFFCURVE",
"477 58 OFFCURVE",
"477 258 CURVE SMOOTH",
"477 438 OFFCURVE",
"429 510 OFFCURVE",
"293 510 CURVE SMOOTH",
"242 510 OFFCURVE",
"181 491 OFFCURVE",
"149 476 CURVE",
"149 717 LINE",
"71 717 LINE",
"71 1 LINE",
"118 -4 OFFCURVE",
"196 -10 OFFCURVE",
"240 -10 CURVE SMOOTH"
);
},
{
closed = 1;
nodes = (
"220 60 OFFCURVE",
"177 62 OFFCURVE",
"149 65 CURVE",
"149 412 LINE",
"179 424 OFFCURVE",
"236 440 OFFCURVE",
"285 440 CURVE SMOOTH",
"371 440 OFFCURVE",
"397 385 OFFCURVE",
"397 258 CURVE SMOOTH",
"397 119 OFFCURVE",
"374 60 OFFCURVE",
"239 60 CURVE SMOOTH"
);
}
);
width = 526.94118;
}
);
leftKerningGroup = b;
rightKerningGroup = b;
unicode = 0062;
},
{
color = 5;
glyphname = c;
layers = (
{
layerId = "459CA063-FA7D-4205-A795-7B6CE244EAAB";
paths = (
{
closed = 1;
nodes = (
"293 -9 OFFCURVE",
"351 -4 OFFCURVE",
"387 0 CURVE",
"385 32 LINE",
"350 28 OFFCURVE",
"293 23 OFFCURVE",
"265 23 CURVE SMOOTH",
"123 23 OFFCURVE",
"97 89 OFFCURVE",
"97 261 CURVE SMOOTH",
"97 419 OFFCURVE",
"137 477 OFFCURVE",
"265 477 CURVE SMOOTH",
"293 477 OFFCURVE",
"349 471 OFFCURVE",
"383 467 CURVE",
"385 499 LINE",
"350 503 OFFCURVE",
"293 509 OFFCURVE",
"265 509 CURVE SMOOTH",
"116 509 OFFCURVE",
"60 446 OFFCURVE",
"60 261 CURVE SMOOTH",
"60 60 OFFCURVE",
"98 -9 OFFCURVE",
"265 -9 CURVE SMOOTH"
);
}
);
width = 429;
},
{
layerId = "EA657207-4E15-4023-BA2A-6FA5407A60CD";
paths = (
{
closed = 1;
nodes = (
"330 -13 OFFCURVE",
"408 3 OFFCURVE",
"449 15 CURVE",
"442 190 LINE",
"397 187 OFFCURVE",
"327 183 OFFCURVE",
"299 183 CURVE SMOOTH",
"256 183 OFFCURVE",
"242 200 OFFCURVE",
"242 253 CURVE SMOOTH",
"242 305 OFFCURVE",
"257 323 OFFCURVE",
"299 323 CURVE SMOOTH",
"327 323 OFFCURVE",
"396 318 OFFCURVE",
"440 315 CURVE",
"447 492 LINE",
"402 503 OFFCURVE",
"322 518 OFFCURVE",
"266 518 CURVE SMOOTH",
"88 518 OFFCURVE",
"16 457 OFFCURVE",
"16 253 CURVE SMOOTH",
"16 62 OFFCURVE",
"70 -13 OFFCURVE",
"266 -13 CURVE SMOOTH"
);
}
);
width = 465;
},
{
layerId = "5E4DD32C-6BC9-4010-93B4-D8C61BED16DC";
paths = (
{
closed = 1;
nodes = (
"290 -10 OFFCURVE",
"356 -2 OFFCURVE",
"396 4 CURVE",
"394 68 LINE",
"359 65 OFFCURVE",
"303 60 OFFCURVE",
"275 60 CURVE SMOOTH",
"153 60 OFFCURVE",
"130 112 OFFCURVE",
"130 258 CURVE SMOOTH",
"130 391 OFFCURVE",
"161 440 OFFCURVE",
"275 440 CURVE SMOOTH",
"303 440 OFFCURVE",
"358 435 OFFCURVE",
"392 431 CURVE",
"395 495 LINE",
"356 501 OFFCURVE",
"292 510 OFFCURVE",
"258 510 CURVE SMOOTH",
"109 510 OFFCURVE",
"51 440 OFFCURVE",
"51 258 CURVE SMOOTH",
"51 63 OFFCURVE",
"98 -10 OFFCURVE",
"257 -10 CURVE SMOOTH"
);
}
);
width = 436.33333;
}
);
leftKerningGroup = o;
rightKerningGroup = c;
unicode = 0063;
},
{
color = 5;
glyphname = d;
layers = (
{
layerId = "459CA063-FA7D-4205-A795-7B6CE244EAAB";
paths = (
{
closed = 1;
nodes = (
"294 -9 OFFCURVE",
"366 20 OFFCURVE",
"401 42 CURVE",
"401 0 LINE",
"436 0 LINE",
"436 730 LINE",
"401 730 LINE",
"401 497 LINE",
"376 501 OFFCURVE",
"316 509 OFFCURVE",
"269 509 CURVE SMOOTH",
"105 509 OFFCURVE",
"58 414 OFFCURVE",
"58 242 CURVE SMOOTH",
"58 -1 OFFCURVE",
"166 -9 OFFCURVE",
"228 -9 CURVE SMOOTH"
);
},
{
closed = 1;
nodes = (
"172 23 OFFCURVE",
"95 40 OFFCURVE",
"95 242 CURVE SMOOTH",
"95 391 OFFCURVE",
"127 477 OFFCURVE",
"269 477 CURVE SMOOTH",
"308 477 OFFCURVE",
"375 469 OFFCURVE",
"401 465 CURVE",
"401 75 LINE",
"364 53 OFFCURVE",
"291 23 OFFCURVE",
"228 23 CURVE SMOOTH"
);
}
);
width = 515;
},
{
layerId = "EA657207-4E15-4023-BA2A-6FA5407A60CD";
paths = (
{
closed = 1;
nodes = (
"251 -13 OFFCURVE",
"295 7 OFFCURVE",
"319 22 CURVE",
"321 0 LINE {name = hr01;}",
"542 0 LINE",
"542 690 LINE {name = hr00;}",
"318 690 LINE",
"318 512 LINE",
"295 515 OFFCURVE",
"257 518 OFFCURVE",
"237 518 CURVE SMOOTH",
"76 518 OFFCURVE",
"16 413 OFFCURVE",
"16 252 CURVE SMOOTH",
"16 91 OFFCURVE",
"59 -13 OFFCURVE",
"214 -13 CURVE SMOOTH"
);
},
{
closed = 1;
nodes = (
"247 168 OFFCURVE",
"242 207 OFFCURVE",
"242 252 CURVE SMOOTH",
"242 297 OFFCURVE",
"247 337 OFFCURVE",
"286 337 CURVE SMOOTH",
"295 337 OFFCURVE",
"310 336 OFFCURVE",
"318 334 CURVE",
"318 171 LINE",
"310 169 OFFCURVE",
"287 168 OFFCURVE {name = hr02;}",
"287 168 CURVE SMOOTH"
);
}
);
width = 570;
},
{
layerId = "5E4DD32C-6BC9-4010-93B4-D8C61BED16DC";
paths = (
{
closed = 1;
nodes = (
"284 -10 OFFCURVE",
"348 14 OFFCURVE",
"381 33 CURVE",
"381 0 LINE",
"458 0 LINE",
"458 717 LINE",
"380 717 LINE",
"380 497 LINE",
"353 502 OFFCURVE",
"297 510 OFFCURVE",
"259 510 CURVE SMOOTH",
"107 510 OFFCURVE",
"49 423 OFFCURVE",
"49 246 CURVE SMOOTH",
"49 32 OFFCURVE",
"130 -10 OFFCURVE",
"230 -10 CURVE SMOOTH"
);
},
{
closed = 1;
nodes = (
"181 60 OFFCURVE",
"129 87 OFFCURVE",
"129 246 CURVE SMOOTH",
"129 375 OFFCURVE",
"161 442 OFFCURVE",
"263 442 CURVE SMOOTH",
"299 442 OFFCURVE",
"355 435 OFFCURVE",
"380 431 CURVE",
"380 96 LINE",
"350 81 OFFCURVE",
"291 60 OFFCURVE",
"240 60 CURVE SMOOTH"
);
}
);
width = 529.66667;
}
);
leftKerningGroup = d;
rightKerningGroup = d;
unicode = 0064;
},
{
color = 5;
glyphname = eth;
layers = (
{
layerId = "459CA063-FA7D-4205-A795-7B6CE244EAAB";
paths = (
{
closed = 1;
nodes = (
"412 -9 OFFCURVE",
"475 84 OFFCURVE",
"475 355 CURVE SMOOTH",
"475 541 OFFCURVE",
"352 669 OFFCURVE",
"118 739 CURVE",
"105 708 LINE",
"341 638 OFFCURVE",
"434 510 OFFCURVE",
"438 381 CURVE",
"390 400 OFFCURVE",
"306 425 OFFCURVE",
"249 425 CURVE SMOOTH",
"123 425 OFFCURVE",
"45 340 OFFCURVE",
"45 214 CURVE SMOOTH",
"45 71 OFFCURVE",
"127 -9 OFFCURVE",
"260 -9 CURVE SMOOTH"
);
},
{
closed = 1;
nodes = (
"145 25 OFFCURVE",
"81 92 OFFCURVE",
"81 214 CURVE SMOOTH",
"81 318 OFFCURVE",
"144 391 OFFCURVE",
"251 391 CURVE SMOOTH",
"304 391 OFFCURVE",
"389 365 OFFCURVE",
"439 346 CURVE",
"437 99 OFFCURVE",
"390 25 OFFCURVE",
"260 25 CURVE SMOOTH"
);
},
{
closed = 1;
nodes = (
"392 718 LINE",
"372 745 LINE",
"132 583 LINE",
"152 556 LINE"
);
}
);
width = 535;
},
{
layerId = "EA657207-4E15-4023-BA2A-6FA5407A60CD";
paths = (
{
closed = 1;
nodes = (
"434 -9 OFFCURVE",
"512 112 OFFCURVE",
"512 345 CURVE SMOOTH",
"512 615 OFFCURVE",
"352 697 OFFCURVE",
"65 705 CURVE",
"46 595 LINE",
"284 559 OFFCURVE",
"329 518 OFFCURVE",
"343 423 CURVE",
"319 442 OFFCURVE",
"260 441 OFFCURVE",
"228 441 CURVE SMOOTH",
"73 441 OFFCURVE",
"6 351 OFFCURVE",
"6 217 CURVE SMOOTH",
"6 60 OFFCURVE",
"88 -9 OFFCURVE",
"246 -9 CURVE SMOOTH"
);
},
{
closed = 1;
nodes = (
"190 133 OFFCURVE",
"176 168 OFFCURVE",
"176 217 CURVE SMOOTH",
"176 255 OFFCURVE",
"191 302 OFFCURVE",
"237 302 CURVE SMOOTH",
"282 302 OFFCURVE",
"297 302 OFFCURVE",
"342 286 CURVE",
"342 178 OFFCURVE",
"304 133 OFFCURVE",
"246 133 CURVE SMOOTH"
);
},
{
closed = 1;
nodes = (
"446 646 LINE",
"384 735 LINE",
"79 533 LINE",
"142 444 LINE"
);
}
);
width = 529;
},
{
layerId = "5E4DD32C-6BC9-4010-93B4-D8C61BED16DC";
paths = (
{
closed = 1;
nodes = (
"431 -9 OFFCURVE",
"498 93 OFFCURVE",
"498 352 CURVE SMOOTH",
"498 566 OFFCURVE",
"362 678 OFFCURVE",
"110 727 CURVE",
"95 669 LINE",
"331 611 OFFCURVE",
"409 513 OFFCURVE",
"416 395 CURVE",
"377 410 OFFCURVE",
"306 431 OFFCURVE",
"252 431 CURVE SMOOTH",
"116 431 OFFCURVE",
"42 344 OFFCURVE",
"42 215 CURVE SMOOTH",
"42 68 OFFCURVE",
"124 -9 OFFCURVE",
"266 -9 CURVE SMOOTH"
);
},
{
closed = 1;
nodes = (
"171 62 OFFCURVE",
"124 118 OFFCURVE",
"124 215 CURVE SMOOTH",
"124 296 OFFCURVE",
"170 360 OFFCURVE",
"257 360 CURVE SMOOTH",
"310 360 OFFCURVE",
"379 340 OFFCURVE",
"416 325 CURVE",
"415 126 OFFCURVE",
"371 62 OFFCURVE",
"266 62 CURVE SMOOTH"
);
},
{
closed = 1;
nodes = (
"421 693 LINE",
"386 742 LINE",
"124 566 LINE",
"159 518 LINE"
);
}
);
width = 548.80392;
}
);
unicode = 00F0;
userData = {
"- fatto thin\012- fatto bold\012- aggiunti hint  com.typemytype.robofont.guides" = (
{
angle = 90;
isGlobal = 0;
magnetic = 5;
x = 513;
y = 0;
},
{
angle = 90;
isGlobal = 0;
magnetic = 5;
x = 481;
y = 0;
}
);
};
},
{
color = 5;
glyphname = dcaron;
layers = (
{
components = (
{
name = d;
}
);
layerId = "459CA063-FA7D-4205-A795-7B6CE244EAAB";
paths = (
{
closed = 1;
nodes = (
"528 498 LINE",
"574 687 LINE",
"537 687 LINE",
"500 498 LINE"
);
}
);
width = 515;
},
{
components = (
{
name = d;
}
);
layerId = "EA657207-4E15-4023-BA2A-6FA5407A60CD";
paths = (
{
closed = 1;
nodes = (
"743 454 LINE",
"805 669 LINE",
"601 669 LINE",
"581 454 LINE"
);
}
);
width = 748;
},
{
components = (
{
alignment = -1;
name = d;
}
);
layerId = "5E4DD32C-6BC9-4010-93B4-D8C61BED16DC";
paths = (
{
closed = 1;
nodes = (
"587 475 LINE",
"637 683 LINE",
"560 683 LINE",
"519 475 LINE"
);
}
);
width = 579.27451;
}
);
leftKerningGroup = d;
rightKerningGroup = lcaron;
unicode = 010F;
},
{
color = 5;
glyphname = dcroat;
layers = (
{
components = (
{
name = d;
}
);
layerId = "459CA063-FA7D-4205-A795-7B6CE244EAAB";
paths = (
{
closed = 1;
nodes = (
"495 622 LINE",
"495 654 LINE",
"228 654 LINE",
"228 622 LINE"
);
}
);
width = 515;
},
{
components = (
{
name = d;
}
);
layerId = "EA657207-4E15-4023-BA2A-6FA5407A60CD";
paths = (
{
closed = 1;
nodes = (
"582 545 LINE",
"582 652 LINE",
"257 652 LINE",
"257 545 LINE"
);
}
);
width = 570;
},
{
components = (
{
alignment = -1;
name = d;
}
);
layerId = "5E4DD32C-6BC9-4010-93B4-D8C61BED16DC";
paths = (
{
closed = 1;
nodes = (
"478 622 LINE",
"478 690 LINE",
"185 690 LINE",
"185 622 LINE"
);
}
);
width = 529.66667;
}
);
leftKerningGroup = d;
rightKerningGroup = d;
unicode = 0111;
},
{
color = 5;
glyphname = e;
layers = (
{
layerId = "459CA063-FA7D-4205-A795-7B6CE244EAAB";
paths = (
{
closed = 1;
nodes = (
"299 -9 OFFCURVE",
"383 -4 OFFCURVE",
"431 0 CURVE",
"429 32 LINE",
"381 28 OFFCURVE",
"298 23 OFFCURVE",
"247 23 CURVE SMOOTH",
"131 23 OFFCURVE",
"95 98 OFFCURVE",
"95 236 CURVE",
"450 236 LINE",
"450 269 LINE SMOOTH",
"450 442 OFFCURVE",
"383 509 OFFCURVE",
"260 509 CURVE SMOOTH",
"146 509 OFFCURVE",
"58 448 OFFCURVE",
"58 250 CURVE SMOOTH",
"58 87 OFFCURVE",
"97 -8 OFFCURVE",
"246 -9 CURVE SMOOTH"
);
},
{
closed = 1;
nodes = (
"95 420 OFFCURVE",
"160 477 OFFCURVE",
"260 477 CURVE SMOOTH",
"364 477 OFFCURVE",
"413 421 OFFCURVE",
"413 268 CURVE",
"95 268 LINE"
);
}
);
width = 502;
},
{
layerId = "EA657207-4E15-4023-BA2A-6FA5407A60CD";
paths = (
{
closed = 1;
nodes = (
"362 -13 OFFCURVE",
"471 4 OFFCURVE",
"528 16 CURVE",
"523 161 LINE",
"462 157 OFFCURVE",
"355 152 OFFCURVE",
"288 152 CURVE SMOOTH",
"254 152 OFFCURVE",
"240 162 OFFCURVE",
"239 187 CURVE",
"528 187 LINE",
"538 286 LINE",
"538 445 OFFCURVE",
"450 518 OFFCURVE",
"277 518 CURVE SMOOTH",
"91 518 OFFCURVE",
"15 419 OFFCURVE",
"15 243 CURVE SMOOTH",
"15 66 OFFCURVE",
"82 -13 OFFCURVE",
"272 -13 CURVE SMOOTH"
);
},
{
closed = 1;
nodes = (
"239 346 OFFCURVE",
"247 362 OFFCURVE",
"277 362 CURVE SMOOTH",
"304 362 OFFCURVE",
"314 347 OFFCURVE",
"314 309 CURVE",
"238 309 LINE"
);
}
);
width = 552;
},
{
layerId = "5E4DD32C-6BC9-4010-93B4-D8C61BED16DC";
paths = (
{
closed = 1;
nodes = (
"308 -10 OFFCURVE",
"395 -1 OFFCURVE",
"444 7 CURVE",
"442 68 LINE",
"395 64 OFFCURVE",
"313 59 OFFCURVE",
"258 59 CURVE SMOOTH",
"161 59 OFFCURVE",
"129 113 OFFCURVE",
"128 217 CURVE",
"457 217 LINE",
"461 276 LINE",
"461 440 OFFCURVE",
"392 510 OFFCURVE",
"259 510 CURVE SMOOTH",
"131 510 OFFCURVE",
"49 436 OFFCURVE",
"49 247 CURVE SMOOTH",
"49 77 OFFCURVE",
"99 -10 OFFCURVE",
"249 -10 CURVE SMOOTH"
);
},
{
closed = 1;
nodes = (
"128 399 OFFCURVE",
"175 445 OFFCURVE",
"259 445 CURVE SMOOTH",
"345 445 OFFCURVE",
"383 402 OFFCURVE",
"383 280 CURVE",
"128 280 LINE"
);
}
);
width = 505.45098;
}
);
leftKerningGroup = o;
rightKerningGroup = e;
unicode = 0065;
},
{
color = 5;
glyphname = f;
layers = (
{
layerId = "459CA063-FA7D-4205-A795-7B6CE244EAAB";
paths = (
{
closed = 1;
nodes = (
"133 0 LINE",
"133 468 LINE {name = hr00;}",
"295 468 LINE",
"295 500 LINE",
"133 500 LINE",
"133 560 LINE SMOOTH",
"133 680 OFFCURVE",
"157 707 OFFCURVE",
"225 707 CURVE SMOOTH",
"245 707 OFFCURVE",
"289 706 OFFCURVE",
"317 705 CURVE",
"317 736 LINE",
"317 736 OFFCURVE",
"249 739 OFFCURVE",
"225 739 CURVE SMOOTH",
"134 739 OFFCURVE",
"98 705 OFFCURVE",
"98 561 CURVE SMOOTH",
"98 500 LINE",
"29 500 LINE",
"29 468 LINE",
"98 468 LINE",
"98 0 LINE"
);
}
);
width = 313;
},
{
layerId = "EA657207-4E15-4023-BA2A-6FA5407A60CD";
paths = (
{
closed = 1;
nodes = (
"269 0 LINE",
"269 324 LINE",
"349 324 LINE",
"349 505 LINE",
"269 505 LINE",
"269 515 LINE SMOOTH",
"269 522 OFFCURVE",
"279 528 OFFCURVE",
"308 528 CURVE SMOOTH",
"320 528 OFFCURVE",
"333 528 OFFCURVE",
"351 528 CURVE",
"351 690 LINE",
"321 696 OFFCURVE",
"264 703 OFFCURVE",
"217 703 CURVE SMOOTH",
"81 703 OFFCURVE",
"45 649 OFFCURVE",
"45 509 CURVE SMOOTH",
"45 505 LINE",
"18 505 LINE",
"18 324 LINE",
"45 324 LINE",
"45 0 LINE"
);
}
);
width = 358;
},
{
layerId = "5E4DD32C-6BC9-4010-93B4-D8C61BED16DC";
paths = (
{
closed = 1;
nodes = (
"171 0 LINE",
"171 433 LINE",
"315 433 LINE",
"315 500 LINE",
"171 500 LINE",
"171 543 LINE SMOOTH",
"171 633 OFFCURVE",
"188 657 OFFCURVE",
"244 657 CURVE SMOOTH",
"265 657 OFFCURVE",
"305 656 OFFCURVE",
"329 655 CURVE",
"330 720 LINE",
"314 723 OFFCURVE",
"252 727 OFFCURVE",
"228 727 CURVE SMOOTH",
"129 727 OFFCURVE",
"93 688 OFFCURVE",
"93 544 CURVE SMOOTH",
"93 500 LINE",
"30 500 LINE",
"30 433 LINE",
"93 433 LINE",
"93 0 LINE"
);
}
);
width = 331.98039;
}
);
unicode = 0066;
},
{
color = 5;
glyphname = g;
layers = (
{
layerId = "459CA063-FA7D-4205-A795-7B6CE244EAAB";
paths = (
{
closed = 1;
nodes = (
"405 -239 OFFCURVE",
"469 -193 OFFCURVE",
"469 -85 CURVE SMOOTH",
"469 39 OFFCURVE",
"416 59 OFFCURVE",
"292 59 CURVE SMOOTH",
"161 59 OFFCURVE",
"155 64 OFFCURVE",
"155 113 CURVE SMOOTH",
"155 122 OFFCURVE",
"168 158 OFFCURVE",
"178 183 CURVE",
"190 181 OFFCURVE",
"224 179 OFFCURVE",
"232 179 CURVE SMOOTH",
"355 179 OFFCURVE",
"414 220 OFFCURVE",
"414 343 CURVE SMOOTH",
"414 412 OFFCURVE",
"399 442 OFFCURVE",
"374 465 CURVE",
"482 465 LINE",
"482 500 LINE",
"342 497 LINE",
"320 503 OFFCURVE",
"275 510 OFFCURVE",
"236 510 CURVE SMOOTH",
"129 510 OFFCURVE",
"65 462 OFFCURVE",
"65 343 CURVE SMOOTH",
"65 247 OFFCURVE",
"105 206 OFFCURVE",
"151 191 CURVE",
"138 164 OFFCURVE",
"121 124 OFFCURVE",
"121 113 CURVE SMOOTH",
"121 82 OFFCURVE",
"127 58 OFFCURVE",
"143 48 CURVE",
"89 9 OFFCURVE",
"58 -14 OFFCURVE",
"58 -80 CURVE SMOOTH",
"58 -198 OFFCURVE",
"90 -239 OFFCURVE",
"256 -239 CURVE SMOOTH {name = hr00;}"
);
},
{
closed = 1;
nodes = (
"119 -207 OFFCURVE",
"94 -174 OFFCURVE",
"94 -79 CURVE SMOOTH",
"94 -31 OFFCURVE",
"111 -10 OFFCURVE",
"169 30 CURVE",
"171 30 OFFCURVE",
"263 27 OFFCURVE",
"290 27 CURVE SMOOTH",
"391 27 OFFCURVE",
"432 16 OFFCURVE",
"432 -85 CURVE SMOOTH",
"432 -171 OFFCURVE",
"381 -207 OFFCURVE",
"257 -207 CURVE SMOOTH"
);
},
{
closed = 1;
nodes = (
"141 211 OFFCURVE",
"101 243 OFFCURVE",
"101 343 CURVE SMOOTH",
"101 443 OFFCURVE",
"141 478 OFFCURVE",
"235 478 CURVE SMOOTH",
"340 478 OFFCURVE",
"377 443 OFFCURVE",
"377 343 CURVE SMOOTH",
"377 243 OFFCURVE",
"340 211 OFFCURVE",
"235 211 CURVE SMOOTH"
);
}
);
width = 501;
},
{
layerId = "EA657207-4E15-4023-BA2A-6FA5407A60CD";
paths = (
{
closed = 1;
nodes = (
"452 -220 OFFCURVE",
"550 -150 OFFCURVE",
"550 -22 CURVE SMOOTH",
"550 99 OFFCURVE",
"502 138 OFFCURVE",
"362 138 CURVE SMOOTH",
"257 138 OFFCURVE",
"231 140 OFFCURVE",
"231 148 CURVE SMOOTH",
"231 152 OFFCURVE",
"233 157 OFFCURVE",
"235 160 CURVE",
"247 158 OFFCURVE",
"262 157 OFFCURVE",
"273 157 CURVE SMOOTH",
"440 157 OFFCURVE",
"515 188 OFFCURVE",
"515 338 CURVE SMOOTH",
"515 350 OFFCURVE",
"510 368 OFFCURVE",
"506 379 CURVE",
"553 379 LINE",
"553 510 LINE",
"368 507 LINE",
"342 512 OFFCURVE",
"296 518 OFFCURVE",
"265 518 CURVE SMOOTH",
"89 518 OFFCURVE",
"17 471 OFFCURVE",
"17 338 CURVE SMOOTH",
"17 244 OFFCURVE",
"60 205 OFFCURVE",
"98 187 CURVE",
"73 166 OFFCURVE",
"40 132 OFFCURVE",
"40 114 CURVE SMOOTH",
"40 83 OFFCURVE",
"54 54 OFFCURVE",
"76 39 CURVE",
"26 0 OFFCURVE",
"12 -35 OFFCURVE",
"12 -81 CURVE SMOOTH",
"12 -203 OFFCURVE",
"127 -220 OFFCURVE",
"293 -220 CURVE SMOOTH"
);
},
{
closed = 1;
nodes = (
"222 -66 OFFCURVE",
"195 -63 OFFCURVE",
"195 -53 CURVE SMOOTH",
"195 -42 OFFCURVE",
"195 -36 OFFCURVE",
"204 -31 CURVE",
"218 -33 OFFCURVE",
"249 -35 OFFCURVE",
"281 -35 CURVE SMOOTH",
"331 -35 OFFCURVE",
"347 -36 OFFCURVE",
"347 -50 CURVE SMOOTH",
"347 -62 OFFCURVE",
"330 -66 OFFCURVE",
"274 -66 CURVE SMOOTH"
);
},
{
closed = 1;
nodes = (
"239 303 OFFCURVE",
"227 312 OFFCURVE",
"227 339 CURVE SMOOTH",
"227 366 OFFCURVE",
"239 375 OFFCURVE",
"266 375 CURVE SMOOTH",
"293 375 OFFCURVE",
"305 366 OFFCURVE",
"305 339 CURVE SMOOTH",
"305 312 OFFCURVE",
"293 303 OFFCURVE",
"266 303 CURVE SMOOTH"
);
}
);
width = 562;
},
{
layerId = "5E4DD32C-6BC9-4010-93B4-D8C61BED16DC";
paths = (
{
closed = 1;
nodes = (
"406 -235 OFFCURVE",
"489 -189 OFFCURVE",
"489 -75 CURVE SMOOTH",
"489 44 OFFCURVE",
"438 72 OFFCURVE",
"294 72 CURVE SMOOTH",
"183 72 OFFCURVE",
"174 78 OFFCURVE",
"174 117 CURVE SMOOTH",
"174 126 OFFCURVE",
"184 155 OFFCURVE",
"192 174 CURVE",
"203 172 OFFCURVE",
"231 170 OFFCURVE",
"240 170 CURVE SMOOTH",
"369 170 OFFCURVE",
"435 208 OFFCURVE",
"435 339 CURVE SMOOTH",
"435 390 OFFCURVE",
"421 418 OFFCURVE",
"402 437 CURVE",
"496 435 LINE",
"496 501 LINE",
"347 497 LINE",
"324 503 OFFCURVE",
"279 510 OFFCURVE",
"243 510 CURVE SMOOTH",
"132 510 OFFCURVE",
"56 462 OFFCURVE",
"56 339 CURVE SMOOTH",
"56 247 OFFCURVE",
"92 207 OFFCURVE",
"134 188 CURVE",
"119 162 OFFCURVE",
"100 123 OFFCURVE",
"100 109 CURVE SMOOTH",
"100 78 OFFCURVE",
"110 52 OFFCURVE",
"128 39 CURVE",
"76 0 OFFCURVE",
"49 -27 OFFCURVE",
"49 -85 CURVE SMOOTH",
"49 -200 OFFCURVE",
"108 -235 OFFCURVE",
"265 -235 CURVE SMOOTH"
);
},
{
closed = 1;
nodes = (
"156 -169 OFFCURVE",
"126 -145 OFFCURVE",
"126 -78 CURVE SMOOTH",
"126 -40 OFFCURVE",
"140 -22 OFFCURVE",
"181 8 CURVE",
"193 7 OFFCURVE",
"264 4 OFFCURVE",
"288 4 CURVE SMOOTH",
"378 3 OFFCURVE",
"410 -5 OFFCURVE",
"410 -79 CURVE SMOOTH",
"410 -143 OFFCURVE",
"365 -169 OFFCURVE",
"266 -169 CURVE SMOOTH"
);
},
{
closed = 1;
nodes = (
"166 232 OFFCURVE",
"134 262 OFFCURVE",
"134 339 CURVE SMOOTH",
"134 416 OFFCURVE",
"166 447 OFFCURVE",
"243 447 CURVE SMOOTH",
"326 447 OFFCURVE",
"357 416 OFFCURVE",
"357 339 CURVE SMOOTH",
"357 262 OFFCURVE",
"326 232 OFFCURVE",
"243 232 CURVE SMOOTH"
);
}
);
width = 515.23529;
}
);
leftKerningGroup = g;
rightKerningGroup = g;
unicode = 0067;
},
{
color = 5;
glyphname = gcommaaccent;
layers = (
{
components = (
{
name = g;
}
);
layerId = "459CA063-FA7D-4205-A795-7B6CE244EAAB";
paths = (
{
closed = 1;
nodes = (
"244 593 LINE",
"281 782 LINE",
"253 782 LINE",
"207 593 LINE"
);
}
);
width = 501;
},
{
components = (
{
name = g;
}
);
layerId = "EA657207-4E15-4023-BA2A-6FA5407A60CD";
paths = (
{
closed = 1;
nodes = (
"370 563 LINE",
"390 778 LINE",
"228 778 LINE",
"166 563 LINE"
);
}
);
width = 562;
},
{
components = (
{
alignment = -1;
name = g;
}
);
layerId = "5E4DD32C-6BC9-4010-93B4-D8C61BED16DC";
paths = (
{
closed = 1;
nodes = (
"268 589 LINE",
"309 797 LINE",
"241 797 LINE",
"191 589 LINE"
);
}
);
width = 515.23529;
}
);
leftKerningGroup = g;
rightKerningGroup = g;
unicode = 0123;
},
{
color = 5;
glyphname = h;
layers = (
{
layerId = "459CA063-FA7D-4205-A795-7B6CE244EAAB";
paths = (
{
closed = 1;
nodes = (
"114 0 LINE",
"114 437 LINE",
"151 454 OFFCURVE",
"223 477 OFFCURVE",
"288 477 CURVE SMOOTH",
"399 477 OFFCURVE",
"417 428 OFFCURVE",
"417 258 CURVE SMOOTH",
"417 0 LINE",
"452 0 LINE",
"452 260 LINE SMOOTH",
"452 454 OFFCURVE",
"424 509 OFFCURVE",
"288 509 CURVE SMOOTH",
"225 509 OFFCURVE",
"152 487 OFFCURVE",
"114 470 CURVE",
"114 730 LINE",
"79 730 LINE",
"79 0 LINE"
);
}
);
width = 526;
},
{
layerId = "EA657207-4E15-4023-BA2A-6FA5407A60CD";
paths = (
{
closed = 1;
nodes = (
"252 0 LINE",
"252 319 LINE",
"262 322 OFFCURVE",
"281 325 OFFCURVE",
"293 325 CURVE SMOOTH",
"320 325 OFFCURVE",
"331 299 OFFCURVE",
"331 238 CURVE SMOOTH",
"331 0 LINE",
"555 0 LINE",
"555 261 LINE SMOOTH",
"555 451 OFFCURVE",
"504 518 OFFCURVE",
"359 518 CURVE SMOOTH",
"332 518 OFFCURVE",
"282 508 OFFCURVE",
"252 501 CURVE",
"252 690 LINE",
"28 690 LINE",
"28 0 LINE"
);
}
);
width = 578;
},
{
layerId = "5E4DD32C-6BC9-4010-93B4-D8C61BED16DC";
paths = (
{
closed = 1;
nodes = (
"149 0 LINE",
"149 411 LINE",
"179 423 OFFCURVE",
"237 440 OFFCURVE",
"288 440 CURVE SMOOTH",
"379 440 OFFCURVE",
"393 391 OFFCURVE",
"393 262 CURVE SMOOTH",
"393 0 LINE",
"471 0 LINE",
"471 265 LINE SMOOTH",
"471 441 OFFCURVE",
"440 510 OFFCURVE",
"302 510 CURVE SMOOTH",
"249 510 OFFCURVE",
"184 489 OFFCURVE",
"149 473 CURVE",
"149 717 LINE",
"72 717 LINE",
"72 0 LINE"
);
}
);
width = 537.64706;
}
);
leftKerningGroup = h;
rightKerningGroup = n;
unicode = 0068;
},
{
color = 5;
glyphname = hbar;
layers = (
{
components = (
{
name = h;
}
);
layerId = "459CA063-FA7D-4205-A795-7B6CE244EAAB";
paths = (
{
closed = 1;
nodes = (
"275 612 LINE",
"275 644 LINE",
"8 644 LINE",
"8 612 LINE"
);
}
);
width = 526;
},
{
components = (
{
name = h;
}
);
layerId = "EA657207-4E15-4023-BA2A-6FA5407A60CD";
paths = (
{
closed = 1;
nodes = (
"313 545 LINE",
"313 652 LINE",
"-12 652 LINE",
"-12 545 LINE"
);
}
);
width = 578;
},
{
components = (
{
alignment = -1;
name = h;
}
);
layerId = "5E4DD32C-6BC9-4010-93B4-D8C61BED16DC";
paths = (
{
closed = 1;
nodes = (
"303 577 LINE",
"303 646 LINE",
"10 646 LINE",
"10 577 LINE"
);
}
);
width = 537.64706;
}
);
leftKerningGroup = h;
rightKerningGroup = n;
unicode = 0127;
},
{
color = 5;
glyphname = i;
layers = (
{
layerId = "459CA063-FA7D-4205-A795-7B6CE244EAAB";
paths = (
{
closed = 1;
nodes = (
"114 0 LINE",
"114 500 LINE",
"79 500 LINE",
"79 0 LINE"
);
},
{
closed = 1;
nodes = (
"114 645 LINE",
"114 700 LINE",
"79 700 LINE",
"79 645 LINE"
);
}
);
width = 193;
},
{
layerId = "EA657207-4E15-4023-BA2A-6FA5407A60CD";
paths = (
{
closed = 1;
nodes = (
"252 0 LINE",
"252 505 LINE",
"28 505 LINE",
"28 0 LINE"
);
},
{
closed = 1;
nodes = (
"253 537 LINE",
"253 690 LINE",
"27 690 LINE",
"27 537 LINE"
);
}
);
width = 280;
},
{
layerId = "5E4DD32C-6BC9-4010-93B4-D8C61BED16DC";
paths = (
{
closed = 1;
nodes = (
"149 0 LINE",
"149 500 LINE",
"72 500 LINE",
"72 0 LINE"
);
},
{
closed = 1;
nodes = (
"149 610 LINE",
"149 700 LINE",
"72 700 LINE",
"72 610 LINE"
);
}
);
width = 221.03922;
}
);
leftKerningGroup = i;
rightKerningGroup = i;
unicode = 0069;
},
{
color = 5;
glyphname = dotlessi;
layers = (
{
layerId = "459CA063-FA7D-4205-A795-7B6CE244EAAB";
paths = (
{
closed = 1;
nodes = (
"114 0 LINE",
"114 500 LINE",
"79 500 LINE",
"79 0 LINE"
);
}
);
width = 193;
},
{
layerId = "EA657207-4E15-4023-BA2A-6FA5407A60CD";
paths = (
{
closed = 1;
nodes = (
"252 0 LINE",
"252 505 LINE",
"28 505 LINE",
"28 0 LINE"
);
}
);
width = 280;
},
{
layerId = "5E4DD32C-6BC9-4010-93B4-D8C61BED16DC";
paths = (
{
closed = 1;
nodes = (
"149 0 LINE",
"149 500 LINE",
"72 500 LINE",
"72 0 LINE"
);
}
);
width = 221.03922;
}
);
leftKerningGroup = i;
rightKerningGroup = i;
unicode = 0131;
},
{
color = 5;
glyphname = j;
layers = (
{
layerId = "459CA063-FA7D-4205-A795-7B6CE244EAAB";
paths = (
{
closed = 1;
nodes = (
"84 -152 OFFCURVE",
"114 -107 OFFCURVE",
"114 5 CURVE SMOOTH",
"114 500 LINE",
"79 500 LINE",
"79 6 LINE SMOOTH",
"79 -98 OFFCURVE",
"55 -125 OFFCURVE",
"-59 -187 CURVE",
"-45 -218 LINE"
);
},
{
closed = 1;
nodes = (
"114 645 LINE",
"114 700 LINE",
"79 700 LINE",
"79 645 LINE"
);
}
);
width = 192;
},
{
layerId = "EA657207-4E15-4023-BA2A-6FA5407A60CD";
paths = (
{
closed = 1;
nodes = (
"209 -158 OFFCURVE",
"252 -128 OFFCURVE",
"252 73 CURVE SMOOTH",
"252 505 LINE",
"28 505 LINE",
"28 66 LINE SMOOTH",
"28 -6 OFFCURVE",
"20 -12 OFFCURVE",
"-61 -50 CURVE",
"11 -220 LINE"
);
},
{
closed = 1;
nodes = (
"253 538 LINE",
"253 690 LINE",
"27 690 LINE",
"27 538 LINE"
);
}
);
width = 280;
},
{
layerId = "5E4DD32C-6BC9-4010-93B4-D8C61BED16DC";
paths = (
{
closed = 1;
nodes = (
"116 -155 OFFCURVE",
"150 -111 OFFCURVE",
"150 13 CURVE SMOOTH",
"150 500 LINE",
"72 500 LINE",
"72 14 LINE SMOOTH",
"72 -82 OFFCURVE",
"52 -104 OFFCURVE",
"-48 -163 CURVE",
"-17 -223 LINE"
);
},
{
closed = 1;
nodes = (
"150 610 LINE",
"150 700 LINE",
"72 700 LINE",
"72 610 LINE"
);
}
);
width = 220.90196;
}
);
leftKerningGroup = i;
rightKerningGroup = i;
unicode = 006A;
},
{
color = 5;
glyphname = dotlessj;
layers = (
{
layerId = "459CA063-FA7D-4205-A795-7B6CE244EAAB";
paths = (
{
closed = 1;
nodes = (
"84 -152 OFFCURVE",
"114 -107 OFFCURVE",
"114 5 CURVE SMOOTH",
"114 500 LINE",
"79 500 LINE",
"79 6 LINE SMOOTH",
"79 -92 OFFCURVE",
"55 -125 OFFCURVE",
"-59 -187 CURVE",
"-45 -218 LINE"
);
}
);
width = 192;
},
{
layerId = "EA657207-4E15-4023-BA2A-6FA5407A60CD";
paths = (
{
closed = 1;
nodes = (
"209 -158 OFFCURVE",
"252 -128 OFFCURVE",
"252 73 CURVE SMOOTH",
"252 505 LINE",
"28 505 LINE",
"28 66 LINE SMOOTH",
"28 -6 OFFCURVE",
"20 -12 OFFCURVE",
"-61 -50 CURVE",
"11 -220 LINE"
);
}
);
width = 280;
},
{
layerId = "5E4DD32C-6BC9-4010-93B4-D8C61BED16DC";
paths = (
{
closed = 1;
nodes = (
"116 -155 OFFCURVE",
"150 -111 OFFCURVE",
"150 13 CURVE SMOOTH",
"150 500 LINE",
"72 500 LINE",
"72 14 LINE SMOOTH",
"72 -79 OFFCURVE",
"52 -104 OFFCURVE",
"-48 -163 CURVE",
"-17 -223 LINE"
);
}
);
width = 220.90196;
}
);
unicode = 0237;
},
{
color = 5;
glyphname = k;
layers = (
{
layerId = "459CA063-FA7D-4205-A795-7B6CE244EAAB";
paths = (
{
closed = 1;
nodes = (
"114 0 LINE",
"114 257 LINE",
"210 257 LINE",
"390 0 LINE",
"432 0 LINE",
"240 274 LINE",
"424 500 LINE",
"382 500 LINE",
"210 289 LINE",
"114 289 LINE",
"114 730 LINE",
"79 730 LINE",
"79 0 LINE"
);
}
);
width = 455;
},
{
layerId = "EA657207-4E15-4023-BA2A-6FA5407A60CD";
paths = (
{
closed = 1;
nodes = (
"252 0 LINE",
"252 148 LINE",
"282 148 LINE",
"329 0 LINE",
"553 0 LINE",
"475 261 LINE",
"547 505 LINE",
"326 505 LINE",
"281 343 LINE",
"252 343 LINE",
"252 690 LINE",
"28 690 LINE",
"28 0 LINE"
);
}
);
width = 553;
},
{
layerId = "5E4DD32C-6BC9-4010-93B4-D8C61BED16DC";
paths = (
{
closed = 1;
nodes = (
"149 0 LINE",
"149 226 LINE",
"228 230 LINE",
"374 0 LINE",
"463 0 LINE",
"294 269 LINE",
"455 500 LINE",
"366 500 LINE",
"226 298 LINE",
"149 295 LINE",
"149 717 LINE",
"72 717 LINE",
"72 0 LINE"
);
}
);
width = 480.88235;
}
);
leftKerningGroup = h;
rightKerningGroup = k;
unicode = 006B;
},
{
color = 5;
glyphname = kcommaaccent;
layers = (
{
components = (
{
name = k;
}
);
layerId = "459CA063-FA7D-4205-A795-7B6CE244EAAB";
paths = (
{
closed = 1;
nodes = (
"201 -267 LINE",
"247 -78 LINE",
"210 -78 LINE",
"173 -267 LINE"
);
}
);
width = 455;
},
{
components = (
{
name = k;
}
);
layerId = "EA657207-4E15-4023-BA2A-6FA5407A60CD";
paths = (
{
closed = 1;
nodes = (
"340 -260 LINE",
"402 -45 LINE",
"198 -45 LINE",
"178 -260 LINE"
);
}
);
width = 553;
},
{
components = (
{
alignment = -1;
name = k;
}
);
layerId = "5E4DD32C-6BC9-4010-93B4-D8C61BED16DC";
paths = (
{
closed = 1;
nodes = (
"162 -286 LINE",
"212 -78 LINE",
"135 -78 LINE",
"94 -286 LINE"
);
}
);
width = 480.88235;
}
);
leftKerningGroup = h;
rightKerningGroup = k;
unicode = 0137;
},
{
color = 5;
glyphname = l;
layers = (
{
layerId = "459CA063-FA7D-4205-A795-7B6CE244EAAB";
paths = (
{
closed = 1;
nodes = (
"120 0 LINE",
"120 730 LINE",
"85 730 LINE",
"85 0 LINE"
);
}
);
width = 205;
},
{
layerId = "EA657207-4E15-4023-BA2A-6FA5407A60CD";
paths = (
{
closed = 1;
nodes = (
"252 0 LINE",
"252 690 LINE",
"28 690 LINE",
"28 0 LINE"
);
}
);
width = 280;
},
{
layerId = "5E4DD32C-6BC9-4010-93B4-D8C61BED16DC";
paths = (
{
closed = 1;
nodes = (
"155 0 LINE",
"155 717 LINE",
"78 717 LINE",
"78 0 LINE"
);
}
);
width = 233.03922;
}
);
leftKerningGroup = l;
rightKerningGroup = l;
unicode = 006C;
},
{
color = 5;
glyphname = lcaron;
layers = (
{
components = (
{
name = l;
}
);
layerId = "459CA063-FA7D-4205-A795-7B6CE244EAAB";
paths = (
{
closed = 1;
nodes = (
"214 498 LINE",
"260 687 LINE",
"223 687 LINE",
"186 498 LINE"
);
}
);
width = 199;
},
{
components = (
{
name = l;
}
);
layerId = "EA657207-4E15-4023-BA2A-6FA5407A60CD";
paths = (
{
closed = 1;
nodes = (
"454 454 LINE",
"516 669 LINE",
"312 669 LINE",
"292 454 LINE"
);
}
);
width = 459;
},
{
components = (
{
alignment = -1;
name = l;
}
);
layerId = "5E4DD32C-6BC9-4010-93B4-D8C61BED16DC";
paths = (
{
closed = 1;
nodes = (
"285 475 LINE",
"335 683 LINE",
"258 683 LINE",
"217 475 LINE"
);
}
);
width = 275.78431;
}
);
leftKerningGroup = l;
rightKerningGroup = lcaron;
unicode = 013E;
},
{
color = 5;
glyphname = lslash;
layers = (
{
components = (
{
name = l;
transform = "{1, 0, 0, 1, 26, 0}";
}
);
layerId = "459CA063-FA7D-4205-A795-7B6CE244EAAB";
paths = (
{
closed = 1;
nodes = (
"246 414 LINE",
"227 441 LINE",
"14 292 LINE",
"33 265 LINE"
);
}
);
width = 263;
},
{
components = (
{
name = l;
transform = "{1, 0, 0, 1, 13, 0}";
}
);
layerId = "EA657207-4E15-4023-BA2A-6FA5407A60CD";
paths = (
{
closed = 1;
nodes = (
"304 281 LINE",
"304 468 LINE",
"4 318 LINE",
"4 131 LINE"
);
}
);
width = 308;
},
{
components = (
{
alignment = -1;
name = l;
transform = "{1, 0, 0, 1, 37, 0}";
}
);
layerId = "5E4DD32C-6BC9-4010-93B4-D8C61BED16DC";
paths = (
{
closed = 1;
nodes = (
"304 409 LINE",
"265 463 LINE",
"9 284 LINE",
"48 230 LINE"
);
}
);
width = 313.90196;
}
);
leftKerningGroup = l;
rightKerningGroup = l;
unicode = 0142;
},
{
color = 5;
glyphname = m;
layers = (
{
layerId = "459CA063-FA7D-4205-A795-7B6CE244EAAB";
paths = (
{
closed = 1;
nodes = (
"114 0 LINE",
"114 427 LINE",
"146 449 OFFCURVE",
"213 477 OFFCURVE",
"278 477 CURVE SMOOTH",
"389 477 OFFCURVE",
"407 428 OFFCURVE",
"407 258 CURVE SMOOTH",
"407 0 LINE",
"442 0 LINE",
"442 260 LINE SMOOTH",
"442 335 OFFCURVE",
"438 390 OFFCURVE",
"424 428 CURVE",
"456 449 OFFCURVE",
"525 477 OFFCURVE",
"596 477 CURVE SMOOTH",
"707 477 OFFCURVE",
"725 428 OFFCURVE",
"725 258 CURVE SMOOTH",
"725 0 LINE",
"760 0 LINE",
"760 260 LINE SMOOTH",
"760 454 OFFCURVE",
"732 509 OFFCURVE",
"596 509 CURVE SMOOTH",
"524 509 OFFCURVE",
"449 478 OFFCURVE",
"412 455 CURVE",
"388 493 OFFCURVE",
"352 509 OFFCURVE",
"278 509 CURVE SMOOTH",
"215 509 OFFCURVE",
"148 481 OFFCURVE",
"114 460 CURVE",
"114 500 LINE",
"79 500 LINE",
"79 0 LINE"
);
}
);
width = 834;
},
{
layerId = "EA657207-4E15-4023-BA2A-6FA5407A60CD";
paths = (
{
closed = 1;
nodes = (
"252 0 LINE",
"252 320 LINE",
"259 322 OFFCURVE",
"274 325 OFFCURVE",
"289 325 CURVE SMOOTH",
"313 325 OFFCURVE",
"321 289 OFFCURVE",
"321 228 CURVE SMOOTH",
"321 0 LINE",
"545 0 LINE",
"545 232 LINE SMOOTH",
"545 267 OFFCURVE",
"543 304 OFFCURVE",
"538 319 CURVE",
"548 322 OFFCURVE",
"566 325 OFFCURVE",
"581 325 CURVE SMOOTH",
"605 325 OFFCURVE",
"614 289 OFFCURVE",
"614 228 CURVE SMOOTH",
"614 0 LINE",
"838 0 LINE",
"838 255 LINE SMOOTH",
"838 429 OFFCURVE",
"798 518 OFFCURVE",
"635 518 CURVE SMOOTH",
"577 518 OFFCURVE",
"516 492 OFFCURVE",
"485 473 CURVE",
"462 498 OFFCURVE",
"429 518 OFFCURVE",
"374 518 CURVE SMOOTH",
"332 518 OFFCURVE",
"279 496 OFFCURVE",
"251 479 CURVE",
"251 505 LINE",
"28 505 LINE",
"28 0 LINE"
);
}
);
width = 861;
},
{
layerId = "5E4DD32C-6BC9-4010-93B4-D8C61BED16DC";
paths = (
{
closed = 1;
nodes = (
"149 0 LINE",
"149 404 LINE",
"176 420 OFFCURVE",
"230 440 OFFCURVE",
"281 440 CURVE SMOOTH",
"371 440 OFFCURVE",
"385 393 OFFCURVE",
"385 258 CURVE SMOOTH",
"385 0 LINE",
"462 0 LINE",
"462 260 LINE SMOOTH",
"462 314 OFFCURVE",
"459 369 OFFCURVE",
"450 404 CURVE",
"478 420 OFFCURVE",
"535 440 OFFCURVE",
"588 440 CURVE SMOOTH",
"677 440 OFFCURVE",
"692 391 OFFCURVE",
"692 262 CURVE SMOOTH",
"692 0 LINE",
"769 0 LINE",
"769 265 LINE SMOOTH",
"769 445 OFFCURVE",
"736 510 OFFCURVE",
"600 510 CURVE SMOOTH",
"536 510 OFFCURVE",
"462 481 OFFCURVE",
"423 459 CURVE",
"397 495 OFFCURVE",
"359 510 OFFCURVE",
"293 510 CURVE SMOOTH",
"242 510 OFFCURVE",
"181 484 OFFCURVE",
"149 465 CURVE",
"149 500 LINE",
"72 500 LINE",
"72 0 LINE"
);
}
);
width = 836.15686;
}
);
leftKerningGroup = n;
rightKerningGroup = n;
unicode = 006D;
},
{
color = 5;
glyphname = n;
layers = (
{
layerId = "459CA063-FA7D-4205-A795-7B6CE244EAAB";
paths = (
{
closed = 1;
nodes = (
"114 0 LINE",
"114 427 LINE",
"151 449 OFFCURVE",
"224 477 OFFCURVE",
"289 477 CURVE SMOOTH",
"400 477 OFFCURVE",
"418 428 OFFCURVE",
"418 258 CURVE SMOOTH",
"418 0 LINE",
"453 0 LINE",
"453 260 LINE SMOOTH",
"453 454 OFFCURVE",
"425 509 OFFCURVE",
"289 509 CURVE SMOOTH",
"226 509 OFFCURVE",
"152 481 OFFCURVE",
"114 460 CURVE",
"114 500 LINE",
"79 500 LINE",
"79 0 LINE"
);
}
);
width = 527;
},
{
layerId = "EA657207-4E15-4023-BA2A-6FA5407A60CD";
paths = (
{
closed = 1;
nodes = (
"252 0 LINE",
"252 318 LINE",
"262 321 OFFCURVE",
"281 325 OFFCURVE",
"295 325 CURVE SMOOTH",
"319 325 OFFCURVE",
"331 299 OFFCURVE",
"331 238 CURVE SMOOTH",
"331 0 LINE",
"555 0 LINE",
"555 253 LINE SMOOTH",
"555 451 OFFCURVE",
"504 518 OFFCURVE",
"361 518 CURVE SMOOTH",
"327 518 OFFCURVE",
"278 496 OFFCURVE",
"251 479 CURVE",
"251 505 LINE",
"28 505 LINE",
"28 0 LINE"
);
}
);
width = 578;
},
{
layerId = "5E4DD32C-6BC9-4010-93B4-D8C61BED16DC";
paths = (
{
closed = 1;
nodes = (
"149 0 LINE",
"149 404 LINE",
"179 420 OFFCURVE",
"237 440 OFFCURVE",
"288 440 CURVE SMOOTH",
"379 440 OFFCURVE",
"394 391 OFFCURVE",
"394 262 CURVE SMOOTH",
"394 0 LINE",
"472 0 LINE",
"472 265 LINE SMOOTH",
"472 441 OFFCURVE",
"440 510 OFFCURVE",
"302 510 CURVE SMOOTH",
"248 510 OFFCURVE",
"183 484 OFFCURVE",
"149 465 CURVE",
"149 500 LINE",
"72 500 LINE",
"72 0 LINE"
);
}
);
width = 538.21569;
}
);
leftKerningGroup = n;
rightKerningGroup = n;
unicode = 006E;
},
{
color = 5;
glyphname = ncommaaccent;
layers = (
{
components = (
{
name = n;
}
);
layerId = "459CA063-FA7D-4205-A795-7B6CE244EAAB";
paths = (
{
closed = 1;
nodes = (
"247 -267 LINE",
"293 -78 LINE",
"256 -78 LINE",
"219 -267 LINE"
);
}
);
width = 527;
},
{
components = (
{
name = n;
}
);
layerId = "EA657207-4E15-4023-BA2A-6FA5407A60CD";
paths = (
{
closed = 1;
nodes = (
"341 -260 LINE",
"403 -45 LINE",
"199 -45 LINE",
"179 -260 LINE"
);
}
);
width = 578;
},
{
components = (
{
alignment = -1;
name = n;
}
);
layerId = "5E4DD32C-6BC9-4010-93B4-D8C61BED16DC";
paths = (
{
closed = 1;
nodes = (
"188 -286 LINE",
"238 -78 LINE",
"161 -78 LINE",
"120 -286 LINE"
);
}
);
width = 538.21569;
}
);
leftKerningGroup = n;
rightKerningGroup = n;
unicode = 0146;
},
{
color = 5;
glyphname = eng;
layers = (
{
layerId = "459CA063-FA7D-4205-A795-7B6CE244EAAB";
paths = (
{
closed = 1;
nodes = (
"424 -161 OFFCURVE",
"454 -122 OFFCURVE",
"454 -7 CURVE SMOOTH",
"454 260 LINE SMOOTH",
"454 444 OFFCURVE",
"426 509 OFFCURVE",
"290 509 CURVE SMOOTH",
"227 509 OFFCURVE",
"153 481 OFFCURVE",
"114 460 CURVE",
"114 500 LINE",
"79 500 LINE",
"79 0 LINE",
"114 0 LINE",
"114 427 LINE",
"151 449 OFFCURVE",
"225 477 OFFCURVE",
"290 477 CURVE SMOOTH",
"401 477 OFFCURVE",
"419 418 OFFCURVE",
"419 258 CURVE SMOOTH",
"419 -6 LINE SMOOTH",
"419 -104 OFFCURVE",
"395 -137 OFFCURVE",
"291 -199 CURVE",
"305 -230 LINE"
);
}
);
width = 528;
},
{
layerId = "EA657207-4E15-4023-BA2A-6FA5407A60CD";
paths = (
{
closed = 1;
nodes = (
"512 -158 OFFCURVE",
"555 -128 OFFCURVE",
"555 73 CURVE SMOOTH",
"555 253 LINE SMOOTH",
"555 451 OFFCURVE",
"504 518 OFFCURVE",
"361 518 CURVE SMOOTH",
"327 518 OFFCURVE",
"278 496 OFFCURVE",
"251 479 CURVE",
"251 505 LINE",
"28 505 LINE",
"28 0 LINE",
"252 0 LINE",
"252 318 LINE",
"262 321 OFFCURVE",
"281 325 OFFCURVE",
"295 325 CURVE SMOOTH",
"319 325 OFFCURVE",
"331 299 OFFCURVE",
"331 238 CURVE SMOOTH",
"331 66 LINE SMOOTH",
"331 -6 OFFCURVE",
"323 -12 OFFCURVE",
"242 -50 CURVE",
"314 -220 LINE"
);
}
);
width = 578;
},
{
layerId = "5E4DD32C-6BC9-4010-93B4-D8C61BED16DC";
paths = (
{
closed = 1;
nodes = (
"443 -168 OFFCURVE",
"472 -127 OFFCURVE",
"472 -2 CURVE SMOOTH",
"472 260 LINE SMOOTH",
"472 431 OFFCURVE",
"438 510 OFFCURVE",
"305 510 CURVE SMOOTH",
"254 510 OFFCURVE",
"186 486 OFFCURVE",
"149 467 CURVE",
"149 500 LINE",
"71 500 LINE",
"71 0 LINE",
"149 0 LINE",
"149 403 LINE",
"182 419 OFFCURVE",
"245 439 OFFCURVE",
"293 439 CURVE SMOOTH",
"379 439 OFFCURVE",
"394 379 OFFCURVE",
"394 259 CURVE SMOOTH",
"394 -3 LINE SMOOTH",
"394 -90 OFFCURVE",
"375 -115 OFFCURVE",
"277 -172 CURVE",
"311 -238 LINE"
);
}
);
width = 538.35294;
}
);
leftKerningGroup = n;
rightKerningGroup = n;
unicode = 014B;
},
{
color = 5;
glyphname = o;
layers = (
{
layerId = "459CA063-FA7D-4205-A795-7B6CE244EAAB";
paths = (
{
closed = 1;
nodes = (
"428 -9 OFFCURVE",
"466 58 OFFCURVE",
"466 259 CURVE SMOOTH",
"466 444 OFFCURVE",
"411 509 OFFCURVE",
"263 509 CURVE SMOOTH",
"115 509 OFFCURVE",
"60 444 OFFCURVE",
"60 259 CURVE SMOOTH",
"60 58 OFFCURVE",
"98 -9 OFFCURVE",
"263 -9 CURVE SMOOTH"
);
},
{
closed = 1;
nodes = (
"115 23 OFFCURVE",
"97 87 OFFCURVE",
"97 259 CURVE SMOOTH",
"97 427 OFFCURVE",
"135 477 OFFCURVE",
"263 477 CURVE SMOOTH",
"391 477 OFFCURVE",
"429 427 OFFCURVE",
"429 259 CURVE SMOOTH",
"429 87 OFFCURVE",
"411 23 OFFCURVE",
"263 23 CURVE SMOOTH"
);
}
);
width = 526;
},
{
layerId = "EA657207-4E15-4023-BA2A-6FA5407A60CD";
paths = (
{
closed = 1;
nodes = (
"455 -13 OFFCURVE",
"549 58 OFFCURVE",
"549 253 CURVE SMOOTH",
"549 445 OFFCURVE",
"455 518 OFFCURVE",
"282 518 CURVE SMOOTH",
"109 518 OFFCURVE",
"15 445 OFFCURVE",
"15 253 CURVE SMOOTH",
"15 58 OFFCURVE",
"109 -13 OFFCURVE",
"282 -13 CURVE SMOOTH"
);
},
{
closed = 1;
nodes = (
"251 168 OFFCURVE",
"241 188 OFFCURVE",
"241 253 CURVE SMOOTH",
"241 317 OFFCURVE",
"251 337 OFFCURVE",
"282 337 CURVE SMOOTH",
"313 337 OFFCURVE",
"323 318 OFFCURVE",
"323 253 CURVE SMOOTH",
"323 188 OFFCURVE",
"313 168 OFFCURVE",
"282 168 CURVE SMOOTH"
);
}
);
width = 564;
},
{
layerId = "5E4DD32C-6BC9-4010-93B4-D8C61BED16DC";
paths = (
{
closed = 1;
nodes = (
"433 -10 OFFCURVE",
"479 75 OFFCURVE",
"479 256 CURVE SMOOTH",
"479 427 OFFCURVE",
"424 510 OFFCURVE",
"264 510 CURVE SMOOTH",
"105 510 OFFCURVE",
"50 427 OFFCURVE",
"50 256 CURVE SMOOTH",
"50 75 OFFCURVE",
"95 -10 OFFCURVE",
"264 -10 CURVE SMOOTH"
);
},
{
closed = 1;
nodes = (
"148 57 OFFCURVE",
"129 116 OFFCURVE",
"129 256 CURVE SMOOTH",
"129 393 OFFCURVE",
"160 443 OFFCURVE",
"264 443 CURVE SMOOTH",
"369 443 OFFCURVE",
"399 393 OFFCURVE",
"399 256 CURVE SMOOTH",
"399 116 OFFCURVE",
"380 57 OFFCURVE",
"264 57 CURVE SMOOTH"
);
}
);
width = 528.58824;
}
);
leftKerningGroup = o;
rightKerningGroup = o;
unicode = 006F;
},
{
color = 5;
glyphname = oslash;
layers = (
{
components = (
{
name = o;
}
);
layerId = "459CA063-FA7D-4205-A795-7B6CE244EAAB";
paths = (
{
closed = 1;
nodes = (
"423 594 LINE",
"393 605 LINE",
"212 164 LINE",
"238 142 LINE"
);
},
{
closed = 1;
nodes = (
"299 292 LINE",
"274 314 LINE",
"103 -103 LINE",
"133 -114 LINE"
);
}
);
width = 526;
},
{
components = (
{
name = o;
}
);
layerId = "EA657207-4E15-4023-BA2A-6FA5407A60CD";
paths = (
{
closed = 1;
nodes = (
"566 546 LINE",
"349 589 LINE",
"271 454 LINE",
"482 398 LINE"
);
},
{
closed = 1;
nodes = (
"259 8 LINE",
"63 89 LINE",
"-5 -30 LINE",
"212 -74 LINE"
);
}
);
width = 564;
},
{
components = (
{
alignment = -1;
name = o;
}
);
layerId = "5E4DD32C-6BC9-4010-93B4-D8C61BED16DC";
paths = (
{
closed = 1;
nodes = (
"432 587 LINE",
"380 606 LINE",
"209 189 LINE",
"252 147 LINE"
);
},
{
closed = 1;
nodes = (
"308 286 LINE",
"262 320 LINE",
"94 -92 LINE",
"146 -111 LINE"
);
}
);
width = 528.58824;
}
);
leftKerningGroup = o;
rightKerningGroup = o;
unicode = 00F8;
},
{
color = 5;
glyphname = oe;
layers = (
{
layerId = "459CA063-FA7D-4205-A795-7B6CE244EAAB";
paths = (
{
closed = 1;
nodes = (
"371 -9 OFFCURVE",
"424 24 OFFCURVE",
"448 98 CURVE",
"473 30 OFFCURVE",
"523 -9 OFFCURVE",
"617 -9 CURVE SMOOTH",
"670 -9 OFFCURVE",
"754 -4 OFFCURVE",
"802 0 CURVE",
"800 32 LINE",
"752 28 OFFCURVE",
"669 23 OFFCURVE",
"618 23 CURVE SMOOTH",
"502 23 OFFCURVE",
"466 98 OFFCURVE",
"466 236 CURVE",
"821 236 LINE",
"821 269 LINE",
"821 442 OFFCURVE",
"754 509 OFFCURVE",
"631 509 CURVE SMOOTH",
"550 509 OFFCURVE",
"482 478 OFFCURVE",
"449 389 CURVE",
"422 474 OFFCURVE",
"361 509 OFFCURVE",
"265 509 CURVE SMOOTH",
"117 509 OFFCURVE",
"60 446 OFFCURVE",
"60 261 CURVE SMOOTH",
"60 60 OFFCURVE",
"99 -9 OFFCURVE",
"265 -9 CURVE SMOOTH"
);
},
{
closed = 1;
nodes = (
"118 23 OFFCURVE",
"97 89 OFFCURVE",
"97 261 CURVE SMOOTH",
"97 429 OFFCURVE",
"137 477 OFFCURVE",
"265 477 CURVE SMOOTH",
"376 477 OFFCURVE",
"429 419 OFFCURVE",
"429 259 CURVE SMOOTH",
"429 100 OFFCURVE",
"412 23 OFFCURVE",
"265 23 CURVE SMOOTH"
);
},
{
closed = 1;
nodes = (
"466 419 OFFCURVE",
"531 477 OFFCURVE",
"631 477 CURVE SMOOTH",
"735 477 OFFCURVE",
"784 421 OFFCURVE",
"784 268 CURVE",
"466 268 LINE"
);
}
);
width = 873;
},
{
layerId = "EA657207-4E15-4023-BA2A-6FA5407A60CD";
paths = (
{
closed = 1;
nodes = (
"354 -13 OFFCURVE",
"402 1 OFFCURVE",
"434 31 CURVE",
"461 2 OFFCURVE",
"506 -13 OFFCURVE",
"580 -13 CURVE SMOOTH",
"670 -13 OFFCURVE",
"779 4 OFFCURVE",
"836 16 CURVE",
"831 161 LINE",
"770 157 OFFCURVE",
"663 152 OFFCURVE",
"596 152 CURVE SMOOTH",
"562 152 OFFCURVE",
"548 162 OFFCURVE",
"547 187 CURVE",
"836 187 LINE",
"846 286 LINE",
"846 445 OFFCURVE",
"758 518 OFFCURVE",
"585 518 CURVE SMOOTH",
"515 518 OFFCURVE",
"470 501 OFFCURVE",
"442 470 CURVE",
"411 502 OFFCURVE",
"361 518 OFFCURVE",
"282 518 CURVE SMOOTH",
"109 518 OFFCURVE",
"15 445 OFFCURVE",
"15 253 CURVE SMOOTH",
"15 58 OFFCURVE",
"109 -13 OFFCURVE",
"282 -13 CURVE SMOOTH"
);
},
{
closed = 1;
nodes = (
"251 168 OFFCURVE",
"241 188 OFFCURVE",
"241 253 CURVE SMOOTH",
"241 317 OFFCURVE",
"251 337 OFFCURVE",
"282 337 CURVE SMOOTH",
"313 337 OFFCURVE",
"323 318 OFFCURVE",
"323 253 CURVE SMOOTH",
"323 188 OFFCURVE",
"313 168 OFFCURVE",
"282 168 CURVE SMOOTH"
);
},
{
closed = 1;
nodes = (
"547 346 OFFCURVE",
"555 362 OFFCURVE",
"585 362 CURVE SMOOTH",
"612 362 OFFCURVE",
"624 349 OFFCURVE",
"624 309 CURVE",
"546 309 LINE"
);
}
);
width = 860;
},
{
layerId = "5E4DD32C-6BC9-4010-93B4-D8C61BED16DC";
paths = (
{
closed = 1;
nodes = (
"356 -10 OFFCURVE",
"408 16 OFFCURVE",
"437 80 CURVE",
"466 18 OFFCURVE",
"516 -10 OFFCURVE",
"599 -10 CURVE SMOOTH",
"658 -10 OFFCURVE",
"745 -1 OFFCURVE",
"794 7 CURVE",
"792 70 LINE",
"746 66 OFFCURVE",
"663 61 OFFCURVE",
"609 61 CURVE SMOOTH",
"511 61 OFFCURVE",
"479 114 OFFCURVE",
"479 217 CURVE",
"807 217 LINE",
"812 276 LINE",
"812 440 OFFCURVE",
"743 510 OFFCURVE",
"609 510 CURVE SMOOTH",
"535 510 OFFCURVE",
"475 484 OFFCURVE",
"440 407 CURVE",
"409 481 OFFCURVE",
"352 510 OFFCURVE",
"265 510 CURVE SMOOTH",
"106 510 OFFCURVE",
"50 428 OFFCURVE",
"50 256 CURVE SMOOTH",
"50 76 OFFCURVE",
"96 -10 OFFCURVE",
"265 -10 CURVE SMOOTH"
);
},
{
closed = 1;
nodes = (
"150 60 OFFCURVE",
"129 119 OFFCURVE",
"129 256 CURVE SMOOTH",
"129 391 OFFCURVE",
"161 439 OFFCURVE",
"265 439 CURVE SMOOTH",
"360 439 OFFCURVE",
"399 386 OFFCURVE",
"399 255 CURVE SMOOTH",
"399 125 OFFCURVE",
"381 60 OFFCURVE",
"265 60 CURVE SMOOTH"
);
},
{
closed = 1;
nodes = (
"478 394 OFFCURVE",
"525 440 OFFCURVE",
"609 440 CURVE SMOOTH",
"696 440 OFFCURVE",
"734 397 OFFCURVE",
"734 280 CURVE",
"478 280 LINE"
);
}
);
width = 856.17647;
}
);
leftKerningGroup = o;
rightKerningGroup = e;
unicode = 0153;
},
{
color = 5;
glyphname = p;
layers = (
{
layerId = "459CA063-FA7D-4205-A795-7B6CE244EAAB";
paths = (
{
closed = 1;
nodes = (
"114 -230 LINE",
"114 5 LINE",
"137 0 OFFCURVE",
"192 -9 OFFCURVE",
"246 -9 CURVE SMOOTH",
"401 -9 OFFCURVE",
"458 72 OFFCURVE",
"458 258 CURVE SMOOTH",
"458 428 OFFCURVE",
"409 509 OFFCURVE",
"287 509 CURVE SMOOTH",
"221 509 OFFCURVE",
"149 480 OFFCURVE",
"114 458 CURVE",
"114 500 LINE",
"79 500 LINE",
"79 -230 LINE"
);
},
{
closed = 1;
nodes = (
"192 23 OFFCURVE",
"136 33 OFFCURVE",
"114 37 CURVE",
"114 424 LINE",
"151 447 OFFCURVE",
"224 477 OFFCURVE",
"287 477 CURVE SMOOTH",
"373 477 OFFCURVE",
"421 419 OFFCURVE",
"421 258 CURVE SMOOTH",
"421 88 OFFCURVE",
"375 23 OFFCURVE",
"246 23 CURVE SMOOTH"
);
}
);
width = 516;
},
{
layerId = "EA657207-4E15-4023-BA2A-6FA5407A60CD";
paths = (
{
closed = 1;
nodes = (
"252 -195 LINE",
"252 0 LINE",
"274 -6 OFFCURVE",
"311 -13 OFFCURVE",
"334 -13 CURVE SMOOTH",
"497 -13 OFFCURVE",
"554 73 OFFCURVE",
"554 248 CURVE SMOOTH",
"554 419 OFFCURVE",
"502 518 OFFCURVE",
"356 518 CURVE SMOOTH",
"315 518 OFFCURVE",
"272 496 OFFCURVE",
"251 479 CURVE",
"249 505 LINE",
"28 505 LINE",
"28 -195 LINE"
);
},
{
closed = 1;
nodes = (
"270 168 OFFCURVE",
"258 170 OFFCURVE",
"252 171 CURVE",
"252 330 LINE",
"262 333 OFFCURVE",
"277 337 OFFCURVE",
"284 337 CURVE SMOOTH",
"314 337 OFFCURVE",
"328 322 OFFCURVE",
"328 256 CURVE SMOOTH",
"328 210 OFFCURVE",
"321 168 OFFCURVE",
"284 168 CURVE SMOOTH"
);
}
);
width = 570;
},
{
layerId = "5E4DD32C-6BC9-4010-93B4-D8C61BED16DC";
paths = (
{
closed = 1;
nodes = (
"149 -221 LINE",
"149 1 LINE",
"171 -3 OFFCURVE",
"218 -10 OFFCURVE",
"260 -10 CURVE SMOOTH",
"414 -10 OFFCURVE",
"479 59 OFFCURVE",
"479 256 CURVE SMOOTH",
"479 433 OFFCURVE",
"423 510 OFFCURVE",
"296 510 CURVE SMOOTH",
"243 510 OFFCURVE",
"181 484 OFFCURVE",
"149 464 CURVE",
"149 500 LINE",
"72 500 LINE",
"72 -221 LINE"
);
},
{
closed = 1;
nodes = (
"217 58 OFFCURVE",
"170 65 OFFCURVE",
"149 68 CURVE",
"149 402 LINE",
"179 419 OFFCURVE",
"237 440 OFFCURVE",
"285 440 CURVE SMOOTH",
"357 440 OFFCURVE",
"399 391 OFFCURVE",
"399 256 CURVE SMOOTH",
"399 114 OFFCURVE",
"364 58 OFFCURVE",
"256 58 CURVE SMOOTH"
);
}
);
width = 528.07843;
}
);
leftKerningGroup = n;
rightKerningGroup = b;
unicode = 0070;
},
{
color = 5;
glyphname = thorn;
layers = (
{
layerId = "459CA063-FA7D-4205-A795-7B6CE244EAAB";
paths = (
{
closed = 1;
nodes = (
"114 -230 LINE",
"114 -3 LINE",
"145 -6 OFFCURVE",
"198 -9 OFFCURVE",
"228 -9 CURVE SMOOTH",
"414 -9 OFFCURVE",
"456 74 OFFCURVE",
"456 261 CURVE SMOOTH",
"456 433 OFFCURVE",
"422 509 OFFCURVE",
"286 509 CURVE SMOOTH",
"221 509 OFFCURVE",
"150 486 OFFCURVE",
"114 469 CURVE",
"114 730 LINE",
"79 730 LINE",
"79 -230 LINE"
);
},
{
closed = 1;
nodes = (
"201 23 OFFCURVE",
"148 26 OFFCURVE",
"114 29 CURVE",
"114 437 LINE",
"150 454 OFFCURVE",
"221 477 OFFCURVE",
"286 477 CURVE SMOOTH",
"397 477 OFFCURVE",
"419 409 OFFCURVE",
"419 259 CURVE SMOOTH",
"419 100 OFFCURVE",
"394 23 OFFCURVE",
"227 23 CURVE SMOOTH"
);
}
);
width = 515;
},
{
layerId = "EA657207-4E15-4023-BA2A-6FA5407A60CD";
paths = (
{
closed = 1;
nodes = (
"251 -195 LINE",
"251 0 LINE",
"273 -6 OFFCURVE",
"310 -13 OFFCURVE",
"333 -13 CURVE SMOOTH",
"496 -13 OFFCURVE",
"553 73 OFFCURVE",
"553 248 CURVE SMOOTH",
"553 419 OFFCURVE",
"501 518 OFFCURVE",
"355 518 CURVE SMOOTH",
"328 518 OFFCURVE",
"280 509 OFFCURVE",
"251 502 CURVE",
"251 703 LINE",
"27 703 LINE",
"27 -195 LINE"
);
},
{
closed = 1;
nodes = (
"269 168 OFFCURVE",
"257 170 OFFCURVE",
"251 171 CURVE",
"251 330 LINE",
"261 333 OFFCURVE",
"276 337 OFFCURVE",
"283 337 CURVE SMOOTH",
"313 337 OFFCURVE",
"327 322 OFFCURVE",
"327 256 CURVE SMOOTH",
"327 210 OFFCURVE",
"320 168 OFFCURVE",
"283 168 CURVE SMOOTH"
);
}
);
width = 569;
},
{
layerId = "5E4DD32C-6BC9-4010-93B4-D8C61BED16DC";
paths = (
{
closed = 1;
nodes = (
"149 -221 LINE",
"149 -3 LINE",
"176 -6 OFFCURVE",
"221 -10 OFFCURVE",
"250 -10 CURVE SMOOTH",
"422 -10 OFFCURVE",
"478 60 OFFCURVE",
"478 258 CURVE SMOOTH",
"478 440 OFFCURVE",
"430 510 OFFCURVE",
"294 510 CURVE SMOOTH",
"243 510 OFFCURVE",
"182 491 OFFCURVE",
"149 476 CURVE",
"149 717 LINE",
"72 717 LINE",
"72 -221 LINE"
);
},
{
closed = 1;
nodes = (
"222 58 OFFCURVE",
"177 61 OFFCURVE",
"149 64 CURVE",
"149 412 LINE",
"179 424 OFFCURVE",
"237 440 OFFCURVE",
"286 440 CURVE SMOOTH",
"372 440 OFFCURVE",
"398 386 OFFCURVE",
"398 257 CURVE SMOOTH",
"398 121 OFFCURVE",
"375 58 OFFCURVE",
"245 58 CURVE SMOOTH"
);
}
);
width = 527.5098;
}
);
leftKerningGroup = b;
rightKerningGroup = b;
unicode = 00FE;
},
{
color = 5;
glyphname = q;
layers = (
{
layerId = "459CA063-FA7D-4205-A795-7B6CE244EAAB";
paths = (
{
closed = 1;
nodes = (
"435 -230 LINE",
"435 500 LINE",
"392 504 OFFCURVE",
"321 509 OFFCURVE",
"286 509 CURVE SMOOTH",
"110 509 OFFCURVE",
"58 426 OFFCURVE",
"58 242 CURVE SMOOTH",
"58 75 OFFCURVE",
"102 -9 OFFCURVE",
"238 -9 CURVE SMOOTH",
"303 -9 OFFCURVE",
"369 13 OFFCURVE",
"400 29 CURVE",
"400 -230 LINE"
);
},
{
closed = 1;
nodes = (
"127 23 OFFCURVE",
"95 101 OFFCURVE",
"95 242 CURVE SMOOTH",
"95 400 OFFCURVE",
"130 477 OFFCURVE",
"287 477 CURVE SMOOTH",
"313 477 OFFCURVE",
"366 474 OFFCURVE",
"400 471 CURVE",
"400 63 LINE",
"369 46 OFFCURVE",
"303 23 OFFCURVE",
"238 23 CURVE SMOOTH"
);
}
);
width = 514;
},
{
layerId = "EA657207-4E15-4023-BA2A-6FA5407A60CD";
paths = (
{
closed = 1;
nodes = (
"542 -194 LINE",
"542 502 LINE",
"468 509 OFFCURVE",
"349 519 OFFCURVE",
"290 519 CURVE SMOOTH",
"101 519 OFFCURVE",
"16 448 OFFCURVE",
"16 245 CURVE SMOOTH",
"16 94 OFFCURVE",
"66 -13 OFFCURVE",
"214 -13 CURVE SMOOTH",
"242 -13 OFFCURVE",
"290 -3 OFFCURVE",
"318 4 CURVE",
"318 -194 LINE"
);
},
{
closed = 1;
nodes = (
"256 169 OFFCURVE",
"242 185 OFFCURVE",
"242 250 CURVE SMOOTH",
"242 297 OFFCURVE",
"249 338 OFFCURVE",
"286 338 CURVE SMOOTH",
"300 338 OFFCURVE",
"312 336 OFFCURVE",
"318 335 CURVE",
"318 175 LINE",
"309 172 OFFCURVE",
"294 169 OFFCURVE",
"286 169 CURVE SMOOTH"
);
}
);
width = 570;
},
{
layerId = "5E4DD32C-6BC9-4010-93B4-D8C61BED16DC";
paths = (
{
closed = 1;
nodes = (
"455 -221 LINE",
"455 500 LINE",
"405 504 OFFCURVE",
"324 510 OFFCURVE",
"286 510 CURVE SMOOTH",
"110 510 OFFCURVE",
"49 440 OFFCURVE",
"49 242 CURVE SMOOTH",
"49 65 OFFCURVE",
"102 -10 OFFCURVE",
"238 -10 CURVE SMOOTH",
"289 -10 OFFCURVE",
"347 9 OFFCURVE",
"377 23 CURVE",
"377 -221 LINE"
);
},
{
closed = 1;
nodes = (
"161 60 OFFCURVE",
"128 119 OFFCURVE",
"128 242 CURVE SMOOTH",
"128 379 OFFCURVE",
"158 442 OFFCURVE",
"287 442 CURVE SMOOTH",
"309 442 OFFCURVE",
"351 439 OFFCURVE",
"377 437 CURVE",
"377 88 LINE",
"350 76 OFFCURVE",
"296 60 OFFCURVE",
"246 60 CURVE SMOOTH"
);
}
);
width = 526.5098;
}
);
leftKerningGroup = d;
rightKerningGroup = u;
unicode = 0071;
},
{
color = 5;
glyphname = r;
layers = (
{
layerId = "459CA063-FA7D-4205-A795-7B6CE244EAAB";
paths = (
{
closed = 1;
nodes = (
"114 0 LINE",
"114 389 LINE",
"157 417 OFFCURVE",
"240 459 OFFCURVE",
"312 474 CURVE",
"312 510 LINE",
"232 495 OFFCURVE",
"152 451 OFFCURVE",
"114 422 CURVE",
"114 500 LINE",
"79 500 LINE",
"79 0 LINE"
);
}
);
width = 328;
},
{
layerId = "EA657207-4E15-4023-BA2A-6FA5407A60CD";
paths = (
{
closed = 1;
nodes = (
"252 0 LINE",
"252 274 LINE",
"281 289 OFFCURVE",
"330 310 OFFCURVE",
"358 310 CURVE",
"358 518 LINE",
"327 518 OFFCURVE",
"279 484 OFFCURVE",
"252 458 CURVE",
"252 505 LINE",
"28 505 LINE",
"28 0 LINE"
);
}
);
width = 368;
},
{
layerId = "5E4DD32C-6BC9-4010-93B4-D8C61BED16DC";
paths = (
{
closed = 1;
nodes = (
"149 0 LINE",
"149 366 LINE",
"187 386 OFFCURVE",
"262 418 OFFCURVE",
"331 432 CURVE",
"331 511 LINE",
"261 498 OFFCURVE",
"186 459 OFFCURVE",
"149 433 CURVE",
"149 500 LINE",
"72 500 LINE",
"72 0 LINE"
);
}
);
width = 346.98039;
}
);
leftKerningGroup = n;
rightKerningGroup = r;
unicode = 0072;
},
{
color = 5;
glyphname = rcommaaccent;
layers = (
{
components = (
{
name = r;
}
);
layerId = "459CA063-FA7D-4205-A795-7B6CE244EAAB";
paths = (
{
closed = 1;
nodes = (
"70 -267 LINE",
"116 -78 LINE",
"79 -78 LINE",
"42 -267 LINE"
);
}
);
width = 328;
},
{
components = (
{
name = r;
}
);
layerId = "EA657207-4E15-4023-BA2A-6FA5407A60CD";
paths = (
{
closed = 1;
nodes = (
"190 -260 LINE",
"252 -45 LINE",
"48 -45 LINE",
"28 -260 LINE"
);
}
);
width = 368;
},
{
components = (
{
alignment = -1;
name = r;
}
);
layerId = "5E4DD32C-6BC9-4010-93B4-D8C61BED16DC";
paths = (
{
closed = 1;
nodes = (
"99 -286 LINE",
"149 -78 LINE",
"72 -78 LINE",
"31 -286 LINE"
);
}
);
width = 346.98039;
}
);
leftKerningGroup = n;
rightKerningGroup = r;
unicode = 0157;
},
{
color = 5;
glyphname = s;
layers = (
{
layerId = "459CA063-FA7D-4205-A795-7B6CE244EAAB";
paths = (
{
closed = 1;
nodes = (
"340 -9 OFFCURVE",
"412 27 OFFCURVE",
"412 144 CURVE SMOOTH",
"412 238 OFFCURVE",
"361 257 OFFCURVE",
"230 278 CURVE SMOOTH",
"115 296 OFFCURVE",
"88 315 OFFCURVE",
"88 377 CURVE SMOOTH",
"88 458 OFFCURVE",
"158 477 OFFCURVE",
"222 477 CURVE SMOOTH",
"272 477 OFFCURVE",
"348 468 OFFCURVE",
"392 461 CURVE",
"394 494 LINE",
"353 500 OFFCURVE",
"278 509 OFFCURVE",
"222 509 CURVE SMOOTH",
"141 509 OFFCURVE",
"51 481 OFFCURVE",
"51 375 CURVE SMOOTH",
"51 282 OFFCURVE",
"103 263 OFFCURVE",
"220 245 CURVE SMOOTH",
"339 227 OFFCURVE",
"375 213 OFFCURVE",
"375 141 CURVE SMOOTH",
"375 45 OFFCURVE",
"314 23 OFFCURVE",
"220 23 CURVE SMOOTH",
"183 23 OFFCURVE",
"107 33 OFFCURVE",
"61 40 CURVE",
"57 7 LINE",
"103 0 OFFCURVE",
"180 -9 OFFCURVE",
"222 -9 CURVE SMOOTH"
);
}
);
width = 461;
},
{
layerId = "EA657207-4E15-4023-BA2A-6FA5407A60CD";
paths = (
{
closed = 1;
nodes = (
"396 -13 OFFCURVE",
"472 35 OFFCURVE",
"472 163 CURVE SMOOTH",
"472 273 OFFCURVE",
"430 315 OFFCURVE",
"308 328 CURVE SMOOTH",
"251 334 OFFCURVE",
"243 336 OFFCURVE",
"243 341 CURVE SMOOTH",
"243 347 OFFCURVE",
"252 349 OFFCURVE",
"275 349 CURVE SMOOTH",
"317 349 OFFCURVE",
"404 341 OFFCURVE",
"457 335 CURVE",
"465 492 LINE",
"425 503 OFFCURVE",
"336 518 OFFCURVE",
"243 518 CURVE SMOOTH",
"113 518 OFFCURVE",
"19 479 OFFCURVE",
"19 334 CURVE SMOOTH",
"19 229 OFFCURVE",
"63 187 OFFCURVE",
"175 172 CURVE SMOOTH",
"235 164 OFFCURVE",
"248 162 OFFCURVE",
"248 157 CURVE SMOOTH",
"248 150 OFFCURVE",
"238 148 OFFCURVE",
"214 148 CURVE SMOOTH",
"168 148 OFFCURVE",
"80 158 OFFCURVE",
"27 165 CURVE",
"22 14 LINE",
"59 2 OFFCURVE",
"147 -13 OFFCURVE",
"250 -13 CURVE SMOOTH"
);
}
);
width = 489;
},
{
layerId = "5E4DD32C-6BC9-4010-93B4-D8C61BED16DC";
paths = (
{
closed = 1;
nodes = (
"349 -10 OFFCURVE",
"423 30 OFFCURVE",
"423 147 CURVE SMOOTH",
"423 244 OFFCURVE",
"376 269 OFFCURVE",
"252 290 CURVE SMOOTH",
"146 308 OFFCURVE",
"123 321 OFFCURVE",
"123 366 CURVE SMOOTH",
"123 423 OFFCURVE",
"168 440 OFFCURVE",
"229 440 CURVE SMOOTH",
"276 440 OFFCURVE",
"357 431 OFFCURVE",
"405 424 CURVE",
"407 491 LINE",
"361 499 OFFCURVE",
"280 510 OFFCURVE",
"225 510 CURVE SMOOTH",
"134 510 OFFCURVE",
"45 474 OFFCURVE",
"45 363 CURVE SMOOTH",
"45 263 OFFCURVE",
"99 241 OFFCURVE",
"212 223 CURVE SMOOTH",
"319 206 OFFCURVE",
"344 194 OFFCURVE",
"344 144 CURVE SMOOTH",
"344 78 OFFCURVE",
"302 60 OFFCURVE",
"221 60 CURVE SMOOTH",
"184 60 OFFCURVE",
"104 69 OFFCURVE",
"55 76 CURVE",
"51 9 LINE",
"100 1 OFFCURVE",
"181 -10 OFFCURVE",
"228 -10 CURVE SMOOTH"
);
}
);
width = 465.7451;
}
);
leftKerningGroup = s;
rightKerningGroup = s;
unicode = 0073;
},
{
color = 5;
glyphname = scommaaccent;
layers = (
{
components = (
{
name = s;
}
);
layerId = "459CA063-FA7D-4205-A795-7B6CE244EAAB";
paths = (
{
closed = 1;
nodes = (
"224 -267 LINE",
"270 -78 LINE",
"233 -78 LINE",
"196 -267 LINE"
);
}
);
width = 461;
},
{
components = (
{
name = s;
}
);
layerId = "EA657207-4E15-4023-BA2A-6FA5407A60CD";
paths = (
{
closed = 1;
nodes = (
"295 -260 LINE",
"357 -45 LINE",
"153 -45 LINE",
"133 -260 LINE"
);
}
);
width = 489;
},
{
components = (
{
alignment = -1;
name = s;
}
);
layerId = "5E4DD32C-6BC9-4010-93B4-D8C61BED16DC";
paths = (
{
closed = 1;
nodes = (
"172 -286 LINE",
"222 -78 LINE",
"145 -78 LINE",
"104 -286 LINE"
);
}
);
width = 465.7451;
}
);
leftKerningGroup = s;
rightKerningGroup = s;
unicode = 0219;
},
{
color = 5;
glyphname = germandbls;
layers = (
{
layerId = "459CA063-FA7D-4205-A795-7B6CE244EAAB";
paths = (
{
closed = 1;
nodes = (
"452 -9 OFFCURVE",
"506 51 OFFCURVE",
"506 186 CURVE SMOOTH",
"506 269 OFFCURVE",
"471 302 OFFCURVE",
"372 353 CURVE SMOOTH",
"308 386 OFFCURVE",
"288 400 OFFCURVE",
"288 422 CURVE SMOOTH",
"288 444 OFFCURVE",
"302 452 OFFCURVE",
"348 473 CURVE SMOOTH",
"401 497 OFFCURVE",
"421 534 OFFCURVE",
"421 603 CURVE SMOOTH",
"421 697 OFFCURVE",
"380 739 OFFCURVE",
"251 739 CURVE SMOOTH",
"130 739 OFFCURVE",
"79 698 OFFCURVE",
"79 561 CURVE SMOOTH",
"79 0 LINE",
"114 0 LINE",
"114 548 LINE SMOOTH",
"114 679 OFFCURVE",
"156 705 OFFCURVE",
"251 705 CURVE SMOOTH",
"351 705 OFFCURVE",
"383 678 OFFCURVE",
"383 603 CURVE SMOOTH",
"383 548 OFFCURVE",
"371 519 OFFCURVE",
"328 499 CURVE SMOOTH",
"280 477 OFFCURVE",
"251 462 OFFCURVE",
"251 422 CURVE SMOOTH",
"251 382 OFFCURVE",
"271 366 OFFCURVE",
"347 327 CURVE SMOOTH",
"439 280 OFFCURVE",
"468 254 OFFCURVE",
"468 181 CURVE SMOOTH",
"468 77 OFFCURVE",
"430 25 OFFCURVE",
"306 25 CURVE SMOOTH",
"280 25 OFFCURVE",
"226 30 OFFCURVE",
"193 34 CURVE",
"191 1 LINE",
"223 -3 OFFCURVE",
"277 -9 OFFCURVE",
"306 -9 CURVE SMOOTH"
);
}
);
width = 549;
},
{
layerId = "EA657207-4E15-4023-BA2A-6FA5407A60CD";
paths = (
{
closed = 1;
nodes = (
"645 -13 OFFCURVE",
"692 43 OFFCURVE",
"692 175 CURVE SMOOTH",
"692 268 OFFCURVE",
"668 298 OFFCURVE",
"573 332 CURVE SMOOTH",
"507 355 OFFCURVE",
"494 362 OFFCURVE",
"494 382 CURVE SMOOTH",
"494 395 OFFCURVE",
"503 402 OFFCURVE",
"553 429 CURVE SMOOTH",
"606 458 OFFCURVE",
"615 472 OFFCURVE",
"615 538 CURVE SMOOTH",
"615 650 OFFCURVE",
"543 703 OFFCURVE",
"340 703 CURVE SMOOTH",
"110 703 OFFCURVE",
"28 647 OFFCURVE",
"28 453 CURVE SMOOTH",
"28 0 LINE",
"252 0 LINE",
"252 460 LINE SMOOTH",
"252 502 OFFCURVE",
"283 515 OFFCURVE",
"339 515 CURVE SMOOTH",
"379 515 OFFCURVE",
"389 501 OFFCURVE",
"389 484 CURVE SMOOTH",
"389 472 OFFCURVE",
"386 463 OFFCURVE",
"345 430 CURVE SMOOTH",
"304 397 OFFCURVE",
"288 374 OFFCURVE",
"288 324 CURVE SMOOTH",
"288 275 OFFCURVE",
"307 243 OFFCURVE",
"380 215 CURVE SMOOTH",
"461 184 OFFCURVE",
"476 177 OFFCURVE",
"476 167 CURVE SMOOTH",
"476 154 OFFCURVE",
"461 148 OFFCURVE",
"438 148 CURVE SMOOTH",
"393 148 OFFCURVE",
"333 154 OFFCURVE",
"299 158 CURVE",
"292 11 LINE",
"332 1 OFFCURVE",
"415 -13 OFFCURVE",
"500 -13 CURVE SMOOTH"
);
}
);
width = 697;
},
{
layerId = "5E4DD32C-6BC9-4010-93B4-D8C61BED16DC";
paths = (
{
closed = 1;
nodes = (
"486 -10 OFFCURVE",
"541 41 OFFCURVE",
"541 177 CURVE SMOOTH",
"541 259 OFFCURVE",
"506 289 OFFCURVE",
"412 336 CURVE SMOOTH",
"339 372 OFFCURVE",
"323 384 OFFCURVE",
"323 404 CURVE SMOOTH",
"323 424 OFFCURVE",
"335 432 OFFCURVE",
"383 454 CURVE SMOOTH",
"439 479 OFFCURVE",
"465 510 OFFCURVE",
"465 582 CURVE SMOOTH",
"465 685 OFFCURVE",
"407 727 OFFCURVE",
"269 727 CURVE SMOOTH",
"130 727 OFFCURVE",
"72 681 OFFCURVE",
"72 544 CURVE SMOOTH",
"72 0 LINE",
"149 0 LINE",
"149 535 LINE SMOOTH",
"149 632 OFFCURVE",
"182 657 OFFCURVE",
"269 657 CURVE SMOOTH",
"356 657 OFFCURVE",
"384 636 OFFCURVE",
"384 578 CURVE SMOOTH",
"384 538 OFFCURVE",
"372 517 OFFCURVE",
"320 495 CURVE SMOOTH",
"269 473 OFFCURVE",
"243 449 OFFCURVE",
"243 399 CURVE SMOOTH",
"243 345 OFFCURVE",
"268 319 OFFCURVE",
"352 280 CURVE SMOOTH",
"440 238 OFFCURVE",
"460 219 OFFCURVE",
"460 165 CURVE SMOOTH",
"460 97 OFFCURVE",
"432 60 OFFCURVE",
"334 60 CURVE SMOOTH",
"307 60 OFFCURVE",
"248 66 OFFCURVE",
"212 70 CURVE",
"209 5 LINE",
"243 -1 OFFCURVE",
"303 -10 OFFCURVE",
"341 -10 CURVE SMOOTH"
);
}
);
width = 575.7451;
}
);
leftKerningGroup = h;
unicode = 00DF;
},
{
color = 5;
glyphname = t;
layers = (
{
layerId = "459CA063-FA7D-4205-A795-7B6CE244EAAB";
paths = (
{
closed = 1;
nodes = (
"261 -10 OFFCURVE",
"308 -5 OFFCURVE",
"336 -2 CURVE",
"333 30 LINE",
"303 27 OFFCURVE",
"255 22 OFFCURVE",
"235 22 CURVE SMOOTH",
"154 22 OFFCURVE",
"143 57 OFFCURVE",
"143 206 CURVE SMOOTH",
"143 468 LINE",
"325 468 LINE",
"325 500 LINE",
"143 500 LINE",
"143 663 LINE",
"108 663 LINE",
"108 500 LINE",
"29 500 LINE",
"29 468 LINE",
"108 468 LINE",
"108 168 LINE SMOOTH",
"108 24 OFFCURVE",
"144 -10 OFFCURVE",
"235 -10 CURVE SMOOTH"
);
}
);
width = 342;
},
{
layerId = "EA657207-4E15-4023-BA2A-6FA5407A60CD";
paths = (
{
closed = 1;
nodes = (
"256 -13 OFFCURVE",
"317 -3 OFFCURVE",
"354 5 CURVE",
"351 179 LINE",
"347 179 OFFCURVE",
"309 178 OFFCURVE",
"306 178 CURVE SMOOTH",
"278 178 OFFCURVE",
"273 188 OFFCURVE",
"273 220 CURVE SMOOTH",
"273 324 LINE {name = hr00;}",
"354 324 LINE",
"354 505 LINE",
"273 505 LINE",
"273 605 LINE",
"49 605 LINE",
"49 505 LINE",
"10 505 LINE",
"10 324 LINE",
"49 324 LINE",
"49 168 LINE SMOOTH",
"49 25 OFFCURVE",
"102 -13 OFFCURVE",
"222 -13 CURVE SMOOTH"
);
}
);
width = 371;
},
{
layerId = "5E4DD32C-6BC9-4010-93B4-D8C61BED16DC";
paths = (
{
closed = 1;
nodes = (
"262 -11 OFFCURVE",
"309 -4 OFFCURVE",
"338 0 CURVE",
"333 65 LINE",
"307 62 OFFCURVE",
"265 59 OFFCURVE",
"245 59 CURVE SMOOTH",
"181 59 OFFCURVE",
"174 89 OFFCURVE",
"174 195 CURVE SMOOTH",
"174 433 LINE",
"331 433 LINE",
"331 500 LINE",
"174 500 LINE",
"174 653 LINE",
"97 653 LINE",
"97 500 LINE",
"26 500 LINE",
"26 433 LINE",
"97 433 LINE",
"97 172 LINE SMOOTH",
"97 28 OFFCURVE",
"132 -11 OFFCURVE",
"236 -11 CURVE SMOOTH"
);
}
);
width = 351.4902;
}
);
leftKerningGroup = t;
rightKerningGroup = t;
unicode = 0074;
},
{
color = 5;
glyphname = tbar;
layers = (
{
layerId = "459CA063-FA7D-4205-A795-7B6CE244EAAB";
paths = (
{
closed = 1;
nodes = (
"265 -10 OFFCURVE",
"312 -5 OFFCURVE",
"340 -2 CURVE",
"337 30 LINE",
"307 27 OFFCURVE",
"259 22 OFFCURVE",
"239 22 CURVE SMOOTH",
"158 22 OFFCURVE",
"147 57 OFFCURVE",
"147 206 CURVE SMOOTH",
"147 468 LINE",
"329 468 LINE",
"329 500 LINE",
"147 500 LINE",
"147 663 LINE",
"112 663 LINE",
"112 500 LINE",
"33 500 LINE",
"33 468 LINE",
"112 468 LINE",
"112 168 LINE SMOOTH",
"112 24 OFFCURVE",
"148 -10 OFFCURVE",
"239 -10 CURVE SMOOTH"
);
},
{
closed = 1;
nodes = (
"308 282 LINE",
"308 314 LINE",
"41 314 LINE",
"41 282 LINE"
);
}
);
width = 347;
},
{
layerId = "EA657207-4E15-4023-BA2A-6FA5407A60CD";
paths = (
{
closed = 1;
nodes = (
"256 -13 OFFCURVE",
"317 -3 OFFCURVE",
"354 5 CURVE",
"351 169 LINE",
"347 169 OFFCURVE",
"309 168 OFFCURVE",
"306 168 CURVE SMOOTH",
"278 168 OFFCURVE",
"273 178 OFFCURVE",
"273 210 CURVE SMOOTH",
"273 345 LINE",
"354 345 LINE",
"354 505 LINE",
"273 505 LINE",
"273 605 LINE",
"49 605 LINE",
"49 505 LINE",
"10 505 LINE",
"10 345 LINE",
"49 345 LINE",
"49 168 LINE SMOOTH",
"49 25 OFFCURVE",
"102 -13 OFFCURVE",
"222 -13 CURVE SMOOTH"
);
},
{
closed = 1;
nodes = (
"337 206 LINE",
"337 311 LINE",
"12 311 LINE",
"12 206 LINE {name = hr00;}"
);
}
);
width = 370;
},
{
layerId = "5E4DD32C-6BC9-4010-93B4-D8C61BED16DC";
paths = (
{
closed = 1;
nodes = (
"265 -11 OFFCURVE",
"312 -4 OFFCURVE",
"340 0 CURVE",
"336 68 LINE",
"310 66 OFFCURVE",
"267 63 OFFCURVE",
"247 63 CURVE SMOOTH",
"183 63 OFFCURVE",
"177 92 OFFCURVE",
"177 199 CURVE SMOOTH",
"177 429 LINE",
"333 429 LINE",
"333 500 LINE",
"177 500 LINE",
"177 653 LINE",
"99 653 LINE",
"99 500 LINE",
"29 500 LINE",
"29 429 LINE",
"99 429 LINE",
"99 172 LINE SMOOTH",
"99 28 OFFCURVE",
"135 -11 OFFCURVE",
"239 -11 CURVE SMOOTH"
);
},
{
closed = 1;
nodes = (
"309 251 LINE",
"309 312 LINE",
"46 312 LINE",
"46 251 LINE"
);
}
);
width = 354.76471;
}
);
leftKerningGroup = t;
rightKerningGroup = t;
unicode = 0167;
},
{
color = 5;
glyphname = tcaron;
layers = (
{
components = (
{
name = t;
}
);
layerId = "459CA063-FA7D-4205-A795-7B6CE244EAAB";
paths = (
{
closed = 1;
nodes = (
"400 483 LINE",
"400 700 LINE",
"366 700 LINE",
"366 483 LINE"
);
}
);
width = 395;
},
{
components = (
{
name = t;
}
);
layerId = "EA657207-4E15-4023-BA2A-6FA5407A60CD";
paths = (
{
closed = 1;
nodes = (
"465 539 LINE",
"524 744 LINE",
"330 744 LINE",
"311 539 LINE"
);
}
);
width = 371;
},
{
components = (
{
alignment = -1;
name = t;
}
);
layerId = "5E4DD32C-6BC9-4010-93B4-D8C61BED16DC";
paths = (
{
closed = 1;
nodes = (
"446 460 LINE",
"446 696 LINE",
"370 696 LINE",
"370 460 LINE"
);
}
);
width = 434.68627;
}
);
leftKerningGroup = t;
unicode = 0165;
},
{
color = 5;
glyphname = tcommaaccent;
layers = (
{
components = (
{
name = t;
}
);
layerId = "459CA063-FA7D-4205-A795-7B6CE244EAAB";
paths = (
{
closed = 1;
nodes = (
"194 -267 LINE",
"240 -78 LINE",
"203 -78 LINE",
"166 -267 LINE"
);
}
);
width = 342;
},
{
components = (
{
name = t;
}
);
layerId = "EA657207-4E15-4023-BA2A-6FA5407A60CD";
paths = (
{
closed = 1;
nodes = (
"232 -260 LINE",
"294 -45 LINE",
"90 -45 LINE",
"70 -260 LINE"
);
}
);
width = 371;
},
{
components = (
{
alignment = -1;
name = t;
}
);
layerId = "5E4DD32C-6BC9-4010-93B4-D8C61BED16DC";
paths = (
{
closed = 1;
nodes = (
"164 -286 LINE",
"214 -78 LINE",
"137 -78 LINE",
"96 -286 LINE"
);
}
);
width = 351.4902;
}
);
leftKerningGroup = t;
rightKerningGroup = t;
unicode = 021B;
},
{
color = 5;
glyphname = u;
layers = (
{
layerId = "459CA063-FA7D-4205-A795-7B6CE244EAAB";
paths = (
{
closed = 1;
nodes = (
"312 -9 OFFCURVE",
"367 20 OFFCURVE",
"402 40 CURVE",
"402 0 LINE",
"437 0 LINE",
"437 500 LINE",
"402 500 LINE",
"402 73 LINE",
"367 51 OFFCURVE",
"307 23 OFFCURVE",
"232 23 CURVE SMOOTH",
"127 23 OFFCURVE",
"109 77 OFFCURVE",
"109 242 CURVE SMOOTH",
"109 500 LINE",
"74 500 LINE",
"74 240 LINE SMOOTH",
"74 54 OFFCURVE",
"102 -9 OFFCURVE",
"227 -9 CURVE SMOOTH"
);
}
);
width = 516;
},
{
layerId = "EA657207-4E15-4023-BA2A-6FA5407A60CD";
paths = (
{
closed = 1;
nodes = (
"247 -13 OFFCURVE",
"279 -2 OFFCURVE",
"327 24 CURVE",
"327 0 LINE",
"549 0 LINE",
"549 505 LINE",
"325 505 LINE",
"325 186 LINE",
"316 183 OFFCURVE",
"296 180 OFFCURVE",
"284 180 CURVE SMOOTH",
"257 180 OFFCURVE",
"247 196 OFFCURVE",
"247 259 CURVE SMOOTH",
"247 505 LINE",
"23 505 LINE",
"23 244 LINE SMOOTH",
"23 80 OFFCURVE",
"68 -13 OFFCURVE",
"201 -13 CURVE SMOOTH"
);
}
);
width = 577;
},
{
layerId = "5E4DD32C-6BC9-4010-93B4-D8C61BED16DC";
paths = (
{
closed = 1;
nodes = (
"293 -10 OFFCURVE",
"340 11 OFFCURVE",
"383 35 CURVE",
"383 0 LINE",
"460 0 LINE",
"460 500 LINE",
"383 500 LINE",
"383 96 LINE",
"354 80 OFFCURVE",
"303 60 OFFCURVE",
"245 60 CURVE SMOOTH",
"156 60 OFFCURVE",
"144 107 OFFCURVE",
"144 239 CURVE SMOOTH",
"144 500 LINE",
"67 500 LINE",
"67 239 LINE SMOOTH",
"67 65 OFFCURVE",
"96 -10 OFFCURVE",
"224 -10 CURVE SMOOTH"
);
}
);
width = 531.96078;
}
);
leftKerningGroup = u;
rightKerningGroup = u;
unicode = 0075;
},
{
color = 5;
glyphname = v;
layers = (
{
layerId = "459CA063-FA7D-4205-A795-7B6CE244EAAB";
paths = (
{
closed = 1;
nodes = (
"284 0 LINE",
"439 500 LINE",
"402 500 LINE",
"257 32 LINE",
"213 32 LINE",
"72 500 LINE",
"31 500 LINE",
"186 0 LINE"
);
}
);
width = 470;
},
{
layerId = "EA657207-4E15-4023-BA2A-6FA5407A60CD";
paths = (
{
closed = 1;
nodes = (
"461 0 LINE",
"546 505 LINE",
"322 505 LINE",
"288 187 LINE",
"275 187 LINE",
"239 505 LINE",
"1 505 LINE",
"86 0 LINE"
);
}
);
width = 547;
},
{
layerId = "5E4DD32C-6BC9-4010-93B4-D8C61BED16DC";
paths = (
{
closed = 1;
nodes = (
"318 0 LINE",
"458 500 LINE",
"378 500 LINE",
"260 67 LINE",
"222 67 LINE",
"108 500 LINE",
"24 500 LINE",
"164 0 LINE"
);
}
);
width = 482.07843;
}
);
unicode = 0076;
},
{
color = 5;
glyphname = w;
layers = (
{
layerId = "459CA063-FA7D-4205-A795-7B6CE244EAAB";
paths = (
{
closed = 1;
nodes = (
"239 0 LINE",
"378 448 LINE",
"517 0 LINE",
"585 0 LINE",
"720 500 LINE",
"683 500 LINE",
"556 32 LINE",
"545 32 LINE",
"397 490 LINE",
"359 490 LINE",
"211 32 LINE",
"200 32 LINE",
"73 500 LINE",
"36 500 LINE",
"171 0 LINE"
);
}
);
width = 756;
},
{
layerId = "EA657207-4E15-4023-BA2A-6FA5407A60CD";
paths = (
{
closed = 1;
nodes = (
"375 0 LINE",
"394 218 LINE",
"411 0 LINE",
"730 0 LINE",
"781 505 LINE",
"560 505 LINE",
"549 187 LINE",
"537 187 LINE",
"505 492 LINE",
"302 492 LINE",
"279 187 LINE",
"267 187 LINE",
"257 505 LINE",
"10 505 LINE",
"70 0 LINE"
);
}
);
width = 792;
},
{
layerId = "5E4DD32C-6BC9-4010-93B4-D8C61BED16DC";
paths = (
{
closed = 1;
nodes = (
"278 0 LINE",
"381 387 LINE",
"485 0 LINE",
"614 0 LINE",
"732 500 LINE",
"654 500 LINE",
"556 67 LINE",
"539 67 LINE",
"422 490 LINE",
"341 490 LINE",
"224 67 LINE",
"207 67 LINE",
"109 500 LINE",
"31 500 LINE",
"149 0 LINE"
);
}
);
width = 762.90196;
}
);
leftKerningGroup = w;
rightKerningGroup = w;
unicode = 0077;
},
{
color = 5;
glyphname = x;
layers = (
{
layerId = "459CA063-FA7D-4205-A795-7B6CE244EAAB";
paths = (
{
closed = 1;
nodes = (
"69 0 LINE",
"218 223 LINE",
"367 0 LINE",
"408 0 LINE",
"239 250 LINE",
"409 500 LINE",
"368 500 LINE",
"218 277 LINE",
"69 500 LINE",
"28 500 LINE",
"197 250 LINE",
"28 0 LINE"
);
}
);
width = 437;
},
{
layerId = "EA657207-4E15-4023-BA2A-6FA5407A60CD";
paths = (
{
closed = 1;
nodes = (
"221 0 LINE",
"254 127 LINE",
"294 0 LINE",
"536 0 LINE",
"450 254 LINE",
"539 505 LINE",
"319 505 LINE",
"279 363 LINE",
"239 505 LINE",
"-1 505 LINE",
"98 250 LINE",
"-1 0 LINE"
);
}
);
width = 538;
},
{
layerId = "5E4DD32C-6BC9-4010-93B4-D8C61BED16DC";
paths = (
{
closed = 1;
nodes = (
"107 0 LINE",
"226 193 LINE",
"346 0 LINE",
"431 0 LINE",
"274 252 LINE",
"431 500 LINE",
"346 500 LINE",
"226 306 LINE",
"107 500 LINE",
"22 500 LINE",
"177 250 LINE",
"22 0 LINE"
);
}
);
width = 452.96078;
}
);
unicode = 0078;
},
{
color = 5;
glyphname = y;
layers = (
{
layerId = "459CA063-FA7D-4205-A795-7B6CE244EAAB";
paths = (
{
closed = 1;
nodes = (
"212 -230 LINE",
"441 500 LINE",
"404 500 LINE",
"256 32 LINE",
"215 32 LINE",
"68 500 LINE",
"31 500 LINE",
"186 0 LINE",
"247 0 LINE",
"175 -230 LINE"
);
}
);
width = 471;
},
{
layerId = "EA657207-4E15-4023-BA2A-6FA5407A60CD";
paths = (
{
closed = 1;
nodes = (
"427 -195 LINE",
"546 505 LINE",
"321 505 LINE",
"289 187 LINE",
"275 187 LINE",
"239 505 LINE",
"1 505 LINE",
"86 0 LINE",
"244 0 LINE",
"181 -195 LINE"
);
}
);
width = 546;
},
{
layerId = "5E4DD32C-6BC9-4010-93B4-D8C61BED16DC";
paths = (
{
closed = 1;
nodes = (
"254 -221 LINE",
"460 500 LINE",
"382 500 LINE",
"259 67 LINE",
"225 67 LINE",
"103 500 LINE",
"25 500 LINE",
"166 0 LINE",
"241 0 LINE",
"176 -221 LINE"
);
}
);
width = 483.5098;
}
);
leftKerningGroup = y;
rightKerningGroup = y;
unicode = 0079;
},
{
color = 5;
glyphname = z;
layers = (
{
layerId = "459CA063-FA7D-4205-A795-7B6CE244EAAB";
paths = (
{
closed = 1;
nodes = (
"413 0 LINE",
"413 32 LINE",
"87 32 LINE",
"413 468 LINE",
"413 500 LINE",
"42 500 LINE",
"42 468 LINE",
"369 468 LINE",
"42 32 LINE",
"42 0 LINE"
);
}
);
width = 455;
},
{
layerId = "EA657207-4E15-4023-BA2A-6FA5407A60CD";
paths = (
{
closed = 1;
nodes = (
"478 0 LINE",
"478 195 LINE",
"322 195 LINE",
"475 332 LINE",
"475 505 LINE",
"24 505 LINE",
"24 310 LINE",
"172 310 LINE",
"24 183 LINE",
"24 0 LINE"
);
}
);
width = 500;
},
{
layerId = "5E4DD32C-6BC9-4010-93B4-D8C61BED16DC";
paths = (
{
closed = 1;
nodes = (
"413 0 LINE",
"413 70 LINE",
"137 70 LINE",
"413 430 LINE",
"413 500 LINE",
"42 500 LINE",
"42 430 LINE",
"318 430 LINE",
"42 70 LINE",
"42 0 LINE"
);
}
);
width = 454.56863;
}
);
leftKerningGroup = z;
rightKerningGroup = z;
unicode = 007A;
},
{
color = 5;
glyphname = ordfeminine;
layers = (
{
layerId = "459CA063-FA7D-4205-A795-7B6CE244EAAB";
paths = (
{
closed = 1;
nodes = (
"307 414 LINE",
"293 417 OFFCURVE",
"278 424 OFFCURVE",
"270 437 CURVE",
"270 571 LINE SMOOTH",
"270 634 OFFCURVE",
"244 659 OFFCURVE",
"187 659 CURVE SMOOTH",
"160 659 OFFCURVE",
"111 654 OFFCURVE",
"81 651 CURVE",
"85 621 LINE",
"114 624 OFFCURVE",
"161 629 OFFCURVE",
"187 629 CURVE SMOOTH",
"227 629 OFFCURVE",
"239 616 OFFCURVE",
"239 571 CURVE SMOOTH",
"239 431 LINE",
"254 405 OFFCURVE",
"268 392 OFFCURVE",
"301 385 CURVE"
);
},
{
closed = 1;
nodes = (
"176 386 OFFCURVE",
"231 400 OFFCURVE",
"260 410 CURVE",
"250 438 LINE",
"223 429 OFFCURVE",
"172 416 OFFCURVE",
"132 416 CURVE SMOOTH",
"108 416 OFFCURVE",
"93 434 OFFCURVE",
"93 466 CURVE SMOOTH",
"93 498 OFFCURVE",
"104 510 OFFCURVE",
"139 512 CURVE SMOOTH",
"241 519 LINE",
"239 549 LINE",
"137 542 LINE SMOOTH",
"86 538 OFFCURVE",
"62 514 OFFCURVE",
"62 466 CURVE SMOOTH",
"62 417 OFFCURVE",
"91 386 OFFCURVE",
"132 386 CURVE SMOOTH"
);
}
);
width = 366;
},
{
layerId = "EA657207-4E15-4023-BA2A-6FA5407A60CD";
paths = (
{
closed = 1;
nodes = (
"336 466 LINE",
"329 467 OFFCURVE",
"323 470 OFFCURVE",
"318 474 CURVE",
"318 551 LINE SMOOTH",
"318 638 OFFCURVE",
"268 666 OFFCURVE",
"172 666 CURVE SMOOTH",
"118 666 OFFCURVE",
"72 657 OFFCURVE",
"25 640 CURVE",
"31 565 LINE",
"73 568 OFFCURVE",
"120 571 OFFCURVE",
"144 572 CURVE SMOOTH",
"173 573 OFFCURVE",
"188 567 OFFCURVE",
"188 557 CURVE SMOOTH",
"188 440 LINE SMOOTH",
"188 390 OFFCURVE",
"255 384 OFFCURVE",
"334 384 CURVE"
);
},
{
closed = 1;
nodes = (
"140 379 OFFCURVE",
"173 395 OFFCURVE",
"201 423 CURVE",
"210 474 LINE",
"196 466 OFFCURVE",
"177 461 OFFCURVE",
"164 461 CURVE SMOOTH",
"152 461 OFFCURVE",
"147 465 OFFCURVE",
"147 474 CURVE SMOOTH",
"147 483 OFFCURVE",
"153 489 OFFCURVE",
"165 490 CURVE",
"214 492 LINE",
"214 558 LINE",
"121 554 LINE SMOOTH",
"50 551 OFFCURVE",
"16 524 OFFCURVE",
"16 470 CURVE SMOOTH",
"16 415 OFFCURVE",
"47 379 OFFCURVE",
"102 379 CURVE SMOOTH"
);
}
);
width = 351;
},
{
layerId = "5E4DD32C-6BC9-4010-93B4-D8C61BED16DC";
paths = (
{
closed = 1;
nodes = (
"334 406 LINE",
"323 408 OFFCURVE",
"312 413 OFFCURVE",
"305 422 CURVE",
"305 559 LINE SMOOTH",
"305 633 OFFCURVE",
"269 659 OFFCURVE",
"195 659 CURVE SMOOTH",
"156 659 OFFCURVE",
"108 652 OFFCURVE",
"71 643 CURVE",
"75 594 LINE",
"109 597 OFFCURVE",
"164 601 OFFCURVE",
"189 601 CURVE SMOOTH",
"224 602 OFFCURVE",
"238 592 OFFCURVE",
"238 562 CURVE SMOOTH",
"238 404 LINE SMOOTH",
"246 368 OFFCURVE",
"277 358 OFFCURVE",
"329 354 CURVE"
);
},
{
closed = 1;
nodes = (
"182 355 OFFCURVE",
"231 371 OFFCURVE",
"262 392 CURVE",
"261 433 LINE",
"233 422 OFFCURVE",
"189 410 OFFCURVE",
"156 410 CURVE SMOOTH",
"133 410 OFFCURVE",
"121 424 OFFCURVE",
"121 449 CURVE SMOOTH",
"121 475 OFFCURVE",
"132 485 OFFCURVE",
"161 487 CURVE SMOOTH",
"258 494 LINE",
"257 541 LINE",
"151 535 LINE SMOOTH",
"85 531 OFFCURVE",
"53 503 OFFCURVE",
"53 447 CURVE SMOOTH",
"53 392 OFFCURVE",
"87 355 OFFCURVE",
"138 355 CURVE SMOOTH"
);
}
);
width = 387.56863;
}
);
unicode = 00AA;
},
{
color = 5;
glyphname = ordmasculine;
layers = (
{
layerId = "459CA063-FA7D-4205-A795-7B6CE244EAAB";
paths = (
{
closed = 1;
nodes = (
"253 386 OFFCURVE",
"290 430 OFFCURVE",
"290 524 CURVE SMOOTH",
"290 618 OFFCURVE",
"253 659 OFFCURVE",
"177 659 CURVE SMOOTH",
"101 659 OFFCURVE",
"62 618 OFFCURVE",
"62 524 CURVE SMOOTH",
"62 430 OFFCURVE",
"101 386 OFFCURVE",
"177 386 CURVE SMOOTH"
);
},
{
closed = 1;
nodes = (
"120 418 OFFCURVE",
"96 448 OFFCURVE",
"96 524 CURVE SMOOTH",
"96 600 OFFCURVE",
"120 627 OFFCURVE",
"177 627 CURVE SMOOTH",
"234 627 OFFCURVE",
"256 600 OFFCURVE",
"256 524 CURVE SMOOTH",
"256 448 OFFCURVE",
"234 418 OFFCURVE",
"177 418 CURVE SMOOTH"
);
}
);
width = 353;
},
{
layerId = "EA657207-4E15-4023-BA2A-6FA5407A60CD";
paths = (
{
closed = 1;
nodes = (
"291 379 OFFCURVE",
"338 418 OFFCURVE",
"338 523 CURVE SMOOTH",
"338 626 OFFCURVE",
"291 666 OFFCURVE",
"177 666 CURVE SMOOTH",
"63 666 OFFCURVE",
"15 626 OFFCURVE",
"15 523 CURVE SMOOTH",
"15 418 OFFCURVE",
"63 379 OFFCURVE",
"177 379 CURVE SMOOTH"
);
},
{
closed = 1;
nodes = (
"156 479 OFFCURVE",
"146 490 OFFCURVE",
"146 523 CURVE SMOOTH",
"146 555 OFFCURVE",
"155 566 OFFCURVE",
"177 566 CURVE SMOOTH",
"198 566 OFFCURVE",
"207 556 OFFCURVE",
"207 523 CURVE SMOOTH",
"207 490 OFFCURVE",
"198 479 OFFCURVE",
"177 479 CURVE SMOOTH"
);
}
);
width = 353;
},
{
layerId = "5E4DD32C-6BC9-4010-93B4-D8C61BED16DC";
paths = (
{
closed = 1;
nodes = (
"283 355 OFFCURVE",
"329 404 OFFCURVE",
"329 509 CURVE SMOOTH",
"329 613 OFFCURVE",
"283 659 OFFCURVE",
"192 659 CURVE SMOOTH",
"100 659 OFFCURVE",
"53 613 OFFCURVE",
"53 509 CURVE SMOOTH",
"53 404 OFFCURVE",
"100 355 OFFCURVE",
"192 355 CURVE SMOOTH"
);
},
{
closed = 1;
nodes = (
"142 418 OFFCURVE",
"124 445 OFFCURVE",
"124 508 CURVE SMOOTH",
"124 572 OFFCURVE",
"142 596 OFFCURVE",
"192 596 CURVE SMOOTH",
"241 596 OFFCURVE",
"257 572 OFFCURVE",
"257 508 CURVE SMOOTH",
"257 445 OFFCURVE",
"241 418 OFFCURVE",
"192 418 CURVE SMOOTH"
);
}
);
width = 381.90196;
}
);
unicode = 00BA;
},
{
color = 5;
glyphname = pi;
layers = (
{
layerId = "459CA063-FA7D-4205-A795-7B6CE244EAAB";
paths = (
{
closed = 1;
nodes = (
"519 32 LINE",
"442 32 OFFCURVE",
"420 51 OFFCURVE",
"420 154 CURVE SMOOTH",
"420 475 LINE",
"385 476 LINE",
"385 154 LINE SMOOTH",
"385 30 OFFCURVE",
"418 0 OFFCURVE",
"519 0 CURVE"
);
},
{
closed = 1;
nodes = (
"152 0 LINE",
"181 475 LINE",
"147 475 LINE",
"116 0 LINE"
);
},
{
closed = 1;
nodes = (
"42 461 OFFCURVE",
"93 468 OFFCURVE",
"170 467 CURVE",
"176 468 LINE",
"389 468 LINE",
"396 469 LINE",
"468 468 OFFCURVE",
"515 477 OFFCURVE",
"531 484 CURVE",
"531 516 LINE",
"504 509 OFFCURVE",
"447 500 OFFCURVE",
"386 500 CURVE SMOOTH",
"162 500 LINE SMOOTH",
"103 500 OFFCURVE",
"49 493 OFFCURVE",
"25 487 CURVE",
"25 455 LINE"
);
}
);
width = 560;
},
{
layerId = "EA657207-4E15-4023-BA2A-6FA5407A60CD";
paths = (
{
closed = 1;
nodes = (
"513 164 LINE",
"436 164 OFFCURVE",
"424 161 OFFCURVE",
"424 264 CURVE SMOOTH",
"424 477 LINE",
"269 477 LINE",
"269 154 LINE",
"275 30 OFFCURVE",
"342 0 OFFCURVE",
"513 0 CURVE"
);
},
{
closed = 1;
nodes = (
"236 0 LINE",
"266 476 LINE",
"91 476 LINE",
"61 0 LINE"
);
},
{
closed = 1;
nodes = (
"36 288 OFFCURVE",
"89 295 OFFCURVE",
"169 295 CURVE SMOOTH",
"197 295 LINE",
"356 295 LINE",
"384 295 LINE SMOOTH",
"456 295 OFFCURVE",
"509 304 OFFCURVE",
"528 311 CURVE",
"528 516 LINE",
"492 504 OFFCURVE",
"425 500 OFFCURVE",
"384 500 CURVE SMOOTH",
"168 500 LINE SMOOTH",
"128 499 OFFCURVE",
"60 495 OFFCURVE",
"18 487 CURVE",
"18 282 LINE"
);
}
);
width = 550;
},
{
layerId = "5E4DD32C-6BC9-4010-93B4-D8C61BED16DC";
paths = (
{
closed = 1;
nodes = (
"521 63 LINE",
"452 63 OFFCURVE",
"435 81 OFFCURVE",
"435 154 CURVE SMOOTH",
"435 451 LINE",
"357 450 LINE",
"357 154 LINE SMOOTH",
"357 26 OFFCURVE",
"385 -4 OFFCURVE",
"521 -4 CURVE"
);
},
{
closed = 1;
nodes = (
"177 0 LINE",
"205 447 LINE",
"130 447 LINE",
"98 0 LINE"
);
},
{
closed = 1;
nodes = (
"54 428 OFFCURVE",
"111 436 OFFCURVE",
"150 427 CURVE",
"173 433 LINE",
"363 433 LINE",
"376 436 LINE",
"455 430 OFFCURVE",
"510 440 OFFCURVE",
"530 449 CURVE",
"530 514 LINE",
"505 508 OFFCURVE",
"453 500 OFFCURVE",
"400 500 CURVE SMOOTH",
"165 500 LINE SMOOTH",
"104 500 OFFCURVE",
"48 492 OFFCURVE",
"22 485 CURVE",
"22 420 LINE"
);
}
);
width = 560;
}
);
unicode = 03C0;
},
{
color = 5;
glyphname = "hamza-ar";
layers = (
{
anchors = (
{
name = bottom;
position = "{244, -100}";
},
{
name = top;
position = "{244, 549}";
}
);
layerId = "459CA063-FA7D-4205-A795-7B6CE244EAAB";
paths = (
{
closed = 1;
nodes = (
"176 28 LINE",
"130 80 OFFCURVE",
"110 126 OFFCURVE",
"110 181 CURVE SMOOTH",
"110 284 OFFCURVE",
"186 358 OFFCURVE",
"290 358 CURVE SMOOTH",
"330 358 OFFCURVE",
"363 349 OFFCURVE",
"394 329 CURVE",
"413 357 LINE",
"378 380 OFFCURVE",
"336 392 OFFCURVE",
"290 392 CURVE SMOOTH",
"173 392 OFFCURVE",
"75 308 OFFCURVE",
"75 181 CURVE SMOOTH",
"75 116 OFFCURVE",
"100 61 OFFCURVE",
"150 5 CURVE"
);
},
{
closed = 1;
nodes = (
"448 0 LINE",
"448 34 LINE",
"40 34 LINE",
"40 0 LINE"
);
}
);
width = 498;
},
{
anchors = (
{
name = bottom;
position = "{327, -100}";
},
{
name = top;
position = "{327, 575}";
}
);
layerId = "EA657207-4E15-4023-BA2A-6FA5407A60CD";
paths = (
{
closed = 1;
nodes = (
"344 161 LINE",
"322 185 OFFCURVE",
"313 207 OFFCURVE",
"313 234 CURVE SMOOTH",
"313 282 OFFCURVE",
"348 317 OFFCURVE",
"395 317 CURVE SMOOTH",
"413 317 OFFCURVE",
"428 313 OFFCURVE",
"443 303 CURVE",
"565 461 LINE",
"524 487 OFFCURVE",
"455 505 OFFCURVE",
"392 505 CURVE SMOOTH",
"240 505 OFFCURVE",
"89 399 OFFCURVE",
"89 230 CURVE SMOOTH",
"89 160 OFFCURVE",
"115 105 OFFCURVE",
"176 37 CURVE"
);
},
{
closed = 1;
nodes = (
"613 0 LINE",
"613 188 LINE",
"40 188 LINE",
"40 0 LINE"
);
}
);
width = 633;
},
{
anchors = (
{
name = bottom;
position = "{272, -100}";
},
{
name = top;
position = "{272, 549}";
}
);
layerId = "5E4DD32C-6BC9-4010-93B4-D8C61BED16DC";
paths = (
{
closed = 1;
nodes = (
"225 61 LINE",
"183 108 OFFCURVE",
"165 151 OFFCURVE",
"165 200 CURVE SMOOTH",
"165 292 OFFCURVE",
"231 358 OFFCURVE",
"323 358 CURVE SMOOTH",
"357 358 OFFCURVE",
"385 350 OFFCURVE",
"413 332 CURVE",
"456 391 LINE",
"418 415 OFFCURVE",
"371 429 OFFCURVE",
"322 429 CURVE SMOOTH",
"192 429 OFFCURVE",
"88 334 OFFCURVE",
"88 200 CURVE SMOOTH",
"88 132 OFFCURVE",
"114 74 OFFCURVE",
"167 14 CURVE"
);
},
{
closed = 1;
nodes = (
"503 0 LINE",
"503 71 LINE",
"40 71 LINE",
"40 0 LINE"
);
}
);
width = 544.15686;
},
{
anchors = (
{
name = bottom;
position = "{327, -100}";
},
{
name = top;
position = "{327, 575}";
}
);
associatedMasterId = "EA657207-4E15-4023-BA2A-6FA5407A60CD";
layerId = "DD17C7C5-7B1F-4B3E-A173-C12F78A8AD2A";
name = "Mar 11 20, 19:16";
paths = (
{
closed = 1;
nodes = (
"344 161 LINE",
"322 185 OFFCURVE",
"313 207 OFFCURVE",
"313 234 CURVE SMOOTH",
"313 282 OFFCURVE",
"348 317 OFFCURVE",
"395 317 CURVE SMOOTH",
"413 317 OFFCURVE",
"428 313 OFFCURVE",
"443 303 CURVE",
"565 461 LINE",
"524 487 OFFCURVE",
"454 505 OFFCURVE",
"395 505 CURVE SMOOTH",
"226 505 OFFCURVE",
"89 387 OFFCURVE",
"89 234 CURVE SMOOTH",
"89 159 OFFCURVE",
"115 105 OFFCURVE",
"176 37 CURVE"
);
},
{
closed = 1;
nodes = (
"613 0 LINE",
"613 188 LINE",
"40 188 LINE",
"40 0 LINE"
);
}
);
width = 633;
}
);
unicode = 0621;
},
{
color = 5;
glyphname = "alef-ar";
layers = (
{
anchors = (
{
name = bottom;
position = "{118, -80}";
},
{
name = top;
position = "{118, 783}";
}
);
layerId = "459CA063-FA7D-4205-A795-7B6CE244EAAB";
paths = (
{
closed = 1;
nodes = (
"135 0 LINE",
"135 730 LINE",
"100 730 LINE",
"100 0 LINE"
);
}
);
width = 235;
},
{
anchors = (
{
name = bottom;
position = "{192, -90}";
},
{
name = top;
position = "{192, 775}";
}
);
layerId = "EA657207-4E15-4023-BA2A-6FA5407A60CD";
paths = (
{
closed = 1;
nodes = (
"304 0 LINE",
"304 690 LINE",
"80 690 LINE",
"80 0 LINE"
);
}
);
width = 384;
},
{
anchors = (
{
name = bottom;
position = "{135, -90}";
},
{
name = top;
position = "{135, 783}";
}
);
layerId = "5E4DD32C-6BC9-4010-93B4-D8C61BED16DC";
paths = (
{
closed = 1;
nodes = (
"173 0 LINE",
"173 717 LINE",
"96 717 LINE",
"96 0 LINE"
);
}
);
width = 269.07843;
}
);
unicode = 0627;
},
{
color = 5;
glyphname = "alef-ar.fina";
layers = (
{
components = (
{
name = "alef-ar";
},
{
name = connection_r;
transform = "{1, 0, 0, 1, 185, 0}";
}
);
layerId = "459CA063-FA7D-4205-A795-7B6CE244EAAB";
paths = (
{
closed = 1;
nodes = (
"235 0 LINE",
"235 34 LINE",
"135 34 LINE",
"135 0 LINE"
);
}
);
width = 235;
},
{
components = (
{
name = "alef-ar";
},
{
name = connection_r;
transform = "{1, 0, 0, 1, 355, 0}";
}
);
layerId = "EA657207-4E15-4023-BA2A-6FA5407A60CD";
paths = (
{
closed = 1;
nodes = (
"405 0 LINE",
"405 188 LINE",
"304 188 LINE",
"304 0 LINE"
);
}
);
width = 405;
},
{
components = (
{
alignment = -1;
name = "alef-ar";
},
{
alignment = -1;
name = connection_r;
transform = "{1, 0, 0, 1, 245, 0}";
}
);
layerId = "5E4DD32C-6BC9-4010-93B4-D8C61BED16DC";
paths = (
{
closed = 1;
nodes = (
"295 0 LINE",
"295 71 LINE",
"173 71 LINE",
"173 0 LINE"
);
}
);
width = 294.52941;
}
);
unicode = FE8E;
},
{
color = 5;
glyphname = "alef-ar.fina.short";
layers = (
{
components = (
{
name = connection_r;
transform = "{1, 0, 0, 1, 185, 0}";
},
{
name = "alef-ar.short";
}
);
layerId = "459CA063-FA7D-4205-A795-7B6CE244EAAB";
paths = (
{
closed = 1;
nodes = (
"235 0 LINE",
"235 34 LINE",
"135 34 LINE",
"135 0 LINE"
);
}
);
width = 235;
},
{
components = (
{
name = connection_r;
transform = "{1, 0, 0, 1, 355, 0}";
},
{
name = "alef-ar.short";
}
);
layerId = "EA657207-4E15-4023-BA2A-6FA5407A60CD";
paths = (
{
closed = 1;
nodes = (
"405 0 LINE",
"405 188 LINE",
"304 188 LINE",
"304 0 LINE"
);
}
);
width = 405;
},
{
components = (
{
alignment = -1;
name = connection_r;
transform = "{1, 0, 0, 1, 245, 0}";
},
{
alignment = -1;
name = "alef-ar.short";
}
);
layerId = "5E4DD32C-6BC9-4010-93B4-D8C61BED16DC";
paths = (
{
closed = 1;
nodes = (
"295 0 LINE",
"295 71 LINE",
"173 71 LINE",
"173 0 LINE"
);
}
);
width = 294.52941;
}
);
},
{
color = 5;
glyphname = "behDotless-ar";
layers = (
{
anchors = (
{
name = bottom;
position = "{356, -73}";
},
{
name = top;
position = "{356, 480}";
}
);
layerId = "459CA063-FA7D-4205-A795-7B6CE244EAAB";
paths = (
{
closed = 1;
nodes = (
"671 0 LINE",
"671 500 LINE",
"636 500 LINE",
"636 34 LINE",
"337 34 LINE SMOOTH",
"154 34 OFFCURVE",
"75 90 OFFCURVE",
"75 213 CURVE SMOOTH",
"75 271 OFFCURVE",
"92 345 OFFCURVE",
"100 386 CURVE",
"66 392 LINE",
"64 379 OFFCURVE",
"40 275 OFFCURVE",
"40 213 CURVE SMOOTH",
"40 67 OFFCURVE",
"138 0 OFFCURVE",
"337 0 CURVE SMOOTH"
);
}
);
width = 761;
},
{
anchors = (
{
name = bottom;
position = "{484, -113}";
},
{
name = top;
position = "{464, 573}";
}
);
layerId = "EA657207-4E15-4023-BA2A-6FA5407A60CD";
paths = (
{
closed = 1;
nodes = (
"887 0 LINE",
"887 505 LINE",
"663 505 LINE",
"663 188 LINE",
"438 188 LINE SMOOTH",
"348 188 OFFCURVE",
"264 199 OFFCURVE",
"264 309 CURVE SMOOTH",
"264 346 OFFCURVE",
"273 394 OFFCURVE",
"280 425 CURVE",
"63 468 LINE",
"55 436 OFFCURVE",
"40 369 OFFCURVE",
"40 305 CURVE SMOOTH",
"40 111 OFFCURVE",
"181 0 OFFCURVE",
"420 0 CURVE SMOOTH"
);
}
);
width = 917;
},
{
anchors = (
{
name = bottom;
position = "{375, -90}";
},
{
name = top;
position = "{375, 493}";
}
);
layerId = "5E4DD32C-6BC9-4010-93B4-D8C61BED16DC";
paths = (
{
closed = 1;
nodes = (
"709 0 LINE",
"709 500 LINE",
"631 500 LINE",
"631 71 LINE",
"337 71 LINE SMOOTH",
"175 71 OFFCURVE",
"118 113 OFFCURVE",
"118 213 CURVE SMOOTH",
"118 270 OFFCURVE",
"136 345 OFFCURVE",
"142 378 CURVE",
"66 392 LINE",
"64 374 OFFCURVE",
"40 277 OFFCURVE",
"40 213 CURVE SMOOTH",
"40 67 OFFCURVE",
"138 0 OFFCURVE",
"337 0 CURVE SMOOTH"
);
}
);
width = 789.90196;
}
);
unicode = 066E;
},
{
color = 5;
glyphname = "behDotless-ar.fina";
layers = (
{
components = (
{
name = "behDotless-ar";
},
{
name = connection_r;
transform = "{1, 0, 0, 1, 721, 0}";
}
);
layerId = "459CA063-FA7D-4205-A795-7B6CE244EAAB";
paths = (
{
closed = 1;
nodes = (
"771 0 LINE",
"771 34 LINE",
"671 34 LINE",
"671 0 LINE"
);
}
);
width = 771;
},
{
components = (
{
name = "behDotless-ar";
},
{
name = connection_r;
transform = "{1, 0, 0, 1, 938, 0}";
}
);
layerId = "EA657207-4E15-4023-BA2A-6FA5407A60CD";
paths = (
{
closed = 1;
nodes = (
"988 0 LINE",
"988 188 LINE",
"887 188 LINE",
"887 0 LINE"
);
}
);
width = 988;
},
{
components = (
{
alignment = -1;
name = "behDotless-ar";
},
{
alignment = -1;
name = connection_r;
transform = "{1, 0, 0, 1, 767, 0}";
}
);
layerId = "5E4DD32C-6BC9-4010-93B4-D8C61BED16DC";
paths = (
{
closed = 1;
nodes = (
"817 0 LINE",
"817 71 LINE",
"709 71 LINE",
"709 0 LINE"
);
}
);
width = 816.72549;
}
);
},
{
color = 5;
glyphname = "behDotless-ar.medi";
layers = (
{
components = (
{
name = "behDotless-ar.init";
},
{
name = connection_r;
transform = "{1, 0, 0, 1, 185, 0}";
}
);
layerId = "459CA063-FA7D-4205-A795-7B6CE244EAAB";
paths = (
{
closed = 1;
nodes = (
"235 0 LINE",
"235 34 LINE",
"135 34 LINE",
"135 0 LINE"
);
}
);
width = 235;
},
{
components = (
{
name = "behDotless-ar.init";
},
{
name = connection_r;
transform = "{1, 0, 0, 1, 376, 0}";
}
);
layerId = "EA657207-4E15-4023-BA2A-6FA5407A60CD";
paths = (
{
closed = 1;
nodes = (
"426 0 LINE",
"426 188 LINE",
"325 188 LINE",
"325 0 LINE"
);
}
);
width = 426;
},
{
components = (
{
alignment = -1;
name = "behDotless-ar.init";
},
{
alignment = -1;
name = connection_r;
transform = "{1, 0, 0, 1, 244, 0}";
}
);
layerId = "5E4DD32C-6BC9-4010-93B4-D8C61BED16DC";
paths = (
{
closed = 1;
nodes = (
"294 0 LINE",
"294 71 LINE",
"186 71 LINE",
"186 0 LINE"
);
}
);
width = 294.09804;
}
);
},
{
color = 5;
glyphname = "behDotless-ar.medi.alt";
layers = (
{
anchors = (
{
name = bottom;
position = "{118, -73}";
},
{
name = top;
position = "{118, 573}";
}
);
components = (
{
name = connection_l;
},
{
name = connection_r;
transform = "{1, 0, 0, 1, 185, 0}";
}
);
layerId = "459CA063-FA7D-4205-A795-7B6CE244EAAB";
paths = (
{
closed = 1;
nodes = (
"235 0 LINE",
"235 34 LINE",
"135 34 LINE",
"135 0 LINE"
);
},
{
closed = 1;
nodes = (
"135 0 LINE",
"135 500 LINE",
"100 500 LINE",
"100 20 LINE",
"115 34 LINE",
"0 34 LINE",
"0 0 LINE"
);
}
);
width = 235;
},
{
anchors = (
{
name = bottom;
position = "{263, -113}";
},
{
name = top;
position = "{263, 600}";
}
);
components = (
{
name = connection_l;
},
{
name = connection_r;
transform = "{1, 0, 0, 1, 476, 0}";
}
);
layerId = "EA657207-4E15-4023-BA2A-6FA5407A60CD";
paths = (
{
closed = 1;
nodes = (
"526 0 LINE",
"526 188 LINE",
"375 188 LINE",
"375 0 LINE"
);
},
{
closed = 1;
nodes = (
"375 0 LINE",
"375 505 LINE",
"151 505 LINE",
"151 66 LINE",
"297 188 LINE",
"0 188 LINE",
"0 0 LINE"
);
}
);
width = 526;
},
{
anchors = (
{
name = bottom;
position = "{147, -90}";
},
{
name = top;
position = "{147, 590}";
}
);
components = (
{
alignment = -1;
name = connection_l;
},
{
alignment = -1;
name = connection_r;
transform = "{1, 0, 0, 1, 244, 0}";
}
);
layerId = "5E4DD32C-6BC9-4010-93B4-D8C61BED16DC";
paths = (
{
closed = 1;
nodes = (
"294 0 LINE",
"294 71 LINE",
"186 71 LINE",
"186 0 LINE"
);
},
{
closed = 1;
nodes = (
"186 0 LINE",
"186 500 LINE",
"108 500 LINE",
"108 42 LINE",
"144 71 LINE",
"0 71 LINE",
"0 0 LINE"
);
}
);
width = 294.09804;
}
);
},
{
color = 5;
glyphname = "behDotless-ar.init";
layers = (
{
anchors = (
{
name = bottom;
position = "{118, -73}";
},
{
name = top;
position = "{118, 573}";
}
);
components = (
{
name = connection_l;
}
);
layerId = "459CA063-FA7D-4205-A795-7B6CE244EAAB";
paths = (
{
closed = 1;
nodes = (
"135 0 LINE",
"135 500 LINE",
"100 500 LINE",
"100 20 LINE",
"115 34 LINE",
"0 34 LINE",
"0 0 LINE"
);
}
);
width = 225;
},
{
anchors = (
{
name = bottom;
position = "{213, -113}";
},
{
name = top;
position = "{213, 600}";
}
);
components = (
{
name = connection_l;
}
);
layerId = "EA657207-4E15-4023-BA2A-6FA5407A60CD";
paths = (
{
closed = 1;
nodes = (
"325 0 LINE",
"325 505 LINE",
"101 505 LINE",
"101 66 LINE",
"247 188 LINE",
"0 188 LINE",
"0 0 LINE"
);
}
);
width = 385;
},
{
anchors = (
{
name = bottom;
position = "{147, -90}";
},
{
name = top;
position = "{147, 590}";
}
);
components = (
{
alignment = -1;
name = connection_l;
}
);
layerId = "5E4DD32C-6BC9-4010-93B4-D8C61BED16DC";
paths = (
{
closed = 1;
nodes = (
"186 0 LINE",
"186 500 LINE",
"108 500 LINE",
"108 42 LINE",
"144 71 LINE",
"0 71 LINE",
"0 0 LINE"
);
}
);
width = 267.27451;
}
);
},
{
color = 5;
glyphname = "behDotless-ar.init.alt";
layers = (
{
anchors = (
{
name = bottom;
position = "{118, -73}";
},
{
name = top;
position = "{118, 573}";
}
);
components = (
{
name = connection_l;
}
);
layerId = "459CA063-FA7D-4205-A795-7B6CE244EAAB";
paths = (
{
closed = 1;
nodes = (
"135 0 LINE",
"135 500 LINE",
"100 500 LINE",
"100 20 LINE",
"115 34 LINE",
"0 34 LINE",
"0 0 LINE"
);
}
);
width = 225;
},
{
anchors = (
{
name = bottom;
position = "{263, -113}";
},
{
name = top;
position = "{263, 600}";
}
);
components = (
{
name = connection_l;
}
);
layerId = "EA657207-4E15-4023-BA2A-6FA5407A60CD";
paths = (
{
closed = 1;
nodes = (
"375 0 LINE",
"375 505 LINE",
"151 505 LINE",
"151 66 LINE",
"297 188 LINE",
"0 188 LINE",
"0 0 LINE"
);
}
);
width = 435;
},
{
anchors = (
{
name = bottom;
position = "{147, -90}";
},
{
name = top;
position = "{147, 590}";
}
);
components = (
{
alignment = -1;
name = connection_l;
}
);
layerId = "5E4DD32C-6BC9-4010-93B4-D8C61BED16DC";
paths = (
{
closed = 1;
nodes = (
"186 0 LINE",
"186 500 LINE",
"108 500 LINE",
"108 42 LINE",
"144 71 LINE",
"0 71 LINE",
"0 0 LINE"
);
}
);
width = 267.27451;
}
);
},
{
color = 5;
glyphname = "jeem-ar";
layers = (
{
components = (
{
name = "hah-ar.alt";
}
);
layerId = "459CA063-FA7D-4205-A795-7B6CE244EAAB";
paths = (
{
closed = 1;
nodes = (
"366 -165 LINE",
"366 -110 LINE",
"331 -110 LINE",
"331 -165 LINE"
);
}
);
width = 569;
},
{
components = (
{
name = "hah-ar.alt";
}
);
layerId = "EA657207-4E15-4023-BA2A-6FA5407A60CD";
paths = (
{
closed = 1;
nodes = (
"564 -181 LINE",
"564 -70 LINE",
"430 -70 LINE",
"430 -181 LINE"
);
}
);
width = 661;
},
{
components = (
{
alignment = -1;
name = "hah-ar.alt";
}
);
layerId = "5E4DD32C-6BC9-4010-93B4-D8C61BED16DC";
paths = (
{
closed = 1;
nodes = (
"405 -167 LINE",
"405 -88 LINE",
"338 -88 LINE",
"338 -167 LINE"
);
}
);
width = 580.21569;
}
);
unicode = 062C;
},
{
color = 5;
glyphname = "jeem-ar.fina";
layers = (
{
components = (
{
name = "hah-ar.fina.alt";
}
);
layerId = "459CA063-FA7D-4205-A795-7B6CE244EAAB";
paths = (
{
closed = 1;
nodes = (
"366 -165 LINE",
"366 -110 LINE",
"331 -110 LINE",
"331 -165 LINE"
);
}
);
width = 609;
},
{
components = (
{
name = "hah-ar.fina.alt";
}
);
layerId = "EA657207-4E15-4023-BA2A-6FA5407A60CD";
paths = (
{
closed = 1;
nodes = (
"564 -171 LINE",
"564 -60 LINE",
"430 -60 LINE",
"430 -171 LINE"
);
}
);
width = 702;
},
{
components = (
{
alignment = -1;
name = "hah-ar.fina.alt";
}
);
layerId = "5E4DD32C-6BC9-4010-93B4-D8C61BED16DC";
paths = (
{
closed = 1;
nodes = (
"405 -167 LINE",
"405 -88 LINE",
"338 -88 LINE",
"338 -167 LINE"
);
}
);
width = 628.41176;
}
);
unicode = FE9E;
},
{
color = 5;
glyphname = "hah-ar";
layers = (
{
anchors = (
{
name = bottom;
position = "{281, -400}";
},
{
name = center;
position = "{329, -137}";
},
{
name = top;
position = "{281, 573}";
}
);
layerId = "459CA063-FA7D-4205-A795-7B6CE244EAAB";
paths = (
{
closed = 1;
nodes = (
"328 -270 OFFCURVE",
"285 -274 OFFCURVE",
"251 -274 CURVE SMOOTH",
"133 -274 OFFCURVE",
"75 -227 OFFCURVE",
"75 -137 CURVE SMOOTH",
"75 -46 OFFCURVE",
"133 0 OFFCURVE",
"253 0 CURVE SMOOTH",
"474 0 LINE",
"474 34 LINE",
"253 34 LINE SMOOTH",
"116 34 OFFCURVE",
"40 -25 OFFCURVE",
"40 -137 CURVE SMOOTH",
"40 -249 OFFCURVE",
"117 -308 OFFCURVE",
"252 -308 CURVE SMOOTH",
"305 -308 OFFCURVE",
"361 -299 OFFCURVE",
"401 -290 CURVE",
"395 -261 LINE"
);
},
{
closed = 1;
nodes = (
"186 459 OFFCURVE",
"241 465 OFFCURVE",
"284 465 CURVE SMOOTH",
"410 465 OFFCURVE",
"474 416 OFFCURVE",
"474 317 CURVE SMOOTH",
"474 0 LINE",
"509 0 LINE",
"509 317 LINE SMOOTH",
"509 437 OFFCURVE",
"428 500 OFFCURVE",
"281 500 CURVE SMOOTH",
"214 500 OFFCURVE",
"140 487 OFFCURVE",
"88 475 CURVE",
"92 446 LINE"
);
}
);
width = 569;
},
{
anchors = (
{
name = bottom;
position = "{377, -450}";
},
{
name = center;
position = "{465, -122}";
},
{
name = top;
position = "{269, 600}";
}
);
layerId = "EA657207-4E15-4023-BA2A-6FA5407A60CD";
paths = (
{
closed = 1;
nodes = (
"438 -141 OFFCURVE",
"393 -144 OFFCURVE",
"362 -144 CURVE SMOOTH",
"291 -144 OFFCURVE",
"264 -123 OFFCURVE",
"264 -72 CURVE SMOOTH",
"264 -21 OFFCURVE",
"291 0 OFFCURVE",
"362 0 CURVE SMOOTH",
"377 0 LINE",
"377 188 LINE",
"362 188 LINE SMOOTH",
"173 188 OFFCURVE",
"40 87 OFFCURVE",
"40 -72 CURVE SMOOTH",
"40 -231 OFFCURVE",
"173 -332 OFFCURVE",
"362 -332 CURVE SMOOTH",
"418 -332 OFFCURVE",
"474 -324 OFFCURVE",
"531 -312 CURVE",
"499 -134 LINE"
);
},
{
closed = 1;
nodes = (
"169 314 OFFCURVE",
"207 317 OFFCURVE",
"235 317 CURVE SMOOTH",
"338 317 OFFCURVE",
"377 277 OFFCURVE",
"377 209 CURVE SMOOTH",
"377 0 LINE",
"601 0 LINE",
"601 209 LINE SMOOTH",
"601 390 OFFCURVE",
"452 505 OFFCURVE",
"269 505 CURVE SMOOTH",
"213 505 OFFCURVE",
"158 494 OFFCURVE",
"90 477 CURVE",
"109 306 LINE"
);
}
);
width = 661;
},
{
anchors = (
{
name = bottom;
position = "{276, -400}";
},
{
name = center;
position = "{353, -122}";
},
{
name = top;
position = "{276, 573}";
}
);
layerId = "5E4DD32C-6BC9-4010-93B4-D8C61BED16DC";
paths = (
{
closed = 1;
nodes = (
"356 -243 OFFCURVE",
"310 -247 OFFCURVE",
"277 -247 CURVE SMOOTH",
"167 -247 OFFCURVE",
"118 -204 OFFCURVE",
"118 -124 CURVE SMOOTH",
"118 -43 OFFCURVE",
"167 0 OFFCURVE",
"278 0 CURVE SMOOTH",
"443 0 LINE",
"443 71 LINE",
"278 71 LINE SMOOTH",
"129 71 OFFCURVE",
"40 1 OFFCURVE",
"40 -123 CURVE SMOOTH",
"40 -248 OFFCURVE",
"130 -318 OFFCURVE",
"277 -318 CURVE SMOOTH",
"324 -318 OFFCURVE",
"375 -311 OFFCURVE",
"438 -297 CURVE",
"426 -234 LINE"
);
},
{
closed = 1;
nodes = (
"172 421 OFFCURVE",
"243 428 OFFCURVE",
"278 428 CURVE SMOOTH",
"388 428 OFFCURVE",
"443 385 OFFCURVE",
"443 298 CURVE SMOOTH",
"443 0 LINE",
"520 0 LINE",
"520 298 LINE SMOOTH",
"520 428 OFFCURVE",
"427 500 OFFCURVE",
"276 500 CURVE SMOOTH",
"214 500 OFFCURVE",
"146 488 OFFCURVE",
"91 475 CURVE",
"100 411 LINE"
);
}
);
width = 580.21569;
}
);
unicode = 062D;
},
{
color = 5;
glyphname = "hah-ar.alt";
layers = (
{
anchors = (
{
name = bottom;
position = "{377, -450}";
},
{
name = center;
position = "{465, -122}";
},
{
name = top;
position = "{269, 600}";
}
);
layerId = "EA657207-4E15-4023-BA2A-6FA5407A60CD";
paths = (
{
closed = 1;
nodes = (
"368 -332 OFFCURVE",
"374 -332 OFFCURVE",
"380 -332 CURVE",
"380 -144 LINE",
"374 -144 OFFCURVE",
"368 -144 OFFCURVE",
"362 -144 CURVE SMOOTH",
"291 -144 OFFCURVE",
"264 -123 OFFCURVE",
"264 -72 CURVE SMOOTH",
"264 -21 OFFCURVE",
"291 0 OFFCURVE",
"362 0 CURVE SMOOTH",
"601 0 LINE",
"601 209 LINE SMOOTH",
"601 390 OFFCURVE",
"452 505 OFFCURVE",
"269 505 CURVE SMOOTH",
"213 505 OFFCURVE",
"158 494 OFFCURVE",
"90 477 CURVE",
"109 306 LINE",
"169 314 OFFCURVE",
"207 317 OFFCURVE",
"235 317 CURVE SMOOTH",
"338 317 OFFCURVE",
"377 277 OFFCURVE",
"377 209 CURVE SMOOTH",
"377 188 LINE",
"362 188 LINE SMOOTH",
"173 188 OFFCURVE",
"40 87 OFFCURVE",
"40 -72 CURVE SMOOTH",
"40 -231 OFFCURVE",
"173 -332 OFFCURVE",
"362 -332 CURVE SMOOTH"
);
}
);
width = 661;
},
{
anchors = (
{
name = bottom;
position = "{281, -400}";
},
{
name = center;
position = "{329, -137}";
},
{
name = top;
position = "{281, 573}";
}
);
layerId = "459CA063-FA7D-4205-A795-7B6CE244EAAB";
paths = (
{
closed = 1;
nodes = (
"305 -308 OFFCURVE",
"361 -299 OFFCURVE",
"401 -290 CURVE",
"395 -261 LINE",
"328 -270 OFFCURVE",
"285 -274 OFFCURVE",
"251 -274 CURVE SMOOTH",
"133 -274 OFFCURVE",
"75 -227 OFFCURVE",
"75 -137 CURVE SMOOTH",
"75 -46 OFFCURVE",
"133 0 OFFCURVE",
"253 0 CURVE SMOOTH",
"509 0 LINE",
"509 317 LINE SMOOTH",
"509 437 OFFCURVE",
"428 500 OFFCURVE",
"281 500 CURVE SMOOTH",
"214 500 OFFCURVE",
"140 487 OFFCURVE",
"88 475 CURVE",
"92 446 LINE",
"186 459 OFFCURVE",
"241 465 OFFCURVE",
"284 465 CURVE SMOOTH",
"410 465 OFFCURVE",
"474 416 OFFCURVE",
"474 317 CURVE SMOOTH",
"474 34 LINE",
"253 34 LINE SMOOTH",
"116 34 OFFCURVE",
"40 -25 OFFCURVE",
"40 -137 CURVE SMOOTH",
"40 -249 OFFCURVE",
"117 -308 OFFCURVE",
"252 -308 CURVE SMOOTH"
);
}
);
width = 569;
},
{
anchors = (
{
name = bottom;
position = "{281, -400}";
},
{
name = center;
position = "{349, -137}";
},
{
name = top;
position = "{281, 573}";
}
);
associatedMasterId = "459CA063-FA7D-4205-A795-7B6CE244EAAB";
layerId = "BB388EB8-0491-4589-8204-840803A56E5C";
name = "Mar 18 19, 19:44";
paths = (
{
closed = 1;
nodes = (
"334 -269 OFFCURVE",
"287 -274 OFFCURVE",
"251 -274 CURVE SMOOTH",
"133 -274 OFFCURVE",
"75 -227 OFFCURVE",
"75 -137 CURVE SMOOTH",
"75 -46 OFFCURVE",
"133 0 OFFCURVE",
"253 0 CURVE SMOOTH",
"474 0 LINE",
"474 34 LINE",
"253 34 LINE SMOOTH",
"116 34 OFFCURVE",
"40 -25 OFFCURVE",
"40 -137 CURVE SMOOTH",
"40 -249 OFFCURVE",
"117 -308 OFFCURVE",
"252 -308 CURVE SMOOTH",
"309 -308 OFFCURVE",
"369 -298 OFFCURVE",
"409 -288 CURVE",
"404 -305 LINE",
"392 -246 LINE",
"410 -259 LINE"
);
},
{
closed = 1;
nodes = (
"186 459 OFFCURVE",
"241 465 OFFCURVE",
"284 465 CURVE SMOOTH",
"410 465 OFFCURVE",
"474 416 OFFCURVE",
"474 317 CURVE SMOOTH",
"474 0 LINE",
"509 0 LINE",
"509 317 LINE SMOOTH",
"509 437 OFFCURVE",
"428 500 OFFCURVE",
"281 500 CURVE SMOOTH",
"214 500 OFFCURVE",
"140 487 OFFCURVE",
"88 475 CURVE",
"92 446 LINE"
);
}
);
visible = 1;
width = 569;
},
{
anchors = (
{
name = bottom;
position = "{276, -400}";
},
{
name = center;
position = "{353, -122}";
},
{
name = top;
position = "{276, 573}";
}
);
layerId = "5E4DD32C-6BC9-4010-93B4-D8C61BED16DC";
paths = (
{
closed = 1;
nodes = (
"315 -318 OFFCURVE",
"355 -313 OFFCURVE",
"389 -306 CURVE",
"376 -239 LINE",
"331 -245 OFFCURVE",
"301 -247 OFFCURVE",
"277 -247 CURVE SMOOTH",
"167 -247 OFFCURVE",
"118 -204 OFFCURVE",
"118 -124 CURVE SMOOTH",
"118 -43 OFFCURVE",
"167 0 OFFCURVE",
"278 0 CURVE SMOOTH",
"520 0 LINE",
"520 298 LINE SMOOTH",
"520 428 OFFCURVE",
"427 500 OFFCURVE",
"276 500 CURVE SMOOTH",
"214 500 OFFCURVE",
"146 488 OFFCURVE",
"91 475 CURVE",
"100 411 LINE",
"172 421 OFFCURVE",
"243 428 OFFCURVE",
"278 428 CURVE SMOOTH",
"388 428 OFFCURVE",
"443 385 OFFCURVE",
"443 298 CURVE SMOOTH",
"443 71 LINE",
"278 71 LINE SMOOTH",
"129 71 OFFCURVE",
"40 1 OFFCURVE",
"40 -123 CURVE SMOOTH",
"40 -248 OFFCURVE",
"130 -318 OFFCURVE",
"277 -318 CURVE SMOOTH"
);
}
);
width = 580.21569;
}
);
},
{
color = 5;
glyphname = "hah-ar.fina";
layers = (
{
components = (
{
name = "hah-ar";
},
{
name = connection_r;
transform = "{1, 0, 0, 1, 559, 0}";
}
);
layerId = "459CA063-FA7D-4205-A795-7B6CE244EAAB";
paths = (
{
closed = 1;
nodes = (
"609 0 LINE",
"609 34 LINE",
"509 34 LINE",
"509 0 LINE"
);
}
);
width = 609;
},
{
components = (
{
name = "hah-ar";
},
{
name = connection_r;
transform = "{1, 0, 0, 1, 652, 0}";
}
);
layerId = "EA657207-4E15-4023-BA2A-6FA5407A60CD";
paths = (
{
closed = 1;
nodes = (
"702 0 LINE",
"702 188 LINE",
"601 188 LINE",
"601 0 LINE"
);
}
);
width = 702;
},
{
components = (
{
alignment = -1;
name = "hah-ar";
},
{
alignment = -1;
name = connection_r;
transform = "{1, 0, 0, 1, 578, 0}";
}
);
layerId = "5E4DD32C-6BC9-4010-93B4-D8C61BED16DC";
paths = (
{
closed = 1;
nodes = (
"628 0 LINE",
"628 71 LINE",
"520 71 LINE",
"520 0 LINE"
);
}
);
width = 628.41176;
}
);
unicode = FEA2;
},
{
color = 5;
glyphname = "hah-ar.fina.alt";
layers = (
{
components = (
{
name = connection_r;
transform = "{1, 0, 0, 1, 559, 0}";
},
{
name = "hah-ar.alt";
}
);
layerId = "459CA063-FA7D-4205-A795-7B6CE244EAAB";
paths = (
{
closed = 1;
nodes = (
"609 0 LINE",
"609 34 LINE",
"509 34 LINE",
"509 0 LINE"
);
}
);
width = 609;
},
{
components = (
{
name = connection_r;
transform = "{1, 0, 0, 1, 652, 0}";
},
{
name = "hah-ar.alt";
}
);
layerId = "EA657207-4E15-4023-BA2A-6FA5407A60CD";
paths = (
{
closed = 1;
nodes = (
"702 0 LINE",
"702 188 LINE",
"601 188 LINE",
"601 0 LINE"
);
}
);
width = 702;
},
{
components = (
{
alignment = -1;
name = connection_r;
transform = "{1, 0, 0, 1, 578, 0}";
},
{
alignment = -1;
name = "hah-ar.alt";
}
);
layerId = "5E4DD32C-6BC9-4010-93B4-D8C61BED16DC";
paths = (
{
closed = 1;
nodes = (
"628 0 LINE",
"628 71 LINE",
"520 71 LINE",
"520 0 LINE"
);
}
);
width = 628.41176;
}
);
},
{
color = 5;
glyphname = "hah-ar.medi";
layers = (
{
components = (
{
name = "hah-ar.init";
},
{
name = connection_r;
transform = "{1, 0, 0, 1, 533, 0}";
}
);
layerId = "459CA063-FA7D-4205-A795-7B6CE244EAAB";
paths = (
{
closed = 1;
nodes = (
"583 0 LINE",
"583 34 LINE",
"483 34 LINE",
"483 0 LINE"
);
}
);
width = 583;
},
{
components = (
{
name = "hah-ar.init";
},
{
name = connection_r;
transform = "{1, 0, 0, 1, 607, 0}";
}
);
layerId = "EA657207-4E15-4023-BA2A-6FA5407A60CD";
paths = (
{
closed = 1;
nodes = (
"657 0 LINE",
"657 188 LINE",
"556 188 LINE",
"556 0 LINE"
);
}
);
width = 657;
},
{
components = (
{
alignment = -1;
name = "hah-ar.init";
},
{
alignment = -1;
name = connection_r;
transform = "{1, 0, 0, 1, 553, 0}";
}
);
layerId = "5E4DD32C-6BC9-4010-93B4-D8C61BED16DC";
paths = (
{
closed = 1;
nodes = (
"603 0 LINE",
"603 71 LINE",
"495 71 LINE",
"495 0 LINE"
);
}
);
width = 603.27451;
}
);
unicode = FEA4;
},
{
color = 5;
glyphname = "hah-ar.init";
layers = (
{
anchors = (
{
name = bottom;
position = "{255, -73}";
},
{
name = top;
position = "{255, 573}";
}
);
components = (
{
name = connection_l;
}
);
layerId = "459CA063-FA7D-4205-A795-7B6CE244EAAB";
paths = (
{
closed = 1;
nodes = (
"483 0 LINE",
"483 317 LINE SMOOTH",
"483 437 OFFCURVE",
"402 500 OFFCURVE",
"255 500 CURVE SMOOTH",
"188 500 OFFCURVE",
"114 487 OFFCURVE",
"62 475 CURVE",
"66 446 LINE",
"160 459 OFFCURVE",
"215 465 OFFCURVE",
"258 465 CURVE SMOOTH",
"384 465 OFFCURVE",
"448 416 OFFCURVE",
"448 317 CURVE SMOOTH",
"448 20 LINE",
"463 34 LINE",
"0 34 LINE",
"0 0 LINE"
);
}
);
width = 543;
},
{
anchors = (
{
name = bottom;
position = "{274, -113}";
},
{
name = top;
position = "{224, 600}";
}
);
components = (
{
name = connection_l;
}
);
layerId = "EA657207-4E15-4023-BA2A-6FA5407A60CD";
paths = (
{
closed = 1;
nodes = (
"556 0 LINE",
"556 209 LINE SMOOTH",
"556 390 OFFCURVE",
"407 505 OFFCURVE",
"224 505 CURVE SMOOTH",
"174 505 OFFCURVE",
"125 497 OFFCURVE",
"67 482 CURVE",
"86 309 LINE",
"134 315 OFFCURVE",
"166 317 OFFCURVE",
"190 317 CURVE SMOOTH",
"293 317 OFFCURVE",
"332 277 OFFCURVE",
"332 209 CURVE SMOOTH",
"332 127 LINE",
"411 188 LINE",
"0 188 LINE",
"0 0 LINE"
);
}
);
width = 616;
},
{
anchors = (
{
name = bottom;
position = "{251, -90}";
},
{
name = top;
position = "{251, 569}";
}
);
components = (
{
alignment = -1;
name = connection_l;
}
);
layerId = "5E4DD32C-6BC9-4010-93B4-D8C61BED16DC";
paths = (
{
closed = 1;
nodes = (
"495 0 LINE",
"495 298 LINE SMOOTH",
"495 428 OFFCURVE",
"402 500 OFFCURVE",
"251 500 CURVE SMOOTH",
"189 500 OFFCURVE",
"121 488 OFFCURVE",
"66 475 CURVE",
"75 411 LINE",
"147 421 OFFCURVE",
"218 428 OFFCURVE",
"253 428 CURVE SMOOTH",
"363 428 OFFCURVE",
"417 385 OFFCURVE",
"417 298 CURVE SMOOTH",
"417 50 LINE",
"441 71 LINE",
"0 71 LINE",
"0 0 LINE"
);
}
);
width = 555.07843;
},
{
anchors = (
{
name = bottom;
position = "{274, -113}";
},
{
name = top;
position = "{224, 600}";
}
);
associatedMasterId = "EA657207-4E15-4023-BA2A-6FA5407A60CD";
components = (
{
name = connection_l;
}
);
layerId = "0C9E9AEB-491C-4CB9-9B48-1390473A9F61";
name = "Mar 11 20, 19:14";
paths = (
{
closed = 1;
nodes = (
"134 315 OFFCURVE",
"166 317 OFFCURVE",
"190 317 CURVE SMOOTH",
"293 317 OFFCURVE",
"332 277 OFFCURVE",
"332 209 CURVE SMOOTH",
"332 127 LINE",
"411 188 LINE",
"0 188 LINE",
"0 0 LINE",
"556 0 LINE",
"556 209 LINE SMOOTH",
"556 390 OFFCURVE",
"407 505 OFFCURVE",
"224 505 CURVE SMOOTH",
"174 505 OFFCURVE",
"125 497 OFFCURVE",
"67 482 CURVE",
"86 309 LINE"
);
}
);
width = 616;
},
{
anchors = (
{
name = bottom;
position = "{274, -113}";
},
{
name = top;
position = "{224, 600}";
}
);
associatedMasterId = "EA657207-4E15-4023-BA2A-6FA5407A60CD";
components = (
{
name = connection_l;
}
);
layerId = "6BB0DA68-88AF-4650-928C-33178AD0465C";
name = "Mar 11 20, 19:15";
paths = (
{
closed = 1;
nodes = (
"134 315 OFFCURVE",
"166 317 OFFCURVE",
"189 317 CURVE SMOOTH",
"332 317 OFFCURVE",
"332 236 OFFCURVE",
"332 209 CURVE SMOOTH",
"332 127 LINE",
"411 188 LINE",
"0 188 LINE",
"0 0 LINE",
"556 0 LINE",
"556 209 LINE SMOOTH",
"556 388 OFFCURVE",
"409 505 OFFCURVE",
"223 505 CURVE SMOOTH",
"174 505 OFFCURVE",
"125 497 OFFCURVE",
"67 482 CURVE",
"67 309 LINE"
);
}
);
width = 616;
}
);
unicode = FEA3;
},
{
color = 5;
glyphname = "dal-ar";
layers = (
{
anchors = (
{
name = bottom;
position = "{236, -73}";
},
{
name = top;
position = "{152, 595}";
}
);
layerId = "459CA063-FA7D-4205-A795-7B6CE244EAAB";
paths = (
{
closed = 1;
nodes = (
"427 0 LINE",
"427 232 LINE SMOOTH",
"427 433 OFFCURVE",
"333 500 OFFCURVE",
"173 500 CURVE SMOOTH",
"92 500 LINE",
"92 466 LINE",
"173 466 LINE SMOOTH",
"329 466 OFFCURVE",
"392 399 OFFCURVE",
"392 232 CURVE SMOOTH",
"392 10 LINE",
"417 34 LINE",
"40 34 LINE",
"40 0 LINE"
);
}
);
width = 487;
},
{
anchors = (
{
name = bottom;
position = "{241, -113}";
},
{
name = top;
position = "{165, 600}";
}
);
layerId = "EA657207-4E15-4023-BA2A-6FA5407A60CD";
paths = (
{
closed = 1;
nodes = (
"477 0 LINE",
"477 162 LINE SMOOTH",
"477 389 OFFCURVE",
"359 505 OFFCURVE",
"133 505 CURVE SMOOTH",
"52 505 LINE",
"52 317 LINE",
"133 317 LINE SMOOTH",
"227 317 OFFCURVE",
"253 291 OFFCURVE",
"253 162 CURVE SMOOTH",
"253 75 LINE",
"387 188 LINE",
"40 188 LINE",
"40 0 LINE"
);
}
);
width = 517;
},
{
anchors = (
{
name = bottom;
position = "{238, -90}";
},
{
name = top;
position = "{155, 590}";
}
);
layerId = "5E4DD32C-6BC9-4010-93B4-D8C61BED16DC";
paths = (
{
closed = 1;
nodes = (
"427 0 LINE",
"427 232 LINE SMOOTH",
"427 433 OFFCURVE",
"333 500 OFFCURVE",
"173 500 CURVE SMOOTH",
"92 500 LINE",
"92 429 LINE",
"173 429 LINE SMOOTH",
"303 429 OFFCURVE",
"349 380 OFFCURVE",
"349 232 CURVE SMOOTH",
"349 14 LINE",
"413 71 LINE",
"40 71 LINE",
"40 0 LINE"
);
}
);
width = 482.68627;
}
);
unicode = 062F;
},
{
color = 5;
glyphname = "dal-ar.fina";
layers = (
{
components = (
{
name = "dal-ar";
},
{
name = connection_r;
transform = "{1, 0, 0, 1, 477, 0}";
}
);
layerId = "459CA063-FA7D-4205-A795-7B6CE244EAAB";
paths = (
{
closed = 1;
nodes = (
"527 0 LINE",
"527 34 LINE",
"427 34 LINE",
"427 0 LINE"
);
}
);
width = 527;
},
{
components = (
{
name = "dal-ar";
},
{
name = connection_r;
transform = "{1, 0, 0, 1, 528, 0}";
}
);
layerId = "EA657207-4E15-4023-BA2A-6FA5407A60CD";
paths = (
{
closed = 1;
nodes = (
"578 0 LINE",
"578 188 LINE",
"477 188 LINE",
"477 0 LINE"
);
}
);
width = 578;
},
{
components = (
{
alignment = -1;
name = "dal-ar";
},
{
alignment = -1;
name = connection_r;
transform = "{1, 0, 0, 1, 485, 0}";
}
);
layerId = "5E4DD32C-6BC9-4010-93B4-D8C61BED16DC";
paths = (
{
closed = 1;
nodes = (
"535 0 LINE",
"535 71 LINE",
"427 71 LINE",
"427 0 LINE"
);
}
);
width = 535.19608;
}
);
unicode = FEAA;
},
{
color = 5;
glyphname = "reh-ar";
layers = (
{
anchors = (
{
name = bottom;
position = "{109, -350}";
},
{
name = top;
position = "{162, 573}";
}
);
layerId = "459CA063-FA7D-4205-A795-7B6CE244EAAB";
paths = (
{
closed = 1;
nodes = (
"104 -247 OFFCURVE",
"179 -165 OFFCURVE",
"179 -42 CURVE SMOOTH",
"179 500 LINE",
"144 500 LINE",
"144 -42 LINE SMOOTH",
"144 -145 OFFCURVE",
"85 -213 OFFCURVE",
"-4 -213 CURVE SMOOTH",
"-19 -213 OFFCURVE",
"-38 -211 OFFCURVE",
"-56 -209 CURVE",
"-60 -243 LINE",
"-42 -245 OFFCURVE",
"-21 -247 OFFCURVE",
"-4 -247 CURVE SMOOTH"
);
}
);
width = 259;
},
{
anchors = (
{
name = bottom;
position = "{156, -420}";
},
{
name = top;
position = "{248, 600}";
}
);
layerId = "EA657207-4E15-4023-BA2A-6FA5407A60CD";
paths = (
{
closed = 1;
nodes = (
"250 -293 OFFCURVE",
"359 -173 OFFCURVE",
"359 -13 CURVE SMOOTH",
"359 505 LINE",
"135 505 LINE",
"135 -13 LINE SMOOTH",
"135 -75 OFFCURVE",
"116 -105 OFFCURVE",
"80 -105 CURVE SMOOTH",
"73 -105 OFFCURVE",
"45 -105 OFFCURVE",
"20 -105 CURVE",
"20 -289 LINE",
"46 -292 OFFCURVE",
"69 -293 OFFCURVE",
"84 -293 CURVE SMOOTH"
);
}
);
width = 419;
},
{
anchors = (
{
name = bottom;
position = "{101, -336}";
},
{
name = top;
position = "{153, 590}";
}
);
layerId = "5E4DD32C-6BC9-4010-93B4-D8C61BED16DC";
paths = (
{
closed = 1;
nodes = (
"117 -247 OFFCURVE",
"192 -165 OFFCURVE",
"192 -42 CURVE SMOOTH",
"192 500 LINE",
"114 500 LINE",
"114 -42 LINE SMOOTH",
"114 -126 OFFCURVE",
"72 -176 OFFCURVE",
"9 -176 CURVE SMOOTH",
"-3 -176 OFFCURVE",
"-19 -174 OFFCURVE",
"-38 -172 CURVE",
"-47 -243 LINE",
"-29 -245 OFFCURVE",
"-8 -247 OFFCURVE",
"9 -247 CURVE SMOOTH"
);
}
);
width = 263.31373;
},
{
anchors = (
{
name = bottom;
position = "{156, -420}";
},
{
name = top;
position = "{248, 600}";
}
);
associatedMasterId = "EA657207-4E15-4023-BA2A-6FA5407A60CD";
layerId = "E273CF19-A534-40D2-B52D-AE201FD27914";
name = "Mar 11 20, 19:10";
paths = (
{
closed = 1;
nodes = (
"246 -293 OFFCURVE",
"359 -177 OFFCURVE",
"359 -13 CURVE SMOOTH",
"359 505 LINE",
"135 505 LINE",
"135 -13 LINE SMOOTH",
"135 -76 OFFCURVE",
"113 -105 OFFCURVE",
"86 -105 CURVE SMOOTH",
"78 -105 OFFCURVE",
"66 -104 OFFCURVE",
"45 -102 CURVE",
"20 -289 LINE",
"46 -292 OFFCURVE",
"69 -293 OFFCURVE",
"86 -293 CURVE SMOOTH"
);
}
);
width = 419;
}
);
unicode = 0631;
},
{
color = 5;
glyphname = "reh-ar.fina";
layers = (
{
components = (
{
name = "reh-ar";
},
{
name = connection_r;
transform = "{1, 0, 0, 1, 229, 0}";
}
);
layerId = "459CA063-FA7D-4205-A795-7B6CE244EAAB";
paths = (
{
closed = 1;
nodes = (
"279 0 LINE",
"279 34 LINE",
"159 34 LINE",
"159 0 LINE"
);
}
);
width = 279;
},
{
components = (
{
name = "reh-ar";
},
{
name = connection_r;
transform = "{1, 0, 0, 1, 410, 0}";
}
);
layerId = "EA657207-4E15-4023-BA2A-6FA5407A60CD";
paths = (
{
closed = 1;
nodes = (
"460 0 LINE",
"460 188 LINE",
"329 188 LINE",
"329 0 LINE"
);
}
);
width = 460;
},
{
components = (
{
alignment = -1;
name = "reh-ar";
},
{
alignment = -1;
name = connection_r;
transform = "{1, 0, 0, 1, 250, 0}";
}
);
layerId = "5E4DD32C-6BC9-4010-93B4-D8C61BED16DC";
paths = (
{
closed = 1;
nodes = (
"300 0 LINE",
"300 71 LINE",
"172 71 LINE",
"172 0 LINE"
);
}
);
width = 300.13725;
}
);
unicode = FEAE;
},
{
color = 5;
glyphname = "seen-ar";
layers = (
{
anchors = (
{
name = bottom;
position = "{800, -73}";
},
{
name = top;
position = "{800, 573}";
}
);
layerId = "459CA063-FA7D-4205-A795-7B6CE244EAAB";
paths = (
{
closed = 1;
nodes = (
"434 -248 OFFCURVE",
"555 -179 OFFCURVE",
"555 -40 CURVE SMOOTH",
"555 450 LINE",
"520 450 LINE",
"520 -40 LINE SMOOTH",
"520 -145 OFFCURVE",
"434 -214 OFFCURVE",
"303 -214 CURVE SMOOTH",
"170 -214 OFFCURVE",
"75 -139 OFFCURVE",
"75 -35 CURVE SMOOTH",
"75 7 OFFCURVE",
"91 128 OFFCURVE",
"115 267 CURVE",
"80 273 LINE",
"63 173 OFFCURVE",
"40 21 OFFCURVE",
"40 -35 CURVE SMOOTH",
"40 -162 OFFCURVE",
"156 -248 OFFCURVE",
"303 -248 CURVE SMOOTH"
);
},
{
closed = 1;
nodes = (
"691 0 LINE SMOOTH",
"782 0 OFFCURVE",
"818 34 OFFCURVE",
"818 178 CURVE SMOOTH",
"818 450 LINE",
"783 450 LINE",
"783 178 LINE SMOOTH",
"783 58 OFFCURVE",
"764 34 OFFCURVE",
"691 34 CURVE SMOOTH",
"555 34 LINE",
"555 0 LINE"
);
},
{
closed = 1;
nodes = (
"1081 0 LINE",
"1081 278 LINE SMOOTH",
"1081 331 OFFCURVE",
"1064 432 OFFCURVE",
"1049 500 CURVE",
"1015 493 LINE",
"1033 411 OFFCURVE",
"1046 320 OFFCURVE",
"1046 278 CURVE SMOOTH",
"1046 0 LINE",
"1081 34 LINE",
"884 34 LINE SMOOTH",
"849 34 OFFCURVE",
"818 47 OFFCURVE",
"785 76 CURVE",
"762 51 LINE",
"802 15 OFFCURVE",
"843 0 OFFCURVE",
"884 0 CURVE SMOOTH"
);
}
);
width = 1161;
},
{
anchors = (
{
name = bottom;
position = "{950, -113}";
},
{
name = top;
position = "{910, 600}";
}
);
layerId = "EA657207-4E15-4023-BA2A-6FA5407A60CD";
paths = (
{
closed = 1;
nodes = (
"566 -248 OFFCURVE",
"693 -137 OFFCURVE",
"693 18 CURVE SMOOTH",
"693 450 LINE",
"469 450 LINE",
"469 18 LINE SMOOTH",
"469 -18 OFFCURVE",
"469 -60 OFFCURVE",
"375 -60 CURVE SMOOTH",
"295 -60 OFFCURVE",
"264 -30 OFFCURVE",
"264 27 CURVE SMOOTH",
"264 60 OFFCURVE",
"274 147 OFFCURVE",
"294 278 CURVE",
"73 306 LINE",
"56 195 OFFCURVE",
"40 78 OFFCURVE",
"40 25 CURVE SMOOTH",
"40 -130 OFFCURVE",
"178 -248 OFFCURVE",
"375 -248 CURVE SMOOTH"
);
},
{
closed = 1;
nodes = (
"724 0 LINE SMOOTH",
"923 0 OFFCURVE",
"1021 109 OFFCURVE",
"1021 325 CURVE SMOOTH",
"1021 450 LINE",
"797 450 LINE",
"797 325 LINE SMOOTH",
"797 202 OFFCURVE",
"781 188 OFFCURVE",
"724 188 CURVE SMOOTH",
"693 188 LINE",
"689 0 LINE"
);
},
{
closed = 1;
nodes = (
"1349 0 LINE",
"1349 270 LINE SMOOTH",
"1349 314 OFFCURVE",
"1332 430 OFFCURVE",
"1319 505 CURVE",
"1098 474 LINE",
"1113 386 OFFCURVE",
"1125 296 OFFCURVE",
"1125 270 CURVE SMOOTH",
"1125 75 LINE",
"1259 188 LINE",
"1056 188 LINE SMOOTH",
"1032 188 OFFCURVE",
"1007 197 OFFCURVE",
"989 213 CURVE",
"857 76 LINE",
"911 28 OFFCURVE",
"985 0 OFFCURVE",
"1056 0 CURVE SMOOTH"
);
}
);
width = 1399;
},
{
anchors = (
{
name = bottom;
position = "{825, -90}";
},
{
name = top;
position = "{825, 590}";
}
);
layerId = "5E4DD32C-6BC9-4010-93B4-D8C61BED16DC";
paths = (
{
closed = 1;
nodes = (
"470 -248 OFFCURVE",
"591 -166 OFFCURVE",
"591 -25 CURVE SMOOTH",
"591 450 LINE",
"513 450 LINE",
"513 -25 LINE SMOOTH",
"513 -117 OFFCURVE",
"440 -177 OFFCURVE",
"321 -177 CURVE SMOOTH",
"200 -177 OFFCURVE",
"118 -111 OFFCURVE",
"118 -19 CURVE SMOOTH",
"118 20 OFFCURVE",
"132 131 OFFCURVE",
"155 270 CURVE",
"78 282 LINE",
"61 179 OFFCURVE",
"40 36 OFFCURVE",
"40 -19 CURVE SMOOTH",
"40 -154 OFFCURVE",
"162 -248 OFFCURVE",
"321 -248 CURVE SMOOTH"
);
},
{
closed = 1;
nodes = (
"703 0 LINE SMOOTH",
"818 0 OFFCURVE",
"865 52 OFFCURVE",
"865 209 CURVE SMOOTH",
"865 450 LINE",
"787 450 LINE",
"787 209 LINE SMOOTH",
"787 92 OFFCURVE",
"770 71 OFFCURVE",
"703 71 CURVE SMOOTH",
"591 71 LINE",
"591 0 LINE"
);
},
{
closed = 1;
nodes = (
"1139 0 LINE",
"1139 278 LINE SMOOTH",
"1139 325 OFFCURVE",
"1123 430 OFFCURVE",
"1109 500 CURVE",
"1033 487 LINE",
"1049 403 OFFCURVE",
"1062 313 OFFCURVE",
"1062 278 CURVE SMOOTH",
"1062 39 LINE",
"1092 71 LINE",
"914 71 LINE SMOOTH",
"888 71 OFFCURVE",
"865 81 OFFCURVE",
"835 107 CURVE",
"784 54 LINE",
"825 17 OFFCURVE",
"869 0 OFFCURVE",
"914 0 CURVE SMOOTH"
);
}
);
width = 1210.60784;
}
);
unicode = 0633;
},
{
color = 5;
glyphname = "seen-ar.fina";
layers = (
{
components = (
{
name = "seen-ar";
},
{
name = connection_r;
transform = "{1, 0, 0, 1, 1131, 0}";
}
);
layerId = "459CA063-FA7D-4205-A795-7B6CE244EAAB";
paths = (
{
closed = 1;
nodes = (
"1181 0 LINE",
"1181 34 LINE",
"1081 34 LINE",
"1081 0 LINE"
);
}
);
width = 1181;
},
{
components = (
{
name = "seen-ar";
},
{
name = connection_r;
transform = "{1, 0, 0, 1, 1400, 0}";
}
);
layerId = "EA657207-4E15-4023-BA2A-6FA5407A60CD";
paths = (
{
closed = 1;
nodes = (
"1450 0 LINE",
"1450 188 LINE",
"1349 188 LINE",
"1349 0 LINE"
);
}
);
width = 1450;
},
{
components = (
{
alignment = -1;
name = "seen-ar";
},
{
alignment = -1;
name = connection_r;
transform = "{1, 0, 0, 1, 1197, 0}";
}
);
layerId = "5E4DD32C-6BC9-4010-93B4-D8C61BED16DC";
paths = (
{
closed = 1;
nodes = (
"1247 0 LINE",
"1247 71 LINE",
"1139 71 LINE",
"1139 0 LINE"
);
}
);
width = 1247.43137;
}
);
unicode = FEB2;
},
{
color = 5;
glyphname = "seen-ar.medi";
layers = (
{
components = (
{
name = "seen-ar.init";
},
{
name = connection_r;
transform = "{1, 0, 0, 1, 731, 0}";
}
);
layerId = "459CA063-FA7D-4205-A795-7B6CE244EAAB";
paths = (
{
closed = 1;
nodes = (
"781 0 LINE",
"781 34 LINE",
"681 34 LINE",
"681 0 LINE"
);
}
);
width = 781;
},
{
components = (
{
name = "seen-ar.init";
},
{
name = connection_r;
transform = "{1, 0, 0, 1, 1032, 0}";
}
);
layerId = "EA657207-4E15-4023-BA2A-6FA5407A60CD";
paths = (
{
closed = 1;
nodes = (
"1082 0 LINE",
"1082 188 LINE",
"981 188 LINE",
"981 0 LINE"
);
}
);
width = 1082;
},
{
components = (
{
alignment = -1;
name = "seen-ar.init";
},
{
alignment = -1;
name = connection_r;
transform = "{1, 0, 0, 1, 810, 0}";
}
);
layerId = "5E4DD32C-6BC9-4010-93B4-D8C61BED16DC";
paths = (
{
closed = 1;
nodes = (
"860 0 LINE",
"860 71 LINE",
"752 71 LINE",
"752 0 LINE"
);
}
);
width = 859.94118;
}
);
unicode = FEB4;
},
{
color = 5;
glyphname = "seen-ar.init";
layers = (
{
anchors = (
{
name = bottom;
position = "{400, -73}";
},
{
name = top;
position = "{400, 573}";
}
);
components = (
{
name = connection_l;
}
);
layerId = "459CA063-FA7D-4205-A795-7B6CE244EAAB";
paths = (
{
closed = 1;
nodes = (
"681 0 LINE",
"681 278 LINE SMOOTH",
"681 331 OFFCURVE",
"664 432 OFFCURVE",
"649 500 CURVE",
"615 493 LINE",
"633 411 OFFCURVE",
"646 320 OFFCURVE",
"646 278 CURVE SMOOTH",
"646 0 LINE",
"681 34 LINE",
"484 34 LINE SMOOTH",
"449 34 OFFCURVE",
"418 47 OFFCURVE",
"385 76 CURVE",
"362 51 LINE",
"402 15 OFFCURVE",
"443 0 OFFCURVE",
"484 0 CURVE SMOOTH"
);
},
{
closed = 1;
nodes = (
"155 0 LINE",
"155 450 LINE",
"120 450 LINE",
"120 20 LINE",
"135 34 LINE",
"0 34 LINE",
"0 0 LINE"
);
},
{
closed = 1;
nodes = (
"291 0 LINE SMOOTH",
"382 0 OFFCURVE",
"418 34 OFFCURVE",
"418 178 CURVE SMOOTH",
"418 450 LINE",
"383 450 LINE",
"383 178 LINE SMOOTH",
"383 58 OFFCURVE",
"364 34 OFFCURVE",
"291 34 CURVE SMOOTH",
"155 34 LINE",
"155 0 LINE"
);
}
);
width = 761;
},
{
anchors = (
{
name = bottom;
position = "{542, -113}";
},
{
name = top;
position = "{542, 600}";
}
);
components = (
{
name = connection_l;
}
);
layerId = "EA657207-4E15-4023-BA2A-6FA5407A60CD";
paths = (
{
closed = 1;
nodes = (
"981 0 LINE",
"981 270 LINE SMOOTH",
"981 314 OFFCURVE",
"964 430 OFFCURVE",
"951 505 CURVE",
"730 474 LINE",
"745 386 OFFCURVE",
"757 296 OFFCURVE",
"757 270 CURVE SMOOTH",
"757 75 LINE",
"891 188 LINE",
"688 188 LINE SMOOTH",
"664 188 OFFCURVE",
"639 197 OFFCURVE",
"621 213 CURVE",
"489 76 LINE",
"543 28 OFFCURVE",
"617 0 OFFCURVE",
"688 0 CURVE SMOOTH"
);
},
{
closed = 1;
nodes = (
"325 0 LINE",
"325 450 LINE",
"101 450 LINE",
"101 140 LINE",
"145 188 LINE",
"0 188 LINE",
"0 0 LINE"
);
},
{
closed = 1;
nodes = (
"356 0 LINE SMOOTH",
"555 0 OFFCURVE",
"653 109 OFFCURVE",
"653 325 CURVE SMOOTH",
"653 450 LINE",
"429 450 LINE",
"429 325 LINE SMOOTH",
"429 202 OFFCURVE",
"413 188 OFFCURVE",
"356 188 CURVE SMOOTH",
"325 188 LINE",
"325 0 LINE"
);
}
);
width = 1041;
},
{
anchors = (
{
name = bottom;
position = "{438, -90}";
},
{
name = top;
position = "{438, 590}";
}
);
components = (
{
alignment = -1;
name = connection_l;
}
);
layerId = "5E4DD32C-6BC9-4010-93B4-D8C61BED16DC";
paths = (
{
closed = 1;
nodes = (
"752 0 LINE",
"752 278 LINE SMOOTH",
"752 325 OFFCURVE",
"735 430 OFFCURVE",
"721 500 CURVE",
"645 487 LINE",
"662 403 OFFCURVE",
"674 313 OFFCURVE",
"674 278 CURVE SMOOTH",
"674 39 LINE",
"704 71 LINE",
"526 71 LINE SMOOTH",
"500 71 OFFCURVE",
"478 81 OFFCURVE",
"448 107 CURVE",
"397 54 LINE",
"437 17 OFFCURVE",
"481 0 OFFCURVE",
"526 0 CURVE SMOOTH"
);
},
{
closed = 1;
nodes = (
"203 0 LINE",
"203 450 LINE",
"126 450 LINE",
"126 51 LINE",
"146 71 LINE",
"0 71 LINE",
"0 0 LINE"
);
},
{
closed = 1;
nodes = (
"316 0 LINE SMOOTH",
"431 0 OFFCURVE",
"477 52 OFFCURVE",
"477 209 CURVE SMOOTH",
"477 450 LINE",
"399 450 LINE",
"399 209 LINE SMOOTH",
"399 92 OFFCURVE",
"383 71 OFFCURVE",
"316 71 CURVE SMOOTH",
"203 71 LINE",
"203 0 LINE"
);
}
);
width = 827.43137;
}
);
unicode = FEB3;
},
{
color = 5;
glyphname = "sad-ar";
layers = (
{
anchors = (
{
name = bottom;
position = "{811, -73}";
},
{
name = top;
position = "{811, 573}";
}
);
layerId = "459CA063-FA7D-4205-A795-7B6CE244EAAB";
paths = (
{
closed = 1;
nodes = (
"434 -248 OFFCURVE",
"555 -179 OFFCURVE",
"555 -40 CURVE SMOOTH",
"555 500 LINE",
"520 500 LINE",
"520 -40 LINE SMOOTH",
"520 -145 OFFCURVE",
"434 -214 OFFCURVE",
"303 -214 CURVE SMOOTH",
"170 -214 OFFCURVE",
"75 -139 OFFCURVE",
"75 -35 CURVE SMOOTH",
"75 7 OFFCURVE",
"91 128 OFFCURVE",
"115 267 CURVE",
"80 273 LINE",
"63 173 OFFCURVE",
"40 21 OFFCURVE",
"40 -35 CURVE SMOOTH",
"40 -162 OFFCURVE",
"156 -248 OFFCURVE",
"303 -248 CURVE SMOOTH"
);
},
{
closed = 1;
nodes = (
"1090 0 LINE",
"1090 241 LINE SMOOTH",
"1090 353 OFFCURVE",
"1047 500 OFFCURVE",
"857 500 CURVE SMOOTH",
"691 500 OFFCURVE",
"611 388 OFFCURVE",
"528 285 CURVE",
"555 264 LINE",
"641 371 OFFCURVE",
"713 466 OFFCURVE",
"856 466 CURVE SMOOTH",
"988 466 OFFCURVE",
"1055 385 OFFCURVE",
"1055 241 CURVE SMOOTH",
"1055 10 LINE",
"1080 34 LINE",
"555 34 LINE",
"555 0 LINE"
);
}
);
width = 1170;
},
{
anchors = (
{
name = bottom;
position = "{907, -113}";
},
{
name = top;
position = "{847, 600}";
}
);
layerId = "EA657207-4E15-4023-BA2A-6FA5407A60CD";
paths = (
{
closed = 1;
nodes = (
"566 -248 OFFCURVE",
"693 -137 OFFCURVE",
"693 18 CURVE SMOOTH",
"693 505 LINE",
"469 505 LINE",
"469 18 LINE SMOOTH",
"469 -18 OFFCURVE",
"469 -60 OFFCURVE",
"375 -60 CURVE SMOOTH",
"295 -60 OFFCURVE",
"264 -30 OFFCURVE",
"264 27 CURVE SMOOTH",
"264 60 OFFCURVE",
"274 147 OFFCURVE",
"294 278 CURVE",
"73 306 LINE",
"56 195 OFFCURVE",
"40 78 OFFCURVE",
"40 25 CURVE SMOOTH",
"40 -130 OFFCURVE",
"178 -248 OFFCURVE",
"375 -248 CURVE SMOOTH"
);
},
{
closed = 1;
nodes = (
"1196 0 LINE",
"1196 208 LINE SMOOTH",
"1196 394 OFFCURVE",
"1088 505 OFFCURVE",
"928 505 CURVE SMOOTH",
"760 505 OFFCURVE",
"758 455 OFFCURVE",
"554 208 CURVE",
"592 71 LINE",
"625 111 OFFCURVE",
"753 317 OFFCURVE",
"892 317 CURVE SMOOTH",
"933 317 OFFCURVE",
"972 299 OFFCURVE",
"972 208 CURVE SMOOTH",
"972 38 LINE",
"1151 188 LINE",
"693 188 LINE",
"688 0 LINE"
);
}
);
width = 1256;
},
{
anchors = (
{
name = bottom;
position = "{825, -90}";
},
{
name = top;
position = "{825, 589}";
}
);
layerId = "5E4DD32C-6BC9-4010-93B4-D8C61BED16DC";
paths = (
{
closed = 1;
nodes = (
"470 -248 OFFCURVE",
"591 -166 OFFCURVE",
"591 -25 CURVE SMOOTH",
"591 500 LINE",
"513 500 LINE",
"513 -25 LINE SMOOTH",
"513 -117 OFFCURVE",
"440 -177 OFFCURVE",
"321 -177 CURVE SMOOTH",
"200 -177 OFFCURVE",
"118 -111 OFFCURVE",
"118 -19 CURVE SMOOTH",
"118 20 OFFCURVE",
"132 131 OFFCURVE",
"155 270 CURVE",
"78 282 LINE",
"61 179 OFFCURVE",
"40 36 OFFCURVE",
"40 -19 CURVE SMOOTH",
"40 -154 OFFCURVE",
"162 -248 OFFCURVE",
"321 -248 CURVE SMOOTH"
);
},
{
closed = 1;
nodes = (
"1115 0 LINE",
"1115 241 LINE SMOOTH",
"1115 353 OFFCURVE",
"1072 500 OFFCURVE",
"882 500 CURVE SMOOTH",
"716 500 OFFCURVE",
"636 388 OFFCURVE",
"553 285 CURVE",
"579 214 LINE",
"643 295 OFFCURVE",
"736 429 OFFCURVE",
"882 429 CURVE SMOOTH",
"986 429 OFFCURVE",
"1038 366 OFFCURVE",
"1038 241 CURVE SMOOTH",
"1038 6 LINE",
"1110 71 LINE",
"591 71 LINE",
"591 0 LINE"
);
}
);
width = 1191.13725;
}
);
unicode = 0635;
},
{
color = 5;
glyphname = "sad-ar.fina";
layers = (
{
components = (
{
name = "sad-ar";
},
{
name = connection_r;
transform = "{1, 0, 0, 1, 1140, 0}";
}
);
layerId = "459CA063-FA7D-4205-A795-7B6CE244EAAB";
paths = (
{
closed = 1;
nodes = (
"1190 0 LINE",
"1190 34 LINE",
"1090 34 LINE",
"1090 0 LINE"
);
}
);
width = 1190;
},
{
components = (
{
name = "sad-ar";
},
{
name = connection_r;
transform = "{1, 0, 0, 1, 1247, 0}";
}
);
layerId = "EA657207-4E15-4023-BA2A-6FA5407A60CD";
paths = (
{
closed = 1;
nodes = (
"1297 0 LINE",
"1297 188 LINE",
"1196 188 LINE",
"1196 0 LINE"
);
}
);
width = 1297;
},
{
components = (
{
alignment = -1;
name = "sad-ar";
},
{
alignment = -1;
name = connection_r;
transform = "{1, 0, 0, 1, 1174, 0}";
}
);
layerId = "5E4DD32C-6BC9-4010-93B4-D8C61BED16DC";
paths = (
{
closed = 1;
nodes = (
"1224 0 LINE",
"1224 71 LINE",
"1115 71 LINE",
"1115 0 LINE"
);
}
);
width = 1223.64706;
}
);
unicode = FEBA;
},
{
color = 5;
glyphname = "sad-ar.medi";
layers = (
{
components = (
{
name = "sad-ar.init";
},
{
name = connection_r;
transform = "{1, 0, 0, 1, 720, 0}";
}
);
layerId = "459CA063-FA7D-4205-A795-7B6CE244EAAB";
paths = (
{
closed = 1;
nodes = (
"770 0 LINE",
"770 34 LINE",
"670 34 LINE",
"670 0 LINE"
);
}
);
width = 770;
},
{
components = (
{
name = "sad-ar.init";
},
{
name = connection_r;
transform = "{1, 0, 0, 1, 879, 0}";
}
);
layerId = "EA657207-4E15-4023-BA2A-6FA5407A60CD";
paths = (
{
closed = 1;
nodes = (
"929 0 LINE",
"929 188 LINE",
"828 188 LINE",
"828 0 LINE"
);
}
);
width = 929;
},
{
components = (
{
alignment = -1;
name = "sad-ar.init";
},
{
alignment = -1;
name = connection_r;
transform = "{1, 0, 0, 1, 803, 0}";
}
);
layerId = "5E4DD32C-6BC9-4010-93B4-D8C61BED16DC";
paths = (
{
closed = 1;
nodes = (
"853 0 LINE",
"853 71 LINE",
"745 71 LINE",
"745 0 LINE"
);
}
);
width = 852.78431;
}
);
unicode = FEBC;
},
{
color = 5;
glyphname = "sad-ar.init";
layers = (
{
anchors = (
{
name = bottom;
position = "{391, -73}";
},
{
name = top;
position = "{391, 573}";
}
);
components = (
{
name = connection_l;
}
);
layerId = "459CA063-FA7D-4205-A795-7B6CE244EAAB";
paths = (
{
closed = 1;
nodes = (
"670 0 LINE",
"670 241 LINE SMOOTH",
"670 353 OFFCURVE",
"627 500 OFFCURVE",
"437 500 CURVE SMOOTH",
"271 500 OFFCURVE",
"191 388 OFFCURVE",
"108 285 CURVE",
"135 264 LINE",
"221 371 OFFCURVE",
"293 466 OFFCURVE",
"436 466 CURVE SMOOTH",
"568 466 OFFCURVE",
"635 385 OFFCURVE",
"635 241 CURVE SMOOTH",
"635 10 LINE",
"660 34 LINE",
"0 34 LINE",
"0 0 LINE"
);
},
{
closed = 1;
nodes = (
"135 34 LINE",
"135 500 LINE",
"100 500 LINE",
"100 34 LINE"
);
}
);
width = 750;
},
{
anchors = (
{
name = bottom;
position = "{479, -113}";
},
{
name = top;
position = "{479, 600}";
}
);
components = (
{
name = connection_l;
}
);
layerId = "EA657207-4E15-4023-BA2A-6FA5407A60CD";
paths = (
{
closed = 1;
nodes = (
"828 0 LINE",
"828 208 LINE SMOOTH",
"828 394 OFFCURVE",
"720 505 OFFCURVE",
"560 505 CURVE SMOOTH",
"392 505 OFFCURVE",
"390 455 OFFCURVE",
"186 208 CURVE",
"224 71 LINE",
"257 111 OFFCURVE",
"385 317 OFFCURVE",
"524 317 CURVE SMOOTH",
"565 317 OFFCURVE",
"604 299 OFFCURVE",
"604 208 CURVE SMOOTH",
"604 38 LINE",
"783 188 LINE",
"0 188 LINE",
"0 0 LINE"
);
},
{
closed = 1;
nodes = (
"325 188 LINE",
"325 505 LINE",
"101 505 LINE",
"101 188 LINE"
);
}
);
width = 888;
},
{
anchors = (
{
name = bottom;
position = "{454, -90}";
},
{
name = top;
position = "{454, 589}";
}
);
components = (
{
alignment = -1;
name = connection_l;
}
);
layerId = "5E4DD32C-6BC9-4010-93B4-D8C61BED16DC";
paths = (
{
closed = 1;
nodes = (
"745 0 LINE",
"745 241 LINE SMOOTH",
"745 353 OFFCURVE",
"702 500 OFFCURVE",
"512 500 CURVE SMOOTH",
"346 500 OFFCURVE",
"266 388 OFFCURVE",
"183 285 CURVE",
"208 214 LINE",
"272 295 OFFCURVE",
"365 429 OFFCURVE",
"511 429 CURVE SMOOTH",
"615 429 OFFCURVE",
"667 366 OFFCURVE",
"667 241 CURVE SMOOTH",
"667 6 LINE",
"739 71 LINE",
"0 71 LINE",
"0 0 LINE"
);
},
{
closed = 1;
nodes = (
"220 71 LINE",
"220 500 LINE",
"142 500 LINE",
"142 71 LINE"
);
}
);
width = 820.27451;
}
);
unicode = FEBB;
},
{
color = 5;
glyphname = "tah-ar";
layers = (
{
anchors = (
{
name = bottom;
position = "{378, -73}";
},
{
name = top;
position = "{378, 573}";
}
);
layerId = "459CA063-FA7D-4205-A795-7B6CE244EAAB";
paths = (
{
closed = 1;
nodes = (
"657 0 LINE",
"657 241 LINE SMOOTH",
"657 353 OFFCURVE",
"614 500 OFFCURVE",
"424 500 CURVE SMOOTH",
"258 500 OFFCURVE",
"178 388 OFFCURVE",
"95 285 CURVE",
"122 264 LINE",
"208 371 OFFCURVE",
"280 466 OFFCURVE",
"423 466 CURVE SMOOTH",
"555 466 OFFCURVE",
"622 385 OFFCURVE",
"622 241 CURVE SMOOTH",
"622 10 LINE",
"647 34 LINE",
"20 34 LINE",
"20 0 LINE"
);
},
{
closed = 1;
nodes = (
"122 34 LINE",
"122 730 LINE",
"87 730 LINE",
"87 34 LINE"
);
}
);
width = 737;
},
{
anchors = (
{
name = bottom;
position = "{471, -113}";
},
{
name = top;
position = "{521, 600}";
}
);
layerId = "EA657207-4E15-4023-BA2A-6FA5407A60CD";
paths = (
{
closed = 1;
nodes = (
"820 0 LINE",
"820 208 LINE SMOOTH",
"820 394 OFFCURVE",
"712 505 OFFCURVE",
"552 505 CURVE SMOOTH",
"384 505 OFFCURVE",
"329 409 OFFCURVE",
"178 208 CURVE",
"216 71 LINE",
"249 111 OFFCURVE",
"377 317 OFFCURVE",
"516 317 CURVE SMOOTH",
"557 317 OFFCURVE",
"596 299 OFFCURVE",
"596 208 CURVE SMOOTH",
"596 38 LINE",
"775 188 LINE",
"20 188 LINE",
"20 0 LINE"
);
},
{
closed = 1;
nodes = (
"317 188 LINE",
"317 690 LINE",
"93 690 LINE",
"93 188 LINE"
);
}
);
width = 880;
},
{
anchors = (
{
name = bottom;
position = "{398, -90}";
},
{
name = top;
position = "{398, 590}";
}
);
layerId = "5E4DD32C-6BC9-4010-93B4-D8C61BED16DC";
paths = (
{
closed = 1;
nodes = (
"688 0 LINE",
"688 241 LINE SMOOTH",
"688 353 OFFCURVE",
"645 500 OFFCURVE",
"455 500 CURVE SMOOTH",
"289 500 OFFCURVE",
"209 388 OFFCURVE",
"126 285 CURVE",
"152 214 LINE",
"216 295 OFFCURVE",
"309 429 OFFCURVE",
"455 429 CURVE SMOOTH",
"559 429 OFFCURVE",
"611 366 OFFCURVE",
"611 241 CURVE SMOOTH",
"611 6 LINE",
"683 71 LINE",
"20 71 LINE",
"20 0 LINE"
);
},
{
closed = 1;
nodes = (
"164 71 LINE",
"164 717 LINE",
"86 717 LINE",
"86 71 LINE"
);
}
);
width = 764.17647;
},
{
anchors = (
{
name = bottom;
position = "{471, -113}";
},
{
name = top;
position = "{521, 658}";
}
);
associatedMasterId = "EA657207-4E15-4023-BA2A-6FA5407A60CD";
layerId = "BD160389-F8BE-4AE1-A26F-60551B407B2A";
name = "Mar 11 20, 00:48";
paths = (
{
closed = 1;
nodes = (
"820 0 LINE",
"820 208 LINE SMOOTH",
"820 394 OFFCURVE",
"712 505 OFFCURVE",
"552 505 CURVE SMOOTH",
"384 505 OFFCURVE",
"329 409 OFFCURVE",
"178 208 CURVE",
"216 71 LINE",
"249 111 OFFCURVE",
"377 317 OFFCURVE",
"516 317 CURVE SMOOTH",
"557 317 OFFCURVE",
"596 299 OFFCURVE",
"596 208 CURVE SMOOTH",
"596 38 LINE",
"775 188 LINE",
"20 188 LINE",
"20 0 LINE"
);
},
{
closed = 1;
nodes = (
"317 188 LINE",
"317 690 LINE",
"93 690 LINE",
"93 188 LINE"
);
}
);
width = 880;
}
);
unicode = 0637;
},
{
color = 5;
glyphname = "tah-ar.fina";
layers = (
{
components = (
{
name = "tah-ar";
},
{
name = connection_r;
transform = "{1, 0, 0, 1, 707, 0}";
}
);
layerId = "459CA063-FA7D-4205-A795-7B6CE244EAAB";
paths = (
{
closed = 1;
nodes = (
"757 0 LINE",
"757 34 LINE",
"657 34 LINE",
"657 0 LINE"
);
}
);
width = 757;
},
{
components = (
{
name = "tah-ar";
},
{
name = connection_r;
transform = "{1, 0, 0, 1, 871, 0}";
}
);
layerId = "EA657207-4E15-4023-BA2A-6FA5407A60CD";
paths = (
{
closed = 1;
nodes = (
"921 0 LINE",
"921 188 LINE",
"820 188 LINE",
"820 0 LINE"
);
}
);
width = 921;
},
{
components = (
{
alignment = -1;
name = "tah-ar";
},
{
alignment = -1;
name = connection_r;
transform = "{1, 0, 0, 1, 747, 0}";
}
);
layerId = "5E4DD32C-6BC9-4010-93B4-D8C61BED16DC";
paths = (
{
closed = 1;
nodes = (
"797 0 LINE",
"797 71 LINE",
"688 71 LINE",
"688 0 LINE"
);
}
);
width = 796.68627;
}
);
unicode = FEC2;
},
{
color = 5;
glyphname = "tah-ar.medi";
layers = (
{
components = (
{
name = "tah-ar.init";
},
{
name = connection_r;
transform = "{1, 0, 0, 1, 720, 0}";
}
);
layerId = "459CA063-FA7D-4205-A795-7B6CE244EAAB";
paths = (
{
closed = 1;
nodes = (
"770 0 LINE",
"770 34 LINE",
"670 34 LINE",
"670 0 LINE"
);
}
);
width = 770;
},
{
components = (
{
name = "tah-ar.init";
},
{
name = connection_r;
transform = "{1, 0, 0, 1, 879, 0}";
}
);
layerId = "EA657207-4E15-4023-BA2A-6FA5407A60CD";
paths = (
{
closed = 1;
nodes = (
"929 0 LINE",
"929 188 LINE",
"828 188 LINE",
"828 0 LINE"
);
}
);
width = 929;
},
{
components = (
{
alignment = -1;
name = "tah-ar.init";
},
{
alignment = -1;
name = connection_r;
transform = "{1, 0, 0, 1, 769, 0}";
}
);
layerId = "5E4DD32C-6BC9-4010-93B4-D8C61BED16DC";
paths = (
{
closed = 1;
nodes = (
"819 0 LINE",
"819 71 LINE",
"711 71 LINE",
"711 0 LINE"
);
}
);
width = 818.7451;
}
);
unicode = FEC4;
},
{
color = 5;
glyphname = "tah-ar.init";
layers = (
{
anchors = (
{
name = bottom;
position = "{391, -73}";
},
{
name = top;
position = "{391, 573}";
}
);
components = (
{
name = connection_l;
}
);
layerId = "459CA063-FA7D-4205-A795-7B6CE244EAAB";
paths = (
{
closed = 1;
nodes = (
"670 0 LINE",
"670 241 LINE SMOOTH",
"670 353 OFFCURVE",
"627 500 OFFCURVE",
"437 500 CURVE SMOOTH",
"271 500 OFFCURVE",
"191 388 OFFCURVE",
"108 285 CURVE",
"135 264 LINE",
"221 371 OFFCURVE",
"293 466 OFFCURVE",
"436 466 CURVE SMOOTH",
"568 466 OFFCURVE",
"635 385 OFFCURVE",
"635 241 CURVE SMOOTH",
"635 10 LINE",
"660 34 LINE",
"0 34 LINE",
"0 0 LINE"
);
},
{
closed = 1;
nodes = (
"135 34 LINE",
"135 730 LINE",
"100 730 LINE",
"100 34 LINE"
);
}
);
width = 750;
},
{
anchors = (
{
name = bottom;
position = "{479, -113}";
},
{
name = top;
position = "{529, 600}";
}
);
components = (
{
name = connection_l;
}
);
layerId = "EA657207-4E15-4023-BA2A-6FA5407A60CD";
paths = (
{
closed = 1;
nodes = (
"828 0 LINE",
"828 208 LINE SMOOTH",
"828 394 OFFCURVE",
"720 505 OFFCURVE",
"560 505 CURVE SMOOTH",
"392 505 OFFCURVE",
"360 455 OFFCURVE",
"186 208 CURVE",
"224 71 LINE",
"257 111 OFFCURVE",
"385 317 OFFCURVE",
"524 317 CURVE SMOOTH",
"565 317 OFFCURVE",
"604 299 OFFCURVE",
"604 208 CURVE SMOOTH",
"604 38 LINE",
"783 188 LINE",
"0 188 LINE",
"0 0 LINE"
);
},
{
closed = 1;
nodes = (
"325 188 LINE",
"325 690 LINE",
"101 690 LINE",
"101 188 LINE"
);
}
);
width = 888;
},
{
anchors = (
{
name = bottom;
position = "{420, -90}";
},
{
name = top;
position = "{420, 590}";
}
);
components = (
{
alignment = -1;
name = connection_l;
}
);
layerId = "5E4DD32C-6BC9-4010-93B4-D8C61BED16DC";
paths = (
{
closed = 1;
nodes = (
"711 0 LINE",
"711 241 LINE SMOOTH",
"711 353 OFFCURVE",
"668 500 OFFCURVE",
"478 500 CURVE SMOOTH",
"312 500 OFFCURVE",
"232 388 OFFCURVE",
"149 285 CURVE",
"174 214 LINE",
"238 295 OFFCURVE",
"331 429 OFFCURVE",
"477 429 CURVE SMOOTH",
"581 429 OFFCURVE",
"633 366 OFFCURVE",
"633 241 CURVE SMOOTH",
"633 6 LINE",
"705 71 LINE",
"0 71 LINE",
"0 0 LINE"
);
},
{
closed = 1;
nodes = (
"186 71 LINE",
"186 717 LINE",
"108 717 LINE",
"108 71 LINE"
);
}
);
width = 786.23529;
}
);
unicode = FEC3;
},
